  0
SECTION
  2
HEADER
  9
$ACADVER
  1
AC1009
  9
$EXTMIN
 10
0.0
 20
0.0
 30
0.0
  9
$EXTMAX
 10
1000.0
 20
1000.0
 30
0.0
  9
$FILLMODE
 70
 0
  9
$SPLFRAME
 70
 1
  0
ENDSEC
  0
SECTION
  2
TABLES
  0
TABLE
  2
LAYER
 70
1
  0
LAYER
  2
0
 70
     0
 62
     7
  6
CONTINUOUS
  0
ENDTAB
  0
ENDSEC
  0
SECTION
  2
ENTITIES
  0
LINE
  8
0
 62
     0
 10
0.0950846
 20
112.441
 30
0.0
 11
330.595
 21
112.441
 31
0.0
  0
LINE
  8
0
 62
     0
 10
330.595
 20
112.441
 30
0.0
 11
330.595
 21
0.241157
 31
0.0
  0
LINE
  8
0
 62
     0
 10
330.595
 20
0.241157
 30
0.0
 11
0.0950846
 21
0.241157
 31
0.0
  0
LINE
  8
0
 62
     0
 10
0.0950846
 20
0.241157
 30
0.0
 11
0.0950846
 21
112.441
 31
0.0
  0
LINE
  8
0
 62
     0
 10
323.977
 20
8.14419
 30
0.0
 11
323.42
 21
7.85894
 31
0.0
  0
LINE
  8
0
 62
     0
 10
323.42
 20
7.85894
 30
0.0
 11
322.976
 21
7.41659
 31
0.0
  0
LINE
  8
0
 62
     0
 10
322.976
 20
7.41659
 30
0.0
 11
322.693
 21
6.85987
 31
0.0
  0
LINE
  8
0
 62
     0
 10
322.693
 20
6.85987
 30
0.0
 11
322.596
 21
6.24113
 31
0.0
  0
LINE
  8
0
 62
     0
 10
322.596
 20
6.24113
 30
0.0
 11
322.693
 21
5.6224
 31
0.0
  0
LINE
  8
0
 62
     0
 10
322.693
 20
5.6224
 30
0.0
 11
322.976
 21
5.06568
 31
0.0
  0
LINE
  8
0
 62
     0
 10
322.976
 20
5.06568
 30
0.0
 11
323.42
 21
4.62195
 31
0.0
  0
LINE
  8
0
 62
     0
 10
323.42
 20
4.62195
 30
0.0
 11
323.977
 21
4.33807
 31
0.0
  0
LINE
  8
0
 62
     0
 10
323.977
 20
4.33807
 30
0.0
 11
324.595
 21
4.24021
 31
0.0
  0
LINE
  8
0
 62
     0
 10
324.595
 20
4.24021
 30
0.0
 11
325.213
 21
4.33807
 31
0.0
  0
LINE
  8
0
 62
     0
 10
325.213
 20
4.33807
 30
0.0
 11
325.771
 21
4.62195
 31
0.0
  0
LINE
  8
0
 62
     0
 10
325.771
 20
4.62195
 30
0.0
 11
326.213
 21
5.06568
 31
0.0
  0
LINE
  8
0
 62
     0
 10
326.213
 20
5.06568
 30
0.0
 11
326.497
 21
5.6224
 31
0.0
  0
LINE
  8
0
 62
     0
 10
326.497
 20
5.6224
 30
0.0
 11
326.595
 21
6.24113
 31
0.0
  0
LINE
  8
0
 62
     0
 10
326.595
 20
6.24113
 30
0.0
 11
326.497
 21
6.85987
 31
0.0
  0
LINE
  8
0
 62
     0
 10
326.497
 20
6.85987
 30
0.0
 11
326.213
 21
7.41659
 31
0.0
  0
LINE
  8
0
 62
     0
 10
326.213
 20
7.41659
 30
0.0
 11
325.771
 21
7.85894
 31
0.0
  0
LINE
  8
0
 62
     0
 10
325.771
 20
7.85894
 30
0.0
 11
325.213
 21
8.14419
 31
0.0
  0
LINE
  8
0
 62
     0
 10
325.213
 20
8.14419
 30
0.0
 11
324.595
 21
8.24068
 31
0.0
  0
LINE
  8
0
 62
     0
 10
324.595
 20
8.24068
 30
0.0
 11
323.977
 21
8.14419
 31
0.0
  0
LINE
  8
0
 62
     0
 10
5.47493
 20
8.14419
 30
0.0
 11
4.91822
 21
7.85894
 31
0.0
  0
LINE
  8
0
 62
     0
 10
4.91822
 20
7.85894
 30
0.0
 11
4.47587
 21
7.41659
 31
0.0
  0
LINE
  8
0
 62
     0
 10
4.47587
 20
7.41659
 30
0.0
 11
4.19199
 21
6.85987
 31
0.0
  0
LINE
  8
0
 62
     0
 10
4.19199
 20
6.85987
 30
0.0
 11
4.09416
 21
6.24113
 31
0.0
  0
LINE
  8
0
 62
     0
 10
4.09416
 20
6.24113
 30
0.0
 11
4.19199
 21
5.6224
 31
0.0
  0
LINE
  8
0
 62
     0
 10
4.19199
 20
5.6224
 30
0.0
 11
4.47587
 21
5.06568
 31
0.0
  0
LINE
  8
0
 62
     0
 10
4.47587
 20
5.06568
 30
0.0
 11
4.91822
 21
4.62195
 31
0.0
  0
LINE
  8
0
 62
     0
 10
4.91822
 20
4.62195
 30
0.0
 11
5.47493
 21
4.33807
 31
0.0
  0
LINE
  8
0
 62
     0
 10
5.47493
 20
4.33807
 30
0.0
 11
6.09505
 21
4.24021
 31
0.0
  0
LINE
  8
0
 62
     0
 10
6.09505
 20
4.24021
 30
0.0
 11
6.71241
 21
4.33807
 31
0.0
  0
LINE
  8
0
 62
     0
 10
6.71241
 20
4.33807
 30
0.0
 11
7.26916
 21
4.62195
 31
0.0
  0
LINE
  8
0
 62
     0
 10
7.26916
 20
4.62195
 30
0.0
 11
7.71289
 21
5.06568
 31
0.0
  0
LINE
  8
0
 62
     0
 10
7.71289
 20
5.06568
 30
0.0
 11
7.99677
 21
5.6224
 31
0.0
  0
LINE
  8
0
 62
     0
 10
7.99677
 20
5.6224
 30
0.0
 11
8.09459
 21
6.24113
 31
0.0
  0
LINE
  8
0
 62
     0
 10
8.09459
 20
6.24113
 30
0.0
 11
7.99677
 21
6.85987
 31
0.0
  0
LINE
  8
0
 62
     0
 10
7.99677
 20
6.85987
 30
0.0
 11
7.71289
 21
7.41659
 31
0.0
  0
LINE
  8
0
 62
     0
 10
7.71289
 20
7.41659
 30
0.0
 11
7.26916
 21
7.85894
 31
0.0
  0
LINE
  8
0
 62
     0
 10
7.26916
 20
7.85894
 30
0.0
 11
6.71241
 21
8.14419
 31
0.0
  0
LINE
  8
0
 62
     0
 10
6.71241
 20
8.14419
 30
0.0
 11
6.09505
 21
8.24068
 31
0.0
  0
LINE
  8
0
 62
     0
 10
6.09505
 20
8.24068
 30
0.0
 11
5.47493
 21
8.14419
 31
0.0
  0
LINE
  8
0
 62
     0
 10
184.537
 20
25.2415
 30
0.0
 11
184.537
 21
24.2411
 31
0.0
  0
LINE
  8
0
 62
     0
 10
184.537
 20
24.2411
 30
0.0
 11
183.738
 21
24.2411
 31
0.0
  0
LINE
  8
0
 62
     0
 10
183.738
 20
24.2411
 30
0.0
 11
183.738
 21
21.1419
 31
0.0
  0
LINE
  8
0
 62
     0
 10
183.738
 20
21.1419
 30
0.0
 11
184.537
 21
21.1419
 31
0.0
  0
LINE
  8
0
 62
     0
 10
184.537
 20
21.1419
 30
0.0
 11
184.537
 21
20.5411
 31
0.0
  0
LINE
  8
0
 62
     0
 10
184.537
 20
20.5411
 30
0.0
 11
183.013
 21
20.5411
 31
0.0
  0
LINE
  8
0
 62
     0
 10
183.013
 20
20.5411
 30
0.0
 11
183.013
 21
23.7712
 31
0.0
  0
LINE
  8
0
 62
     0
 10
183.013
 20
23.7712
 30
0.0
 11
176.262
 21
23.7712
 31
0.0
  0
LINE
  8
0
 62
     0
 10
176.262
 20
23.7712
 30
0.0
 11
176.262
 21
20.5411
 31
0.0
  0
LINE
  8
0
 62
     0
 10
176.262
 20
20.5411
 30
0.0
 11
175.438
 21
20.5411
 31
0.0
  0
LINE
  8
0
 62
     0
 10
175.438
 20
20.5411
 30
0.0
 11
175.438
 21
17.7423
 31
0.0
  0
LINE
  8
0
 62
     0
 10
175.438
 20
17.7423
 30
0.0
 11
176.262
 21
17.7423
 31
0.0
  0
LINE
  8
0
 62
     0
 10
176.262
 20
17.7423
 30
0.0
 11
176.262
 21
11.4722
 31
0.0
  0
LINE
  8
0
 62
     0
 10
176.262
 20
11.4722
 30
0.0
 11
177.987
 21
11.4722
 31
0.0
  0
LINE
  8
0
 62
     0
 10
177.987
 20
11.4722
 30
0.0
 11
177.987
 21
10.2719
 31
0.0
  0
LINE
  8
0
 62
     0
 10
177.987
 20
10.2719
 30
0.0
 11
181.288
 21
10.2719
 31
0.0
  0
LINE
  8
0
 62
     0
 10
181.288
 20
10.2719
 30
0.0
 11
181.288
 21
11.4722
 31
0.0
  0
LINE
  8
0
 62
     0
 10
181.288
 20
11.4722
 30
0.0
 11
183.013
 21
11.4722
 31
0.0
  0
LINE
  8
0
 62
     0
 10
183.013
 20
11.4722
 30
0.0
 11
183.013
 21
15.9411
 31
0.0
  0
LINE
  8
0
 62
     0
 10
183.013
 20
15.9411
 30
0.0
 11
184.537
 21
15.9411
 31
0.0
  0
LINE
  8
0
 62
     0
 10
184.537
 20
15.9411
 30
0.0
 11
184.537
 21
15.3417
 31
0.0
  0
LINE
  8
0
 62
     0
 10
184.537
 20
15.3417
 30
0.0
 11
183.738
 21
15.3417
 31
0.0
  0
LINE
  8
0
 62
     0
 10
183.738
 20
15.3417
 30
0.0
 11
183.738
 21
12.2411
 31
0.0
  0
LINE
  8
0
 62
     0
 10
183.738
 20
12.2411
 30
0.0
 11
184.537
 21
12.2411
 31
0.0
  0
LINE
  8
0
 62
     0
 10
184.537
 20
12.2411
 30
0.0
 11
184.537
 21
11.242
 31
0.0
  0
LINE
  8
0
 62
     0
 10
184.537
 20
11.242
 30
0.0
 11
198.538
 21
11.242
 31
0.0
  0
LINE
  8
0
 62
     0
 10
198.538
 20
11.242
 30
0.0
 11
198.538
 21
12.2411
 31
0.0
  0
LINE
  8
0
 62
     0
 10
198.538
 20
12.2411
 30
0.0
 11
199.337
 21
12.2411
 31
0.0
  0
LINE
  8
0
 62
     0
 10
199.337
 20
12.2411
 30
0.0
 11
199.337
 21
15.3417
 31
0.0
  0
LINE
  8
0
 62
     0
 10
199.337
 20
15.3417
 30
0.0
 11
198.538
 21
15.3417
 31
0.0
  0
LINE
  8
0
 62
     0
 10
198.538
 20
15.3417
 30
0.0
 11
198.538
 21
15.9411
 31
0.0
  0
LINE
  8
0
 62
     0
 10
198.538
 20
15.9411
 30
0.0
 11
200.062
 21
15.9411
 31
0.0
  0
LINE
  8
0
 62
     0
 10
200.062
 20
15.9411
 30
0.0
 11
200.062
 21
11.4722
 31
0.0
  0
LINE
  8
0
 62
     0
 10
200.062
 20
11.4722
 30
0.0
 11
201.787
 21
11.4722
 31
0.0
  0
LINE
  8
0
 62
     0
 10
201.787
 20
11.4722
 30
0.0
 11
201.787
 21
10.2719
 31
0.0
  0
LINE
  8
0
 62
     0
 10
201.787
 20
10.2719
 30
0.0
 11
205.088
 21
10.2719
 31
0.0
  0
LINE
  8
0
 62
     0
 10
205.088
 20
10.2719
 30
0.0
 11
205.088
 21
11.4722
 31
0.0
  0
LINE
  8
0
 62
     0
 10
205.088
 20
11.4722
 30
0.0
 11
206.812
 21
11.4722
 31
0.0
  0
LINE
  8
0
 62
     0
 10
206.812
 20
11.4722
 30
0.0
 11
206.812
 21
17.7423
 31
0.0
  0
LINE
  8
0
 62
     0
 10
206.812
 20
17.7423
 30
0.0
 11
207.637
 21
17.7423
 31
0.0
  0
LINE
  8
0
 62
     0
 10
207.637
 20
17.7423
 30
0.0
 11
207.637
 21
20.5411
 31
0.0
  0
LINE
  8
0
 62
     0
 10
207.637
 20
20.5411
 30
0.0
 11
206.812
 21
20.5411
 31
0.0
  0
LINE
  8
0
 62
     0
 10
206.812
 20
20.5411
 30
0.0
 11
206.812
 21
23.7712
 31
0.0
  0
LINE
  8
0
 62
     0
 10
206.812
 20
23.7712
 30
0.0
 11
200.062
 21
23.7712
 31
0.0
  0
LINE
  8
0
 62
     0
 10
200.062
 20
23.7712
 30
0.0
 11
200.062
 21
20.5411
 31
0.0
  0
LINE
  8
0
 62
     0
 10
200.062
 20
20.5411
 30
0.0
 11
198.538
 21
20.5411
 31
0.0
  0
LINE
  8
0
 62
     0
 10
198.538
 20
20.5411
 30
0.0
 11
198.538
 21
21.1419
 31
0.0
  0
LINE
  8
0
 62
     0
 10
198.538
 20
21.1419
 30
0.0
 11
199.337
 21
21.1419
 31
0.0
  0
LINE
  8
0
 62
     0
 10
199.337
 20
21.1419
 30
0.0
 11
199.337
 21
24.2411
 31
0.0
  0
LINE
  8
0
 62
     0
 10
199.337
 20
24.2411
 30
0.0
 11
198.538
 21
24.2411
 31
0.0
  0
LINE
  8
0
 62
     0
 10
198.538
 20
24.2411
 30
0.0
 11
198.538
 21
25.2415
 31
0.0
  0
LINE
  8
0
 62
     0
 10
198.538
 20
25.2415
 30
0.0
 11
184.537
 21
25.2415
 31
0.0
  0
LINE
  8
0
 62
     0
 10
113.101
 20
25.2415
 30
0.0
 11
113.101
 21
24.2411
 31
0.0
  0
LINE
  8
0
 62
     0
 10
113.101
 20
24.2411
 30
0.0
 11
112.3
 21
24.2411
 31
0.0
  0
LINE
  8
0
 62
     0
 10
112.3
 20
24.2411
 30
0.0
 11
112.3
 21
21.1419
 31
0.0
  0
LINE
  8
0
 62
     0
 10
112.3
 20
21.1419
 30
0.0
 11
113.101
 21
21.1419
 31
0.0
  0
LINE
  8
0
 62
     0
 10
113.101
 20
21.1419
 30
0.0
 11
113.101
 21
20.5411
 31
0.0
  0
LINE
  8
0
 62
     0
 10
113.101
 20
20.5411
 30
0.0
 11
111.576
 21
20.5411
 31
0.0
  0
LINE
  8
0
 62
     0
 10
111.576
 20
20.5411
 30
0.0
 11
111.576
 21
23.7712
 31
0.0
  0
LINE
  8
0
 62
     0
 10
111.576
 20
23.7712
 30
0.0
 11
104.826
 21
23.7712
 31
0.0
  0
LINE
  8
0
 62
     0
 10
104.826
 20
23.7712
 30
0.0
 11
104.826
 21
20.5411
 31
0.0
  0
LINE
  8
0
 62
     0
 10
104.826
 20
20.5411
 30
0.0
 11
104.001
 21
20.5411
 31
0.0
  0
LINE
  8
0
 62
     0
 10
104.001
 20
20.5411
 30
0.0
 11
104.001
 21
17.7423
 31
0.0
  0
LINE
  8
0
 62
     0
 10
104.001
 20
17.7423
 30
0.0
 11
104.826
 21
17.7423
 31
0.0
  0
LINE
  8
0
 62
     0
 10
104.826
 20
17.7423
 30
0.0
 11
104.826
 21
11.4722
 31
0.0
  0
LINE
  8
0
 62
     0
 10
104.826
 20
11.4722
 30
0.0
 11
106.55
 21
11.4722
 31
0.0
  0
LINE
  8
0
 62
     0
 10
106.55
 20
11.4722
 30
0.0
 11
106.55
 21
10.2719
 31
0.0
  0
LINE
  8
0
 62
     0
 10
106.55
 20
10.2719
 30
0.0
 11
109.85
 21
10.2719
 31
0.0
  0
LINE
  8
0
 62
     0
 10
109.85
 20
10.2719
 30
0.0
 11
109.85
 21
11.4722
 31
0.0
  0
LINE
  8
0
 62
     0
 10
109.85
 20
11.4722
 30
0.0
 11
111.576
 21
11.4722
 31
0.0
  0
LINE
  8
0
 62
     0
 10
111.576
 20
11.4722
 30
0.0
 11
111.576
 21
15.9411
 31
0.0
  0
LINE
  8
0
 62
     0
 10
111.576
 20
15.9411
 30
0.0
 11
113.101
 21
15.9411
 31
0.0
  0
LINE
  8
0
 62
     0
 10
113.101
 20
15.9411
 30
0.0
 11
113.101
 21
15.3417
 31
0.0
  0
LINE
  8
0
 62
     0
 10
113.101
 20
15.3417
 30
0.0
 11
112.3
 21
15.3417
 31
0.0
  0
LINE
  8
0
 62
     0
 10
112.3
 20
15.3417
 30
0.0
 11
112.3
 21
12.2411
 31
0.0
  0
LINE
  8
0
 62
     0
 10
112.3
 20
12.2411
 30
0.0
 11
113.101
 21
12.2411
 31
0.0
  0
LINE
  8
0
 62
     0
 10
113.101
 20
12.2411
 30
0.0
 11
113.101
 21
11.242
 31
0.0
  0
LINE
  8
0
 62
     0
 10
113.101
 20
11.242
 30
0.0
 11
127.101
 21
11.242
 31
0.0
  0
LINE
  8
0
 62
     0
 10
127.101
 20
11.242
 30
0.0
 11
127.101
 21
12.2411
 31
0.0
  0
LINE
  8
0
 62
     0
 10
127.101
 20
12.2411
 30
0.0
 11
127.9
 21
12.2411
 31
0.0
  0
LINE
  8
0
 62
     0
 10
127.9
 20
12.2411
 30
0.0
 11
127.9
 21
15.3417
 31
0.0
  0
LINE
  8
0
 62
     0
 10
127.9
 20
15.3417
 30
0.0
 11
127.101
 21
15.3417
 31
0.0
  0
LINE
  8
0
 62
     0
 10
127.101
 20
15.3417
 30
0.0
 11
127.101
 21
15.9411
 31
0.0
  0
LINE
  8
0
 62
     0
 10
127.101
 20
15.9411
 30
0.0
 11
128.626
 21
15.9411
 31
0.0
  0
LINE
  8
0
 62
     0
 10
128.626
 20
15.9411
 30
0.0
 11
128.626
 21
11.4722
 31
0.0
  0
LINE
  8
0
 62
     0
 10
128.626
 20
11.4722
 30
0.0
 11
130.35
 21
11.4722
 31
0.0
  0
LINE
  8
0
 62
     0
 10
130.35
 20
11.4722
 30
0.0
 11
130.35
 21
10.2719
 31
0.0
  0
LINE
  8
0
 62
     0
 10
130.35
 20
10.2719
 30
0.0
 11
133.651
 21
10.2719
 31
0.0
  0
LINE
  8
0
 62
     0
 10
133.651
 20
10.2719
 30
0.0
 11
133.651
 21
11.4722
 31
0.0
  0
LINE
  8
0
 62
     0
 10
133.651
 20
11.4722
 30
0.0
 11
135.376
 21
11.4722
 31
0.0
  0
LINE
  8
0
 62
     0
 10
135.376
 20
11.4722
 30
0.0
 11
135.376
 21
17.7423
 31
0.0
  0
LINE
  8
0
 62
     0
 10
135.376
 20
17.7423
 30
0.0
 11
136.201
 21
17.7423
 31
0.0
  0
LINE
  8
0
 62
     0
 10
136.201
 20
17.7423
 30
0.0
 11
136.201
 21
20.5411
 31
0.0
  0
LINE
  8
0
 62
     0
 10
136.201
 20
20.5411
 30
0.0
 11
135.376
 21
20.5411
 31
0.0
  0
LINE
  8
0
 62
     0
 10
135.376
 20
20.5411
 30
0.0
 11
135.376
 21
23.7712
 31
0.0
  0
LINE
  8
0
 62
     0
 10
135.376
 20
23.7712
 30
0.0
 11
128.626
 21
23.7712
 31
0.0
  0
LINE
  8
0
 62
     0
 10
128.626
 20
23.7712
 30
0.0
 11
128.626
 21
20.5411
 31
0.0
  0
LINE
  8
0
 62
     0
 10
128.626
 20
20.5411
 30
0.0
 11
127.101
 21
20.5411
 31
0.0
  0
LINE
  8
0
 62
     0
 10
127.101
 20
20.5411
 30
0.0
 11
127.101
 21
21.1419
 31
0.0
  0
LINE
  8
0
 62
     0
 10
127.101
 20
21.1419
 30
0.0
 11
127.9
 21
21.1419
 31
0.0
  0
LINE
  8
0
 62
     0
 10
127.9
 20
21.1419
 30
0.0
 11
127.9
 21
24.2411
 31
0.0
  0
LINE
  8
0
 62
     0
 10
127.9
 20
24.2411
 30
0.0
 11
127.101
 21
24.2411
 31
0.0
  0
LINE
  8
0
 62
     0
 10
127.101
 20
24.2411
 30
0.0
 11
127.101
 21
25.2415
 31
0.0
  0
LINE
  8
0
 62
     0
 10
127.101
 20
25.2415
 30
0.0
 11
113.101
 21
25.2415
 31
0.0
  0
LINE
  8
0
 62
     0
 10
291.695
 20
25.2415
 30
0.0
 11
291.695
 21
24.2411
 31
0.0
  0
LINE
  8
0
 62
     0
 10
291.695
 20
24.2411
 30
0.0
 11
290.894
 21
24.2411
 31
0.0
  0
LINE
  8
0
 62
     0
 10
290.894
 20
24.2411
 30
0.0
 11
290.894
 21
21.1419
 31
0.0
  0
LINE
  8
0
 62
     0
 10
290.894
 20
21.1419
 30
0.0
 11
291.695
 21
21.1419
 31
0.0
  0
LINE
  8
0
 62
     0
 10
291.695
 20
21.1419
 30
0.0
 11
291.695
 21
15.3417
 31
0.0
  0
LINE
  8
0
 62
     0
 10
291.695
 20
15.3417
 30
0.0
 11
290.894
 21
15.3417
 31
0.0
  0
LINE
  8
0
 62
     0
 10
290.894
 20
15.3417
 30
0.0
 11
290.894
 21
12.2411
 31
0.0
  0
LINE
  8
0
 62
     0
 10
290.894
 20
12.2411
 30
0.0
 11
291.695
 21
12.2411
 31
0.0
  0
LINE
  8
0
 62
     0
 10
291.695
 20
12.2411
 30
0.0
 11
291.695
 21
11.242
 31
0.0
  0
LINE
  8
0
 62
     0
 10
291.695
 20
11.242
 30
0.0
 11
305.694
 21
11.242
 31
0.0
  0
LINE
  8
0
 62
     0
 10
305.694
 20
11.242
 30
0.0
 11
305.694
 21
12.2411
 31
0.0
  0
LINE
  8
0
 62
     0
 10
305.694
 20
12.2411
 30
0.0
 11
306.495
 21
12.2411
 31
0.0
  0
LINE
  8
0
 62
     0
 10
306.495
 20
12.2411
 30
0.0
 11
306.495
 21
15.3417
 31
0.0
  0
LINE
  8
0
 62
     0
 10
306.495
 20
15.3417
 30
0.0
 11
305.694
 21
15.3417
 31
0.0
  0
LINE
  8
0
 62
     0
 10
305.694
 20
15.3417
 30
0.0
 11
305.694
 21
21.1419
 31
0.0
  0
LINE
  8
0
 62
     0
 10
305.694
 20
21.1419
 30
0.0
 11
306.495
 21
21.1419
 31
0.0
  0
LINE
  8
0
 62
     0
 10
306.495
 20
21.1419
 30
0.0
 11
306.495
 21
24.2411
 31
0.0
  0
LINE
  8
0
 62
     0
 10
306.495
 20
24.2411
 30
0.0
 11
305.694
 21
24.2411
 31
0.0
  0
LINE
  8
0
 62
     0
 10
305.694
 20
24.2411
 30
0.0
 11
305.694
 21
25.2415
 31
0.0
  0
LINE
  8
0
 62
     0
 10
305.694
 20
25.2415
 30
0.0
 11
291.695
 21
25.2415
 31
0.0
  0
LINE
  8
0
 62
     0
 10
272.645
 20
25.2415
 30
0.0
 11
272.645
 21
24.2411
 31
0.0
  0
LINE
  8
0
 62
     0
 10
272.645
 20
24.2411
 30
0.0
 11
271.844
 21
24.2411
 31
0.0
  0
LINE
  8
0
 62
     0
 10
271.844
 20
24.2411
 30
0.0
 11
271.844
 21
21.1419
 31
0.0
  0
LINE
  8
0
 62
     0
 10
271.844
 20
21.1419
 30
0.0
 11
272.645
 21
21.1419
 31
0.0
  0
LINE
  8
0
 62
     0
 10
272.645
 20
21.1419
 30
0.0
 11
272.645
 21
15.3417
 31
0.0
  0
LINE
  8
0
 62
     0
 10
272.645
 20
15.3417
 30
0.0
 11
271.844
 21
15.3417
 31
0.0
  0
LINE
  8
0
 62
     0
 10
271.844
 20
15.3417
 30
0.0
 11
271.844
 21
12.2411
 31
0.0
  0
LINE
  8
0
 62
     0
 10
271.844
 20
12.2411
 30
0.0
 11
272.645
 21
12.2411
 31
0.0
  0
LINE
  8
0
 62
     0
 10
272.645
 20
12.2411
 30
0.0
 11
272.645
 21
11.242
 31
0.0
  0
LINE
  8
0
 62
     0
 10
272.645
 20
11.242
 30
0.0
 11
286.644
 21
11.242
 31
0.0
  0
LINE
  8
0
 62
     0
 10
286.644
 20
11.242
 30
0.0
 11
286.644
 21
12.2411
 31
0.0
  0
LINE
  8
0
 62
     0
 10
286.644
 20
12.2411
 30
0.0
 11
287.445
 21
12.2411
 31
0.0
  0
LINE
  8
0
 62
     0
 10
287.445
 20
12.2411
 30
0.0
 11
287.445
 21
15.3417
 31
0.0
  0
LINE
  8
0
 62
     0
 10
287.445
 20
15.3417
 30
0.0
 11
286.644
 21
15.3417
 31
0.0
  0
LINE
  8
0
 62
     0
 10
286.644
 20
15.3417
 30
0.0
 11
286.644
 21
21.1419
 31
0.0
  0
LINE
  8
0
 62
     0
 10
286.644
 20
21.1419
 30
0.0
 11
287.445
 21
21.1419
 31
0.0
  0
LINE
  8
0
 62
     0
 10
287.445
 20
21.1419
 30
0.0
 11
287.445
 21
24.2411
 31
0.0
  0
LINE
  8
0
 62
     0
 10
287.445
 20
24.2411
 30
0.0
 11
286.644
 21
24.2411
 31
0.0
  0
LINE
  8
0
 62
     0
 10
286.644
 20
24.2411
 30
0.0
 11
286.644
 21
25.2415
 31
0.0
  0
LINE
  8
0
 62
     0
 10
286.644
 20
25.2415
 30
0.0
 11
272.645
 21
25.2415
 31
0.0
  0
LINE
  8
0
 62
     0
 10
253.595
 20
25.2415
 30
0.0
 11
253.595
 21
24.2411
 31
0.0
  0
LINE
  8
0
 62
     0
 10
253.595
 20
24.2411
 30
0.0
 11
252.794
 21
24.2411
 31
0.0
  0
LINE
  8
0
 62
     0
 10
252.794
 20
24.2411
 30
0.0
 11
252.794
 21
21.1419
 31
0.0
  0
LINE
  8
0
 62
     0
 10
252.794
 20
21.1419
 30
0.0
 11
253.595
 21
21.1419
 31
0.0
  0
LINE
  8
0
 62
     0
 10
253.595
 20
21.1419
 30
0.0
 11
253.595
 21
15.3417
 31
0.0
  0
LINE
  8
0
 62
     0
 10
253.595
 20
15.3417
 30
0.0
 11
252.794
 21
15.3417
 31
0.0
  0
LINE
  8
0
 62
     0
 10
252.794
 20
15.3417
 30
0.0
 11
252.794
 21
12.2411
 31
0.0
  0
LINE
  8
0
 62
     0
 10
252.794
 20
12.2411
 30
0.0
 11
253.595
 21
12.2411
 31
0.0
  0
LINE
  8
0
 62
     0
 10
253.595
 20
12.2411
 30
0.0
 11
253.595
 21
11.242
 31
0.0
  0
LINE
  8
0
 62
     0
 10
253.595
 20
11.242
 30
0.0
 11
267.594
 21
11.242
 31
0.0
  0
LINE
  8
0
 62
     0
 10
267.594
 20
11.242
 30
0.0
 11
267.594
 21
12.2411
 31
0.0
  0
LINE
  8
0
 62
     0
 10
267.594
 20
12.2411
 30
0.0
 11
268.395
 21
12.2411
 31
0.0
  0
LINE
  8
0
 62
     0
 10
268.395
 20
12.2411
 30
0.0
 11
268.395
 21
15.3417
 31
0.0
  0
LINE
  8
0
 62
     0
 10
268.395
 20
15.3417
 30
0.0
 11
267.594
 21
15.3417
 31
0.0
  0
LINE
  8
0
 62
     0
 10
267.594
 20
15.3417
 30
0.0
 11
267.594
 21
21.1419
 31
0.0
  0
LINE
  8
0
 62
     0
 10
267.594
 20
21.1419
 30
0.0
 11
268.395
 21
21.1419
 31
0.0
  0
LINE
  8
0
 62
     0
 10
268.395
 20
21.1419
 30
0.0
 11
268.395
 21
24.2411
 31
0.0
  0
LINE
  8
0
 62
     0
 10
268.395
 20
24.2411
 30
0.0
 11
267.594
 21
24.2411
 31
0.0
  0
LINE
  8
0
 62
     0
 10
267.594
 20
24.2411
 30
0.0
 11
267.594
 21
25.2415
 31
0.0
  0
LINE
  8
0
 62
     0
 10
267.594
 20
25.2415
 30
0.0
 11
253.595
 21
25.2415
 31
0.0
  0
LINE
  8
0
 62
     0
 10
234.545
 20
25.2415
 30
0.0
 11
234.545
 21
24.2411
 31
0.0
  0
LINE
  8
0
 62
     0
 10
234.545
 20
24.2411
 30
0.0
 11
233.744
 21
24.2411
 31
0.0
  0
LINE
  8
0
 62
     0
 10
233.744
 20
24.2411
 30
0.0
 11
233.744
 21
21.1419
 31
0.0
  0
LINE
  8
0
 62
     0
 10
233.744
 20
21.1419
 30
0.0
 11
234.545
 21
21.1419
 31
0.0
  0
LINE
  8
0
 62
     0
 10
234.545
 20
21.1419
 30
0.0
 11
234.545
 21
15.3417
 31
0.0
  0
LINE
  8
0
 62
     0
 10
234.545
 20
15.3417
 30
0.0
 11
233.744
 21
15.3417
 31
0.0
  0
LINE
  8
0
 62
     0
 10
233.744
 20
15.3417
 30
0.0
 11
233.744
 21
12.2411
 31
0.0
  0
LINE
  8
0
 62
     0
 10
233.744
 20
12.2411
 30
0.0
 11
234.545
 21
12.2411
 31
0.0
  0
LINE
  8
0
 62
     0
 10
234.545
 20
12.2411
 30
0.0
 11
234.545
 21
11.242
 31
0.0
  0
LINE
  8
0
 62
     0
 10
234.545
 20
11.242
 30
0.0
 11
248.544
 21
11.242
 31
0.0
  0
LINE
  8
0
 62
     0
 10
248.544
 20
11.242
 30
0.0
 11
248.544
 21
12.2411
 31
0.0
  0
LINE
  8
0
 62
     0
 10
248.544
 20
12.2411
 30
0.0
 11
249.345
 21
12.2411
 31
0.0
  0
LINE
  8
0
 62
     0
 10
249.345
 20
12.2411
 30
0.0
 11
249.345
 21
15.3417
 31
0.0
  0
LINE
  8
0
 62
     0
 10
249.345
 20
15.3417
 30
0.0
 11
248.544
 21
15.3417
 31
0.0
  0
LINE
  8
0
 62
     0
 10
248.544
 20
15.3417
 30
0.0
 11
248.544
 21
21.1419
 31
0.0
  0
LINE
  8
0
 62
     0
 10
248.544
 20
21.1419
 30
0.0
 11
249.345
 21
21.1419
 31
0.0
  0
LINE
  8
0
 62
     0
 10
249.345
 20
21.1419
 30
0.0
 11
249.345
 21
24.2411
 31
0.0
  0
LINE
  8
0
 62
     0
 10
249.345
 20
24.2411
 30
0.0
 11
248.544
 21
24.2411
 31
0.0
  0
LINE
  8
0
 62
     0
 10
248.544
 20
24.2411
 30
0.0
 11
248.544
 21
25.2415
 31
0.0
  0
LINE
  8
0
 62
     0
 10
248.544
 20
25.2415
 30
0.0
 11
234.545
 21
25.2415
 31
0.0
  0
LINE
  8
0
 62
     0
 10
215.495
 20
25.2415
 30
0.0
 11
215.495
 21
24.2411
 31
0.0
  0
LINE
  8
0
 62
     0
 10
215.495
 20
24.2411
 30
0.0
 11
214.694
 21
24.2411
 31
0.0
  0
LINE
  8
0
 62
     0
 10
214.694
 20
24.2411
 30
0.0
 11
214.694
 21
21.1419
 31
0.0
  0
LINE
  8
0
 62
     0
 10
214.694
 20
21.1419
 30
0.0
 11
215.495
 21
21.1419
 31
0.0
  0
LINE
  8
0
 62
     0
 10
215.495
 20
21.1419
 30
0.0
 11
215.495
 21
15.3417
 31
0.0
  0
LINE
  8
0
 62
     0
 10
215.495
 20
15.3417
 30
0.0
 11
214.694
 21
15.3417
 31
0.0
  0
LINE
  8
0
 62
     0
 10
214.694
 20
15.3417
 30
0.0
 11
214.694
 21
12.2411
 31
0.0
  0
LINE
  8
0
 62
     0
 10
214.694
 20
12.2411
 30
0.0
 11
215.495
 21
12.2411
 31
0.0
  0
LINE
  8
0
 62
     0
 10
215.495
 20
12.2411
 30
0.0
 11
215.495
 21
11.242
 31
0.0
  0
LINE
  8
0
 62
     0
 10
215.495
 20
11.242
 30
0.0
 11
229.494
 21
11.242
 31
0.0
  0
LINE
  8
0
 62
     0
 10
229.494
 20
11.242
 30
0.0
 11
229.494
 21
12.2411
 31
0.0
  0
LINE
  8
0
 62
     0
 10
229.494
 20
12.2411
 30
0.0
 11
230.295
 21
12.2411
 31
0.0
  0
LINE
  8
0
 62
     0
 10
230.295
 20
12.2411
 30
0.0
 11
230.295
 21
15.3417
 31
0.0
  0
LINE
  8
0
 62
     0
 10
230.295
 20
15.3417
 30
0.0
 11
229.494
 21
15.3417
 31
0.0
  0
LINE
  8
0
 62
     0
 10
229.494
 20
15.3417
 30
0.0
 11
229.494
 21
21.1419
 31
0.0
  0
LINE
  8
0
 62
     0
 10
229.494
 20
21.1419
 30
0.0
 11
230.295
 21
21.1419
 31
0.0
  0
LINE
  8
0
 62
     0
 10
230.295
 20
21.1419
 30
0.0
 11
230.295
 21
24.2411
 31
0.0
  0
LINE
  8
0
 62
     0
 10
230.295
 20
24.2411
 30
0.0
 11
229.494
 21
24.2411
 31
0.0
  0
LINE
  8
0
 62
     0
 10
229.494
 20
24.2411
 30
0.0
 11
229.494
 21
25.2415
 31
0.0
  0
LINE
  8
0
 62
     0
 10
229.494
 20
25.2415
 30
0.0
 11
215.495
 21
25.2415
 31
0.0
  0
LINE
  8
0
 62
     0
 10
151.201
 20
25.2415
 30
0.0
 11
151.201
 21
24.2411
 31
0.0
  0
LINE
  8
0
 62
     0
 10
151.201
 20
24.2411
 30
0.0
 11
150.4
 21
24.2411
 31
0.0
  0
LINE
  8
0
 62
     0
 10
150.4
 20
24.2411
 30
0.0
 11
150.4
 21
21.1419
 31
0.0
  0
LINE
  8
0
 62
     0
 10
150.4
 20
21.1419
 30
0.0
 11
151.201
 21
21.1419
 31
0.0
  0
LINE
  8
0
 62
     0
 10
151.201
 20
21.1419
 30
0.0
 11
151.201
 21
15.3417
 31
0.0
  0
LINE
  8
0
 62
     0
 10
151.201
 20
15.3417
 30
0.0
 11
150.4
 21
15.3417
 31
0.0
  0
LINE
  8
0
 62
     0
 10
150.4
 20
15.3417
 30
0.0
 11
150.4
 21
12.2411
 31
0.0
  0
LINE
  8
0
 62
     0
 10
150.4
 20
12.2411
 30
0.0
 11
151.201
 21
12.2411
 31
0.0
  0
LINE
  8
0
 62
     0
 10
151.201
 20
12.2411
 30
0.0
 11
151.201
 21
11.242
 31
0.0
  0
LINE
  8
0
 62
     0
 10
151.201
 20
11.242
 30
0.0
 11
165.201
 21
11.242
 31
0.0
  0
LINE
  8
0
 62
     0
 10
165.201
 20
11.242
 30
0.0
 11
165.201
 21
12.2411
 31
0.0
  0
LINE
  8
0
 62
     0
 10
165.201
 20
12.2411
 30
0.0
 11
166
 21
12.2411
 31
0.0
  0
LINE
  8
0
 62
     0
 10
166
 20
12.2411
 30
0.0
 11
166
 21
15.3417
 31
0.0
  0
LINE
  8
0
 62
     0
 10
166
 20
15.3417
 30
0.0
 11
165.201
 21
15.3417
 31
0.0
  0
LINE
  8
0
 62
     0
 10
165.201
 20
15.3417
 30
0.0
 11
165.201
 21
21.1419
 31
0.0
  0
LINE
  8
0
 62
     0
 10
165.201
 20
21.1419
 30
0.0
 11
166
 21
21.1419
 31
0.0
  0
LINE
  8
0
 62
     0
 10
166
 20
21.1419
 30
0.0
 11
166
 21
24.2411
 31
0.0
  0
LINE
  8
0
 62
     0
 10
166
 20
24.2411
 30
0.0
 11
165.201
 21
24.2411
 31
0.0
  0
LINE
  8
0
 62
     0
 10
165.201
 20
24.2411
 30
0.0
 11
165.201
 21
25.2415
 31
0.0
  0
LINE
  8
0
 62
     0
 10
165.201
 20
25.2415
 30
0.0
 11
151.201
 21
25.2415
 31
0.0
  0
LINE
  8
0
 62
     0
 10
75.0013
 20
25.2415
 30
0.0
 11
75.0013
 21
24.2411
 31
0.0
  0
LINE
  8
0
 62
     0
 10
75.0013
 20
24.2411
 30
0.0
 11
74.2005
 21
24.2411
 31
0.0
  0
LINE
  8
0
 62
     0
 10
74.2005
 20
24.2411
 30
0.0
 11
74.2005
 21
21.1419
 31
0.0
  0
LINE
  8
0
 62
     0
 10
74.2005
 20
21.1419
 30
0.0
 11
75.0013
 21
21.1419
 31
0.0
  0
LINE
  8
0
 62
     0
 10
75.0013
 20
21.1419
 30
0.0
 11
75.0013
 21
15.3417
 31
0.0
  0
LINE
  8
0
 62
     0
 10
75.0013
 20
15.3417
 30
0.0
 11
74.2005
 21
15.3417
 31
0.0
  0
LINE
  8
0
 62
     0
 10
74.2005
 20
15.3417
 30
0.0
 11
74.2005
 21
12.2411
 31
0.0
  0
LINE
  8
0
 62
     0
 10
74.2005
 20
12.2411
 30
0.0
 11
75.0013
 21
12.2411
 31
0.0
  0
LINE
  8
0
 62
     0
 10
75.0013
 20
12.2411
 30
0.0
 11
75.0013
 21
11.242
 31
0.0
  0
LINE
  8
0
 62
     0
 10
75.0013
 20
11.242
 30
0.0
 11
89.0005
 21
11.242
 31
0.0
  0
LINE
  8
0
 62
     0
 10
89.0005
 20
11.242
 30
0.0
 11
89.0005
 21
12.2411
 31
0.0
  0
LINE
  8
0
 62
     0
 10
89.0005
 20
12.2411
 30
0.0
 11
89.7999
 21
12.2411
 31
0.0
  0
LINE
  8
0
 62
     0
 10
89.7999
 20
12.2411
 30
0.0
 11
89.7999
 21
15.3417
 31
0.0
  0
LINE
  8
0
 62
     0
 10
89.7999
 20
15.3417
 30
0.0
 11
89.0005
 21
15.3417
 31
0.0
  0
LINE
  8
0
 62
     0
 10
89.0005
 20
15.3417
 30
0.0
 11
89.0005
 21
21.1419
 31
0.0
  0
LINE
  8
0
 62
     0
 10
89.0005
 20
21.1419
 30
0.0
 11
89.7999
 21
21.1419
 31
0.0
  0
LINE
  8
0
 62
     0
 10
89.7999
 20
21.1419
 30
0.0
 11
89.7999
 21
24.2411
 31
0.0
  0
LINE
  8
0
 62
     0
 10
89.7999
 20
24.2411
 30
0.0
 11
89.0005
 21
24.2411
 31
0.0
  0
LINE
  8
0
 62
     0
 10
89.0005
 20
24.2411
 30
0.0
 11
89.0005
 21
25.2415
 31
0.0
  0
LINE
  8
0
 62
     0
 10
89.0005
 20
25.2415
 30
0.0
 11
75.0013
 21
25.2415
 31
0.0
  0
LINE
  8
0
 62
     0
 10
51.1874
 20
25.2415
 30
0.0
 11
51.1874
 21
24.2411
 31
0.0
  0
LINE
  8
0
 62
     0
 10
51.1874
 20
24.2411
 30
0.0
 11
50.388
 21
24.2411
 31
0.0
  0
LINE
  8
0
 62
     0
 10
50.388
 20
24.2411
 30
0.0
 11
50.388
 21
21.1419
 31
0.0
  0
LINE
  8
0
 62
     0
 10
50.388
 20
21.1419
 30
0.0
 11
51.1874
 21
21.1419
 31
0.0
  0
LINE
  8
0
 62
     0
 10
51.1874
 20
21.1419
 30
0.0
 11
51.1874
 21
15.3417
 31
0.0
  0
LINE
  8
0
 62
     0
 10
51.1874
 20
15.3417
 30
0.0
 11
50.388
 21
15.3417
 31
0.0
  0
LINE
  8
0
 62
     0
 10
50.388
 20
15.3417
 30
0.0
 11
50.388
 21
12.2411
 31
0.0
  0
LINE
  8
0
 62
     0
 10
50.388
 20
12.2411
 30
0.0
 11
51.1874
 21
12.2411
 31
0.0
  0
LINE
  8
0
 62
     0
 10
51.1874
 20
12.2411
 30
0.0
 11
51.1874
 21
11.242
 31
0.0
  0
LINE
  8
0
 62
     0
 10
51.1874
 20
11.242
 30
0.0
 11
65.188
 21
11.242
 31
0.0
  0
LINE
  8
0
 62
     0
 10
65.188
 20
11.242
 30
0.0
 11
65.188
 21
12.2411
 31
0.0
  0
LINE
  8
0
 62
     0
 10
65.188
 20
12.2411
 30
0.0
 11
65.9874
 21
12.2411
 31
0.0
  0
LINE
  8
0
 62
     0
 10
65.9874
 20
12.2411
 30
0.0
 11
65.9874
 21
15.3417
 31
0.0
  0
LINE
  8
0
 62
     0
 10
65.9874
 20
15.3417
 30
0.0
 11
65.188
 21
15.3417
 31
0.0
  0
LINE
  8
0
 62
     0
 10
65.188
 20
15.3417
 30
0.0
 11
65.188
 21
21.1419
 31
0.0
  0
LINE
  8
0
 62
     0
 10
65.188
 20
21.1419
 30
0.0
 11
65.9874
 21
21.1419
 31
0.0
  0
LINE
  8
0
 62
     0
 10
65.9874
 20
21.1419
 30
0.0
 11
65.9874
 21
24.2411
 31
0.0
  0
LINE
  8
0
 62
     0
 10
65.9874
 20
24.2411
 30
0.0
 11
65.188
 21
24.2411
 31
0.0
  0
LINE
  8
0
 62
     0
 10
65.188
 20
24.2411
 30
0.0
 11
65.188
 21
25.2415
 31
0.0
  0
LINE
  8
0
 62
     0
 10
65.188
 20
25.2415
 30
0.0
 11
51.1874
 21
25.2415
 31
0.0
  0
LINE
  8
0
 62
     0
 10
27.3761
 20
25.2415
 30
0.0
 11
27.3761
 21
24.2411
 31
0.0
  0
LINE
  8
0
 62
     0
 10
27.3761
 20
24.2411
 30
0.0
 11
26.5755
 21
24.2411
 31
0.0
  0
LINE
  8
0
 62
     0
 10
26.5755
 20
24.2411
 30
0.0
 11
26.5755
 21
21.1419
 31
0.0
  0
LINE
  8
0
 62
     0
 10
26.5755
 20
21.1419
 30
0.0
 11
27.3761
 21
21.1419
 31
0.0
  0
LINE
  8
0
 62
     0
 10
27.3761
 20
21.1419
 30
0.0
 11
27.3761
 21
15.3417
 31
0.0
  0
LINE
  8
0
 62
     0
 10
27.3761
 20
15.3417
 30
0.0
 11
26.5755
 21
15.3417
 31
0.0
  0
LINE
  8
0
 62
     0
 10
26.5755
 20
15.3417
 30
0.0
 11
26.5755
 21
12.2411
 31
0.0
  0
LINE
  8
0
 62
     0
 10
26.5755
 20
12.2411
 30
0.0
 11
27.3761
 21
12.2411
 31
0.0
  0
LINE
  8
0
 62
     0
 10
27.3761
 20
12.2411
 30
0.0
 11
27.3761
 21
11.242
 31
0.0
  0
LINE
  8
0
 62
     0
 10
27.3761
 20
11.242
 30
0.0
 11
41.3755
 21
11.242
 31
0.0
  0
LINE
  8
0
 62
     0
 10
41.3755
 20
11.242
 30
0.0
 11
41.3755
 21
12.2411
 31
0.0
  0
LINE
  8
0
 62
     0
 10
41.3755
 20
12.2411
 30
0.0
 11
42.1749
 21
12.2411
 31
0.0
  0
LINE
  8
0
 62
     0
 10
42.1749
 20
12.2411
 30
0.0
 11
42.1749
 21
15.3417
 31
0.0
  0
LINE
  8
0
 62
     0
 10
42.1749
 20
15.3417
 30
0.0
 11
41.3755
 21
15.3417
 31
0.0
  0
LINE
  8
0
 62
     0
 10
41.3755
 20
15.3417
 30
0.0
 11
41.3755
 21
21.1419
 31
0.0
  0
LINE
  8
0
 62
     0
 10
41.3755
 20
21.1419
 30
0.0
 11
42.1749
 21
21.1419
 31
0.0
  0
LINE
  8
0
 62
     0
 10
42.1749
 20
21.1419
 30
0.0
 11
42.1749
 21
24.2411
 31
0.0
  0
LINE
  8
0
 62
     0
 10
42.1749
 20
24.2411
 30
0.0
 11
41.3755
 21
24.2411
 31
0.0
  0
LINE
  8
0
 62
     0
 10
41.3755
 20
24.2411
 30
0.0
 11
41.3755
 21
25.2415
 31
0.0
  0
LINE
  8
0
 62
     0
 10
41.3755
 20
25.2415
 30
0.0
 11
27.3761
 21
25.2415
 31
0.0
  0
LINE
  8
0
 62
     0
 10
36.9013
 20
44.2916
 30
0.0
 11
36.9013
 21
43.2911
 31
0.0
  0
LINE
  8
0
 62
     0
 10
36.9013
 20
43.2911
 30
0.0
 11
36.1005
 21
43.2911
 31
0.0
  0
LINE
  8
0
 62
     0
 10
36.1005
 20
43.2911
 30
0.0
 11
36.1005
 21
40.192
 31
0.0
  0
LINE
  8
0
 62
     0
 10
36.1005
 20
40.192
 30
0.0
 11
36.9013
 21
40.192
 31
0.0
  0
LINE
  8
0
 62
     0
 10
36.9013
 20
40.192
 30
0.0
 11
36.9013
 21
39.5912
 31
0.0
  0
LINE
  8
0
 62
     0
 10
36.9013
 20
39.5912
 30
0.0
 11
35.3755
 21
39.5912
 31
0.0
  0
LINE
  8
0
 62
     0
 10
35.3755
 20
39.5912
 30
0.0
 11
35.3755
 21
42.8212
 31
0.0
  0
LINE
  8
0
 62
     0
 10
35.3755
 20
42.8212
 30
0.0
 11
28.626
 21
42.8212
 31
0.0
  0
LINE
  8
0
 62
     0
 10
28.626
 20
42.8212
 30
0.0
 11
28.626
 21
39.5912
 31
0.0
  0
LINE
  8
0
 62
     0
 10
28.626
 20
39.5912
 30
0.0
 11
27.8005
 21
39.5912
 31
0.0
  0
LINE
  8
0
 62
     0
 10
27.8005
 20
39.5912
 30
0.0
 11
27.8005
 21
36.7923
 31
0.0
  0
LINE
  8
0
 62
     0
 10
27.8005
 20
36.7923
 30
0.0
 11
28.626
 21
36.7923
 31
0.0
  0
LINE
  8
0
 62
     0
 10
28.626
 20
36.7923
 30
0.0
 11
28.626
 21
30.5222
 31
0.0
  0
LINE
  8
0
 62
     0
 10
28.626
 20
30.5222
 30
0.0
 11
30.3499
 21
30.5222
 31
0.0
  0
LINE
  8
0
 62
     0
 10
30.3499
 20
30.5222
 30
0.0
 11
30.3499
 21
29.3219
 31
0.0
  0
LINE
  8
0
 62
     0
 10
30.3499
 20
29.3219
 30
0.0
 11
33.6503
 21
29.3219
 31
0.0
  0
LINE
  8
0
 62
     0
 10
33.6503
 20
29.3219
 30
0.0
 11
33.6503
 21
30.5222
 31
0.0
  0
LINE
  8
0
 62
     0
 10
33.6503
 20
30.5222
 30
0.0
 11
35.3755
 21
30.5222
 31
0.0
  0
LINE
  8
0
 62
     0
 10
35.3755
 20
30.5222
 30
0.0
 11
35.3755
 21
34.9911
 31
0.0
  0
LINE
  8
0
 62
     0
 10
35.3755
 20
34.9911
 30
0.0
 11
36.9013
 21
34.9911
 31
0.0
  0
LINE
  8
0
 62
     0
 10
36.9013
 20
34.9911
 30
0.0
 11
36.9013
 21
34.3917
 31
0.0
  0
LINE
  8
0
 62
     0
 10
36.9013
 20
34.3917
 30
0.0
 11
36.1005
 21
34.3917
 31
0.0
  0
LINE
  8
0
 62
     0
 10
36.1005
 20
34.3917
 30
0.0
 11
36.1005
 21
31.2911
 31
0.0
  0
LINE
  8
0
 62
     0
 10
36.1005
 20
31.2911
 30
0.0
 11
36.9013
 21
31.2911
 31
0.0
  0
LINE
  8
0
 62
     0
 10
36.9013
 20
31.2911
 30
0.0
 11
36.9013
 21
30.292
 31
0.0
  0
LINE
  8
0
 62
     0
 10
36.9013
 20
30.292
 30
0.0
 11
50.9005
 21
30.292
 31
0.0
  0
LINE
  8
0
 62
     0
 10
50.9005
 20
30.292
 30
0.0
 11
50.9005
 21
31.2911
 31
0.0
  0
LINE
  8
0
 62
     0
 10
50.9005
 20
31.2911
 30
0.0
 11
51.6999
 21
31.2911
 31
0.0
  0
LINE
  8
0
 62
     0
 10
51.6999
 20
31.2911
 30
0.0
 11
51.6999
 21
34.3917
 31
0.0
  0
LINE
  8
0
 62
     0
 10
51.6999
 20
34.3917
 30
0.0
 11
50.9005
 21
34.3917
 31
0.0
  0
LINE
  8
0
 62
     0
 10
50.9005
 20
34.3917
 30
0.0
 11
50.9005
 21
34.9911
 31
0.0
  0
LINE
  8
0
 62
     0
 10
50.9005
 20
34.9911
 30
0.0
 11
52.426
 21
34.9911
 31
0.0
  0
LINE
  8
0
 62
     0
 10
52.426
 20
34.9911
 30
0.0
 11
52.426
 21
30.5222
 31
0.0
  0
LINE
  8
0
 62
     0
 10
52.426
 20
30.5222
 30
0.0
 11
54.15
 21
30.5222
 31
0.0
  0
LINE
  8
0
 62
     0
 10
54.15
 20
30.5222
 30
0.0
 11
54.15
 21
29.3219
 31
0.0
  0
LINE
  8
0
 62
     0
 10
54.15
 20
29.3219
 30
0.0
 11
57.4506
 21
29.3219
 31
0.0
  0
LINE
  8
0
 62
     0
 10
57.4506
 20
29.3219
 30
0.0
 11
57.4506
 21
30.5222
 31
0.0
  0
LINE
  8
0
 62
     0
 10
57.4506
 20
30.5222
 30
0.0
 11
59.1757
 21
30.5222
 31
0.0
  0
LINE
  8
0
 62
     0
 10
59.1757
 20
30.5222
 30
0.0
 11
59.1757
 21
36.7923
 31
0.0
  0
LINE
  8
0
 62
     0
 10
59.1757
 20
36.7923
 30
0.0
 11
60.0012
 21
36.7923
 31
0.0
  0
LINE
  8
0
 62
     0
 10
60.0012
 20
36.7923
 30
0.0
 11
60.0012
 21
39.5912
 31
0.0
  0
LINE
  8
0
 62
     0
 10
60.0012
 20
39.5912
 30
0.0
 11
59.1757
 21
39.5912
 31
0.0
  0
LINE
  8
0
 62
     0
 10
59.1757
 20
39.5912
 30
0.0
 11
59.1757
 21
42.8212
 31
0.0
  0
LINE
  8
0
 62
     0
 10
59.1757
 20
42.8212
 30
0.0
 11
52.426
 21
42.8212
 31
0.0
  0
LINE
  8
0
 62
     0
 10
52.426
 20
42.8212
 30
0.0
 11
52.426
 21
39.5912
 31
0.0
  0
LINE
  8
0
 62
     0
 10
52.426
 20
39.5912
 30
0.0
 11
50.9005
 21
39.5912
 31
0.0
  0
LINE
  8
0
 62
     0
 10
50.9005
 20
39.5912
 30
0.0
 11
50.9005
 21
40.192
 31
0.0
  0
LINE
  8
0
 62
     0
 10
50.9005
 20
40.192
 30
0.0
 11
51.6999
 21
40.192
 31
0.0
  0
LINE
  8
0
 62
     0
 10
51.6999
 20
40.192
 30
0.0
 11
51.6999
 21
43.2911
 31
0.0
  0
LINE
  8
0
 62
     0
 10
51.6999
 20
43.2911
 30
0.0
 11
50.9005
 21
43.2911
 31
0.0
  0
LINE
  8
0
 62
     0
 10
50.9005
 20
43.2911
 30
0.0
 11
50.9005
 21
44.2916
 31
0.0
  0
LINE
  8
0
 62
     0
 10
50.9005
 20
44.2916
 30
0.0
 11
36.9013
 21
44.2916
 31
0.0
  0
LINE
  8
0
 62
     0
 10
291.695
 20
44.2916
 30
0.0
 11
291.695
 21
43.2911
 31
0.0
  0
LINE
  8
0
 62
     0
 10
291.695
 20
43.2911
 30
0.0
 11
290.894
 21
43.2911
 31
0.0
  0
LINE
  8
0
 62
     0
 10
290.894
 20
43.2911
 30
0.0
 11
290.894
 21
40.192
 31
0.0
  0
LINE
  8
0
 62
     0
 10
290.894
 20
40.192
 30
0.0
 11
291.695
 21
40.192
 31
0.0
  0
LINE
  8
0
 62
     0
 10
291.695
 20
40.192
 30
0.0
 11
291.695
 21
34.3917
 31
0.0
  0
LINE
  8
0
 62
     0
 10
291.695
 20
34.3917
 30
0.0
 11
290.894
 21
34.3917
 31
0.0
  0
LINE
  8
0
 62
     0
 10
290.894
 20
34.3917
 30
0.0
 11
290.894
 21
31.2911
 31
0.0
  0
LINE
  8
0
 62
     0
 10
290.894
 20
31.2911
 30
0.0
 11
291.695
 21
31.2911
 31
0.0
  0
LINE
  8
0
 62
     0
 10
291.695
 20
31.2911
 30
0.0
 11
291.695
 21
30.292
 31
0.0
  0
LINE
  8
0
 62
     0
 10
291.695
 20
30.292
 30
0.0
 11
305.694
 21
30.292
 31
0.0
  0
LINE
  8
0
 62
     0
 10
305.694
 20
30.292
 30
0.0
 11
305.694
 21
31.2911
 31
0.0
  0
LINE
  8
0
 62
     0
 10
305.694
 20
31.2911
 30
0.0
 11
306.495
 21
31.2911
 31
0.0
  0
LINE
  8
0
 62
     0
 10
306.495
 20
31.2911
 30
0.0
 11
306.495
 21
34.3917
 31
0.0
  0
LINE
  8
0
 62
     0
 10
306.495
 20
34.3917
 30
0.0
 11
305.694
 21
34.3917
 31
0.0
  0
LINE
  8
0
 62
     0
 10
305.694
 20
34.3917
 30
0.0
 11
305.694
 21
40.192
 31
0.0
  0
LINE
  8
0
 62
     0
 10
305.694
 20
40.192
 30
0.0
 11
306.495
 21
40.192
 31
0.0
  0
LINE
  8
0
 62
     0
 10
306.495
 20
40.192
 30
0.0
 11
306.495
 21
43.2911
 31
0.0
  0
LINE
  8
0
 62
     0
 10
306.495
 20
43.2911
 30
0.0
 11
305.694
 21
43.2911
 31
0.0
  0
LINE
  8
0
 62
     0
 10
305.694
 20
43.2911
 30
0.0
 11
305.694
 21
44.2916
 31
0.0
  0
LINE
  8
0
 62
     0
 10
305.694
 20
44.2916
 30
0.0
 11
291.695
 21
44.2916
 31
0.0
  0
LINE
  8
0
 62
     0
 10
265.501
 20
44.2916
 30
0.0
 11
265.501
 21
43.2911
 31
0.0
  0
LINE
  8
0
 62
     0
 10
265.501
 20
43.2911
 30
0.0
 11
264.7
 21
43.2911
 31
0.0
  0
LINE
  8
0
 62
     0
 10
264.7
 20
43.2911
 30
0.0
 11
264.7
 21
40.192
 31
0.0
  0
LINE
  8
0
 62
     0
 10
264.7
 20
40.192
 30
0.0
 11
265.501
 21
40.192
 31
0.0
  0
LINE
  8
0
 62
     0
 10
265.501
 20
40.192
 30
0.0
 11
265.501
 21
34.3917
 31
0.0
  0
LINE
  8
0
 62
     0
 10
265.501
 20
34.3917
 30
0.0
 11
264.7
 21
34.3917
 31
0.0
  0
LINE
  8
0
 62
     0
 10
264.7
 20
34.3917
 30
0.0
 11
264.7
 21
31.2911
 31
0.0
  0
LINE
  8
0
 62
     0
 10
264.7
 20
31.2911
 30
0.0
 11
265.501
 21
31.2911
 31
0.0
  0
LINE
  8
0
 62
     0
 10
265.501
 20
31.2911
 30
0.0
 11
265.501
 21
30.292
 31
0.0
  0
LINE
  8
0
 62
     0
 10
265.501
 20
30.292
 30
0.0
 11
279.501
 21
30.292
 31
0.0
  0
LINE
  8
0
 62
     0
 10
279.501
 20
30.292
 30
0.0
 11
279.501
 21
31.2911
 31
0.0
  0
LINE
  8
0
 62
     0
 10
279.501
 20
31.2911
 30
0.0
 11
280.3
 21
31.2911
 31
0.0
  0
LINE
  8
0
 62
     0
 10
280.3
 20
31.2911
 30
0.0
 11
280.3
 21
34.3917
 31
0.0
  0
LINE
  8
0
 62
     0
 10
280.3
 20
34.3917
 30
0.0
 11
279.501
 21
34.3917
 31
0.0
  0
LINE
  8
0
 62
     0
 10
279.501
 20
34.3917
 30
0.0
 11
279.501
 21
40.192
 31
0.0
  0
LINE
  8
0
 62
     0
 10
279.501
 20
40.192
 30
0.0
 11
280.3
 21
40.192
 31
0.0
  0
LINE
  8
0
 62
     0
 10
280.3
 20
40.192
 30
0.0
 11
280.3
 21
43.2911
 31
0.0
  0
LINE
  8
0
 62
     0
 10
280.3
 20
43.2911
 30
0.0
 11
279.501
 21
43.2911
 31
0.0
  0
LINE
  8
0
 62
     0
 10
279.501
 20
43.2911
 30
0.0
 11
279.501
 21
44.2916
 31
0.0
  0
LINE
  8
0
 62
     0
 10
279.501
 20
44.2916
 30
0.0
 11
265.501
 21
44.2916
 31
0.0
  0
LINE
  8
0
 62
     0
 10
239.306
 20
44.2916
 30
0.0
 11
239.306
 21
43.2911
 31
0.0
  0
LINE
  8
0
 62
     0
 10
239.306
 20
43.2911
 30
0.0
 11
238.507
 21
43.2911
 31
0.0
  0
LINE
  8
0
 62
     0
 10
238.507
 20
43.2911
 30
0.0
 11
238.507
 21
40.192
 31
0.0
  0
LINE
  8
0
 62
     0
 10
238.507
 20
40.192
 30
0.0
 11
239.306
 21
40.192
 31
0.0
  0
LINE
  8
0
 62
     0
 10
239.306
 20
40.192
 30
0.0
 11
239.306
 21
34.3917
 31
0.0
  0
LINE
  8
0
 62
     0
 10
239.306
 20
34.3917
 30
0.0
 11
238.507
 21
34.3917
 31
0.0
  0
LINE
  8
0
 62
     0
 10
238.507
 20
34.3917
 30
0.0
 11
238.507
 21
31.2911
 31
0.0
  0
LINE
  8
0
 62
     0
 10
238.507
 20
31.2911
 30
0.0
 11
239.306
 21
31.2911
 31
0.0
  0
LINE
  8
0
 62
     0
 10
239.306
 20
31.2911
 30
0.0
 11
239.306
 21
30.292
 31
0.0
  0
LINE
  8
0
 62
     0
 10
239.306
 20
30.292
 30
0.0
 11
253.307
 21
30.292
 31
0.0
  0
LINE
  8
0
 62
     0
 10
253.307
 20
30.292
 30
0.0
 11
253.307
 21
31.2911
 31
0.0
  0
LINE
  8
0
 62
     0
 10
253.307
 20
31.2911
 30
0.0
 11
254.106
 21
31.2911
 31
0.0
  0
LINE
  8
0
 62
     0
 10
254.106
 20
31.2911
 30
0.0
 11
254.106
 21
34.3917
 31
0.0
  0
LINE
  8
0
 62
     0
 10
254.106
 20
34.3917
 30
0.0
 11
253.307
 21
34.3917
 31
0.0
  0
LINE
  8
0
 62
     0
 10
253.307
 20
34.3917
 30
0.0
 11
253.307
 21
40.192
 31
0.0
  0
LINE
  8
0
 62
     0
 10
253.307
 20
40.192
 30
0.0
 11
254.106
 21
40.192
 31
0.0
  0
LINE
  8
0
 62
     0
 10
254.106
 20
40.192
 30
0.0
 11
254.106
 21
43.2911
 31
0.0
  0
LINE
  8
0
 62
     0
 10
254.106
 20
43.2911
 30
0.0
 11
253.307
 21
43.2911
 31
0.0
  0
LINE
  8
0
 62
     0
 10
253.307
 20
43.2911
 30
0.0
 11
253.307
 21
44.2916
 31
0.0
  0
LINE
  8
0
 62
     0
 10
253.307
 20
44.2916
 30
0.0
 11
239.306
 21
44.2916
 31
0.0
  0
LINE
  8
0
 62
     0
 10
220.256
 20
44.2916
 30
0.0
 11
220.256
 21
43.2911
 31
0.0
  0
LINE
  8
0
 62
     0
 10
220.256
 20
43.2911
 30
0.0
 11
219.457
 21
43.2911
 31
0.0
  0
LINE
  8
0
 62
     0
 10
219.457
 20
43.2911
 30
0.0
 11
219.457
 21
40.192
 31
0.0
  0
LINE
  8
0
 62
     0
 10
219.457
 20
40.192
 30
0.0
 11
220.256
 21
40.192
 31
0.0
  0
LINE
  8
0
 62
     0
 10
220.256
 20
40.192
 30
0.0
 11
220.256
 21
34.3917
 31
0.0
  0
LINE
  8
0
 62
     0
 10
220.256
 20
34.3917
 30
0.0
 11
219.457
 21
34.3917
 31
0.0
  0
LINE
  8
0
 62
     0
 10
219.457
 20
34.3917
 30
0.0
 11
219.457
 21
31.2911
 31
0.0
  0
LINE
  8
0
 62
     0
 10
219.457
 20
31.2911
 30
0.0
 11
220.256
 21
31.2911
 31
0.0
  0
LINE
  8
0
 62
     0
 10
220.256
 20
31.2911
 30
0.0
 11
220.256
 21
30.292
 31
0.0
  0
LINE
  8
0
 62
     0
 10
220.256
 20
30.292
 30
0.0
 11
234.257
 21
30.292
 31
0.0
  0
LINE
  8
0
 62
     0
 10
234.257
 20
30.292
 30
0.0
 11
234.257
 21
31.2911
 31
0.0
  0
LINE
  8
0
 62
     0
 10
234.257
 20
31.2911
 30
0.0
 11
235.056
 21
31.2911
 31
0.0
  0
LINE
  8
0
 62
     0
 10
235.056
 20
31.2911
 30
0.0
 11
235.056
 21
34.3917
 31
0.0
  0
LINE
  8
0
 62
     0
 10
235.056
 20
34.3917
 30
0.0
 11
234.257
 21
34.3917
 31
0.0
  0
LINE
  8
0
 62
     0
 10
234.257
 20
34.3917
 30
0.0
 11
234.257
 21
40.192
 31
0.0
  0
LINE
  8
0
 62
     0
 10
234.257
 20
40.192
 30
0.0
 11
235.056
 21
40.192
 31
0.0
  0
LINE
  8
0
 62
     0
 10
235.056
 20
40.192
 30
0.0
 11
235.056
 21
43.2911
 31
0.0
  0
LINE
  8
0
 62
     0
 10
235.056
 20
43.2911
 30
0.0
 11
234.257
 21
43.2911
 31
0.0
  0
LINE
  8
0
 62
     0
 10
234.257
 20
43.2911
 30
0.0
 11
234.257
 21
44.2916
 31
0.0
  0
LINE
  8
0
 62
     0
 10
234.257
 20
44.2916
 30
0.0
 11
220.256
 21
44.2916
 31
0.0
  0
LINE
  8
0
 62
     0
 10
201.206
 20
44.2916
 30
0.0
 11
201.206
 21
43.2911
 31
0.0
  0
LINE
  8
0
 62
     0
 10
201.206
 20
43.2911
 30
0.0
 11
200.407
 21
43.2911
 31
0.0
  0
LINE
  8
0
 62
     0
 10
200.407
 20
43.2911
 30
0.0
 11
200.407
 21
40.192
 31
0.0
  0
LINE
  8
0
 62
     0
 10
200.407
 20
40.192
 30
0.0
 11
201.206
 21
40.192
 31
0.0
  0
LINE
  8
0
 62
     0
 10
201.206
 20
40.192
 30
0.0
 11
201.206
 21
34.3917
 31
0.0
  0
LINE
  8
0
 62
     0
 10
201.206
 20
34.3917
 30
0.0
 11
200.407
 21
34.3917
 31
0.0
  0
LINE
  8
0
 62
     0
 10
200.407
 20
34.3917
 30
0.0
 11
200.407
 21
31.2911
 31
0.0
  0
LINE
  8
0
 62
     0
 10
200.407
 20
31.2911
 30
0.0
 11
201.206
 21
31.2911
 31
0.0
  0
LINE
  8
0
 62
     0
 10
201.206
 20
31.2911
 30
0.0
 11
201.206
 21
30.292
 31
0.0
  0
LINE
  8
0
 62
     0
 10
201.206
 20
30.292
 30
0.0
 11
215.207
 21
30.292
 31
0.0
  0
LINE
  8
0
 62
     0
 10
215.207
 20
30.292
 30
0.0
 11
215.207
 21
31.2911
 31
0.0
  0
LINE
  8
0
 62
     0
 10
215.207
 20
31.2911
 30
0.0
 11
216.006
 21
31.2911
 31
0.0
  0
LINE
  8
0
 62
     0
 10
216.006
 20
31.2911
 30
0.0
 11
216.006
 21
34.3917
 31
0.0
  0
LINE
  8
0
 62
     0
 10
216.006
 20
34.3917
 30
0.0
 11
215.207
 21
34.3917
 31
0.0
  0
LINE
  8
0
 62
     0
 10
215.207
 20
34.3917
 30
0.0
 11
215.207
 21
40.192
 31
0.0
  0
LINE
  8
0
 62
     0
 10
215.207
 20
40.192
 30
0.0
 11
216.006
 21
40.192
 31
0.0
  0
LINE
  8
0
 62
     0
 10
216.006
 20
40.192
 30
0.0
 11
216.006
 21
43.2911
 31
0.0
  0
LINE
  8
0
 62
     0
 10
216.006
 20
43.2911
 30
0.0
 11
215.207
 21
43.2911
 31
0.0
  0
LINE
  8
0
 62
     0
 10
215.207
 20
43.2911
 30
0.0
 11
215.207
 21
44.2916
 31
0.0
  0
LINE
  8
0
 62
     0
 10
215.207
 20
44.2916
 30
0.0
 11
201.206
 21
44.2916
 31
0.0
  0
LINE
  8
0
 62
     0
 10
182.156
 20
44.2916
 30
0.0
 11
182.156
 21
43.2911
 31
0.0
  0
LINE
  8
0
 62
     0
 10
182.156
 20
43.2911
 30
0.0
 11
181.357
 21
43.2911
 31
0.0
  0
LINE
  8
0
 62
     0
 10
181.357
 20
43.2911
 30
0.0
 11
181.357
 21
40.192
 31
0.0
  0
LINE
  8
0
 62
     0
 10
181.357
 20
40.192
 30
0.0
 11
182.156
 21
40.192
 31
0.0
  0
LINE
  8
0
 62
     0
 10
182.156
 20
40.192
 30
0.0
 11
182.156
 21
34.3917
 31
0.0
  0
LINE
  8
0
 62
     0
 10
182.156
 20
34.3917
 30
0.0
 11
181.357
 21
34.3917
 31
0.0
  0
LINE
  8
0
 62
     0
 10
181.357
 20
34.3917
 30
0.0
 11
181.357
 21
31.2911
 31
0.0
  0
LINE
  8
0
 62
     0
 10
181.357
 20
31.2911
 30
0.0
 11
182.156
 21
31.2911
 31
0.0
  0
LINE
  8
0
 62
     0
 10
182.156
 20
31.2911
 30
0.0
 11
182.156
 21
30.292
 31
0.0
  0
LINE
  8
0
 62
     0
 10
182.156
 20
30.292
 30
0.0
 11
196.157
 21
30.292
 31
0.0
  0
LINE
  8
0
 62
     0
 10
196.157
 20
30.292
 30
0.0
 11
196.157
 21
31.2911
 31
0.0
  0
LINE
  8
0
 62
     0
 10
196.157
 20
31.2911
 30
0.0
 11
196.956
 21
31.2911
 31
0.0
  0
LINE
  8
0
 62
     0
 10
196.956
 20
31.2911
 30
0.0
 11
196.956
 21
34.3917
 31
0.0
  0
LINE
  8
0
 62
     0
 10
196.956
 20
34.3917
 30
0.0
 11
196.157
 21
34.3917
 31
0.0
  0
LINE
  8
0
 62
     0
 10
196.157
 20
34.3917
 30
0.0
 11
196.157
 21
40.192
 31
0.0
  0
LINE
  8
0
 62
     0
 10
196.157
 20
40.192
 30
0.0
 11
196.956
 21
40.192
 31
0.0
  0
LINE
  8
0
 62
     0
 10
196.956
 20
40.192
 30
0.0
 11
196.956
 21
43.2911
 31
0.0
  0
LINE
  8
0
 62
     0
 10
196.956
 20
43.2911
 30
0.0
 11
196.157
 21
43.2911
 31
0.0
  0
LINE
  8
0
 62
     0
 10
196.157
 20
43.2911
 30
0.0
 11
196.157
 21
44.2916
 31
0.0
  0
LINE
  8
0
 62
     0
 10
196.157
 20
44.2916
 30
0.0
 11
182.156
 21
44.2916
 31
0.0
  0
LINE
  8
0
 62
     0
 10
163.106
 20
44.2916
 30
0.0
 11
163.106
 21
43.2911
 31
0.0
  0
LINE
  8
0
 62
     0
 10
163.106
 20
43.2911
 30
0.0
 11
162.307
 21
43.2911
 31
0.0
  0
LINE
  8
0
 62
     0
 10
162.307
 20
43.2911
 30
0.0
 11
162.307
 21
40.192
 31
0.0
  0
LINE
  8
0
 62
     0
 10
162.307
 20
40.192
 30
0.0
 11
163.106
 21
40.192
 31
0.0
  0
LINE
  8
0
 62
     0
 10
163.106
 20
40.192
 30
0.0
 11
163.106
 21
34.3917
 31
0.0
  0
LINE
  8
0
 62
     0
 10
163.106
 20
34.3917
 30
0.0
 11
162.307
 21
34.3917
 31
0.0
  0
LINE
  8
0
 62
     0
 10
162.307
 20
34.3917
 30
0.0
 11
162.307
 21
31.2911
 31
0.0
  0
LINE
  8
0
 62
     0
 10
162.307
 20
31.2911
 30
0.0
 11
163.106
 21
31.2911
 31
0.0
  0
LINE
  8
0
 62
     0
 10
163.106
 20
31.2911
 30
0.0
 11
163.106
 21
30.292
 31
0.0
  0
LINE
  8
0
 62
     0
 10
163.106
 20
30.292
 30
0.0
 11
177.107
 21
30.292
 31
0.0
  0
LINE
  8
0
 62
     0
 10
177.107
 20
30.292
 30
0.0
 11
177.107
 21
31.2911
 31
0.0
  0
LINE
  8
0
 62
     0
 10
177.107
 20
31.2911
 30
0.0
 11
177.906
 21
31.2911
 31
0.0
  0
LINE
  8
0
 62
     0
 10
177.906
 20
31.2911
 30
0.0
 11
177.906
 21
34.3917
 31
0.0
  0
LINE
  8
0
 62
     0
 10
177.906
 20
34.3917
 30
0.0
 11
177.107
 21
34.3917
 31
0.0
  0
LINE
  8
0
 62
     0
 10
177.107
 20
34.3917
 30
0.0
 11
177.107
 21
40.192
 31
0.0
  0
LINE
  8
0
 62
     0
 10
177.107
 20
40.192
 30
0.0
 11
177.906
 21
40.192
 31
0.0
  0
LINE
  8
0
 62
     0
 10
177.906
 20
40.192
 30
0.0
 11
177.906
 21
43.2911
 31
0.0
  0
LINE
  8
0
 62
     0
 10
177.906
 20
43.2911
 30
0.0
 11
177.107
 21
43.2911
 31
0.0
  0
LINE
  8
0
 62
     0
 10
177.107
 20
43.2911
 30
0.0
 11
177.107
 21
44.2916
 31
0.0
  0
LINE
  8
0
 62
     0
 10
177.107
 20
44.2916
 30
0.0
 11
163.106
 21
44.2916
 31
0.0
  0
LINE
  8
0
 62
     0
 10
144.056
 20
44.2916
 30
0.0
 11
144.056
 21
43.2911
 31
0.0
  0
LINE
  8
0
 62
     0
 10
144.056
 20
43.2911
 30
0.0
 11
143.257
 21
43.2911
 31
0.0
  0
LINE
  8
0
 62
     0
 10
143.257
 20
43.2911
 30
0.0
 11
143.257
 21
40.192
 31
0.0
  0
LINE
  8
0
 62
     0
 10
143.257
 20
40.192
 30
0.0
 11
144.056
 21
40.192
 31
0.0
  0
LINE
  8
0
 62
     0
 10
144.056
 20
40.192
 30
0.0
 11
144.056
 21
34.3917
 31
0.0
  0
LINE
  8
0
 62
     0
 10
144.056
 20
34.3917
 30
0.0
 11
143.257
 21
34.3917
 31
0.0
  0
LINE
  8
0
 62
     0
 10
143.257
 20
34.3917
 30
0.0
 11
143.257
 21
31.2911
 31
0.0
  0
LINE
  8
0
 62
     0
 10
143.257
 20
31.2911
 30
0.0
 11
144.056
 21
31.2911
 31
0.0
  0
LINE
  8
0
 62
     0
 10
144.056
 20
31.2911
 30
0.0
 11
144.056
 21
30.292
 31
0.0
  0
LINE
  8
0
 62
     0
 10
144.056
 20
30.292
 30
0.0
 11
158.057
 21
30.292
 31
0.0
  0
LINE
  8
0
 62
     0
 10
158.057
 20
30.292
 30
0.0
 11
158.057
 21
31.2911
 31
0.0
  0
LINE
  8
0
 62
     0
 10
158.057
 20
31.2911
 30
0.0
 11
158.856
 21
31.2911
 31
0.0
  0
LINE
  8
0
 62
     0
 10
158.856
 20
31.2911
 30
0.0
 11
158.856
 21
34.3917
 31
0.0
  0
LINE
  8
0
 62
     0
 10
158.856
 20
34.3917
 30
0.0
 11
158.057
 21
34.3917
 31
0.0
  0
LINE
  8
0
 62
     0
 10
158.057
 20
34.3917
 30
0.0
 11
158.057
 21
40.192
 31
0.0
  0
LINE
  8
0
 62
     0
 10
158.057
 20
40.192
 30
0.0
 11
158.856
 21
40.192
 31
0.0
  0
LINE
  8
0
 62
     0
 10
158.856
 20
40.192
 30
0.0
 11
158.856
 21
43.2911
 31
0.0
  0
LINE
  8
0
 62
     0
 10
158.856
 20
43.2911
 30
0.0
 11
158.057
 21
43.2911
 31
0.0
  0
LINE
  8
0
 62
     0
 10
158.057
 20
43.2911
 30
0.0
 11
158.057
 21
44.2916
 31
0.0
  0
LINE
  8
0
 62
     0
 10
158.057
 20
44.2916
 30
0.0
 11
144.056
 21
44.2916
 31
0.0
  0
LINE
  8
0
 62
     0
 10
125.006
 20
44.2916
 30
0.0
 11
125.006
 21
43.2911
 31
0.0
  0
LINE
  8
0
 62
     0
 10
125.006
 20
43.2911
 30
0.0
 11
124.207
 21
43.2911
 31
0.0
  0
LINE
  8
0
 62
     0
 10
124.207
 20
43.2911
 30
0.0
 11
124.207
 21
40.192
 31
0.0
  0
LINE
  8
0
 62
     0
 10
124.207
 20
40.192
 30
0.0
 11
125.006
 21
40.192
 31
0.0
  0
LINE
  8
0
 62
     0
 10
125.006
 20
40.192
 30
0.0
 11
125.006
 21
34.3917
 31
0.0
  0
LINE
  8
0
 62
     0
 10
125.006
 20
34.3917
 30
0.0
 11
124.207
 21
34.3917
 31
0.0
  0
LINE
  8
0
 62
     0
 10
124.207
 20
34.3917
 30
0.0
 11
124.207
 21
31.2911
 31
0.0
  0
LINE
  8
0
 62
     0
 10
124.207
 20
31.2911
 30
0.0
 11
125.006
 21
31.2911
 31
0.0
  0
LINE
  8
0
 62
     0
 10
125.006
 20
31.2911
 30
0.0
 11
125.006
 21
30.292
 31
0.0
  0
LINE
  8
0
 62
     0
 10
125.006
 20
30.292
 30
0.0
 11
139.007
 21
30.292
 31
0.0
  0
LINE
  8
0
 62
     0
 10
139.007
 20
30.292
 30
0.0
 11
139.007
 21
31.2911
 31
0.0
  0
LINE
  8
0
 62
     0
 10
139.007
 20
31.2911
 30
0.0
 11
139.806
 21
31.2911
 31
0.0
  0
LINE
  8
0
 62
     0
 10
139.806
 20
31.2911
 30
0.0
 11
139.806
 21
34.3917
 31
0.0
  0
LINE
  8
0
 62
     0
 10
139.806
 20
34.3917
 30
0.0
 11
139.007
 21
34.3917
 31
0.0
  0
LINE
  8
0
 62
     0
 10
139.007
 20
34.3917
 30
0.0
 11
139.007
 21
40.192
 31
0.0
  0
LINE
  8
0
 62
     0
 10
139.007
 20
40.192
 30
0.0
 11
139.806
 21
40.192
 31
0.0
  0
LINE
  8
0
 62
     0
 10
139.806
 20
40.192
 30
0.0
 11
139.806
 21
43.2911
 31
0.0
  0
LINE
  8
0
 62
     0
 10
139.806
 20
43.2911
 30
0.0
 11
139.007
 21
43.2911
 31
0.0
  0
LINE
  8
0
 62
     0
 10
139.007
 20
43.2911
 30
0.0
 11
139.007
 21
44.2916
 31
0.0
  0
LINE
  8
0
 62
     0
 10
139.007
 20
44.2916
 30
0.0
 11
125.006
 21
44.2916
 31
0.0
  0
LINE
  8
0
 62
     0
 10
105.956
 20
44.2916
 30
0.0
 11
105.956
 21
43.2911
 31
0.0
  0
LINE
  8
0
 62
     0
 10
105.956
 20
43.2911
 30
0.0
 11
105.157
 21
43.2911
 31
0.0
  0
LINE
  8
0
 62
     0
 10
105.157
 20
43.2911
 30
0.0
 11
105.157
 21
40.192
 31
0.0
  0
LINE
  8
0
 62
     0
 10
105.157
 20
40.192
 30
0.0
 11
105.956
 21
40.192
 31
0.0
  0
LINE
  8
0
 62
     0
 10
105.956
 20
40.192
 30
0.0
 11
105.956
 21
34.3917
 31
0.0
  0
LINE
  8
0
 62
     0
 10
105.956
 20
34.3917
 30
0.0
 11
105.157
 21
34.3917
 31
0.0
  0
LINE
  8
0
 62
     0
 10
105.157
 20
34.3917
 30
0.0
 11
105.157
 21
31.2911
 31
0.0
  0
LINE
  8
0
 62
     0
 10
105.157
 20
31.2911
 30
0.0
 11
105.956
 21
31.2911
 31
0.0
  0
LINE
  8
0
 62
     0
 10
105.956
 20
31.2911
 30
0.0
 11
105.956
 21
30.292
 31
0.0
  0
LINE
  8
0
 62
     0
 10
105.956
 20
30.292
 30
0.0
 11
119.957
 21
30.292
 31
0.0
  0
LINE
  8
0
 62
     0
 10
119.957
 20
30.292
 30
0.0
 11
119.957
 21
31.2911
 31
0.0
  0
LINE
  8
0
 62
     0
 10
119.957
 20
31.2911
 30
0.0
 11
120.756
 21
31.2911
 31
0.0
  0
LINE
  8
0
 62
     0
 10
120.756
 20
31.2911
 30
0.0
 11
120.756
 21
34.3917
 31
0.0
  0
LINE
  8
0
 62
     0
 10
120.756
 20
34.3917
 30
0.0
 11
119.957
 21
34.3917
 31
0.0
  0
LINE
  8
0
 62
     0
 10
119.957
 20
34.3917
 30
0.0
 11
119.957
 21
40.192
 31
0.0
  0
LINE
  8
0
 62
     0
 10
119.957
 20
40.192
 30
0.0
 11
120.756
 21
40.192
 31
0.0
  0
LINE
  8
0
 62
     0
 10
120.756
 20
40.192
 30
0.0
 11
120.756
 21
43.2911
 31
0.0
  0
LINE
  8
0
 62
     0
 10
120.756
 20
43.2911
 30
0.0
 11
119.957
 21
43.2911
 31
0.0
  0
LINE
  8
0
 62
     0
 10
119.957
 20
43.2911
 30
0.0
 11
119.957
 21
44.2916
 31
0.0
  0
LINE
  8
0
 62
     0
 10
119.957
 20
44.2916
 30
0.0
 11
105.956
 21
44.2916
 31
0.0
  0
LINE
  8
0
 62
     0
 10
86.9061
 20
44.2916
 30
0.0
 11
86.9061
 21
43.2911
 31
0.0
  0
LINE
  8
0
 62
     0
 10
86.9061
 20
43.2911
 30
0.0
 11
86.1067
 21
43.2911
 31
0.0
  0
LINE
  8
0
 62
     0
 10
86.1067
 20
43.2911
 30
0.0
 11
86.1067
 21
40.192
 31
0.0
  0
LINE
  8
0
 62
     0
 10
86.1067
 20
40.192
 30
0.0
 11
86.9061
 21
40.192
 31
0.0
  0
LINE
  8
0
 62
     0
 10
86.9061
 20
40.192
 30
0.0
 11
86.9061
 21
34.3917
 31
0.0
  0
LINE
  8
0
 62
     0
 10
86.9061
 20
34.3917
 30
0.0
 11
86.1067
 21
34.3917
 31
0.0
  0
LINE
  8
0
 62
     0
 10
86.1067
 20
34.3917
 30
0.0
 11
86.1067
 21
31.2911
 31
0.0
  0
LINE
  8
0
 62
     0
 10
86.1067
 20
31.2911
 30
0.0
 11
86.9061
 21
31.2911
 31
0.0
  0
LINE
  8
0
 62
     0
 10
86.9061
 20
31.2911
 30
0.0
 11
86.9061
 21
30.292
 31
0.0
  0
LINE
  8
0
 62
     0
 10
86.9061
 20
30.292
 30
0.0
 11
100.907
 21
30.292
 31
0.0
  0
LINE
  8
0
 62
     0
 10
100.907
 20
30.292
 30
0.0
 11
100.907
 21
31.2911
 31
0.0
  0
LINE
  8
0
 62
     0
 10
100.907
 20
31.2911
 30
0.0
 11
101.706
 21
31.2911
 31
0.0
  0
LINE
  8
0
 62
     0
 10
101.706
 20
31.2911
 30
0.0
 11
101.706
 21
34.3917
 31
0.0
  0
LINE
  8
0
 62
     0
 10
101.706
 20
34.3917
 30
0.0
 11
100.907
 21
34.3917
 31
0.0
  0
LINE
  8
0
 62
     0
 10
100.907
 20
34.3917
 30
0.0
 11
100.907
 21
40.192
 31
0.0
  0
LINE
  8
0
 62
     0
 10
100.907
 20
40.192
 30
0.0
 11
101.706
 21
40.192
 31
0.0
  0
LINE
  8
0
 62
     0
 10
101.706
 20
40.192
 30
0.0
 11
101.706
 21
43.2911
 31
0.0
  0
LINE
  8
0
 62
     0
 10
101.706
 20
43.2911
 30
0.0
 11
100.907
 21
43.2911
 31
0.0
  0
LINE
  8
0
 62
     0
 10
100.907
 20
43.2911
 30
0.0
 11
100.907
 21
44.2916
 31
0.0
  0
LINE
  8
0
 62
     0
 10
100.907
 20
44.2916
 30
0.0
 11
86.9061
 21
44.2916
 31
0.0
  0
LINE
  8
0
 62
     0
 10
67.8561
 20
44.2916
 30
0.0
 11
67.8561
 21
43.2911
 31
0.0
  0
LINE
  8
0
 62
     0
 10
67.8561
 20
43.2911
 30
0.0
 11
67.0567
 21
43.2911
 31
0.0
  0
LINE
  8
0
 62
     0
 10
67.0567
 20
43.2911
 30
0.0
 11
67.0567
 21
40.192
 31
0.0
  0
LINE
  8
0
 62
     0
 10
67.0567
 20
40.192
 30
0.0
 11
67.8561
 21
40.192
 31
0.0
  0
LINE
  8
0
 62
     0
 10
67.8561
 20
40.192
 30
0.0
 11
67.8561
 21
34.3917
 31
0.0
  0
LINE
  8
0
 62
     0
 10
67.8561
 20
34.3917
 30
0.0
 11
67.0567
 21
34.3917
 31
0.0
  0
LINE
  8
0
 62
     0
 10
67.0567
 20
34.3917
 30
0.0
 11
67.0567
 21
31.2911
 31
0.0
  0
LINE
  8
0
 62
     0
 10
67.0567
 20
31.2911
 30
0.0
 11
67.8561
 21
31.2911
 31
0.0
  0
LINE
  8
0
 62
     0
 10
67.8561
 20
31.2911
 30
0.0
 11
67.8561
 21
30.292
 31
0.0
  0
LINE
  8
0
 62
     0
 10
67.8561
 20
30.292
 30
0.0
 11
81.8568
 21
30.292
 31
0.0
  0
LINE
  8
0
 62
     0
 10
81.8568
 20
30.292
 30
0.0
 11
81.8568
 21
31.2911
 31
0.0
  0
LINE
  8
0
 62
     0
 10
81.8568
 20
31.2911
 30
0.0
 11
82.6562
 21
31.2911
 31
0.0
  0
LINE
  8
0
 62
     0
 10
82.6562
 20
31.2911
 30
0.0
 11
82.6562
 21
34.3917
 31
0.0
  0
LINE
  8
0
 62
     0
 10
82.6562
 20
34.3917
 30
0.0
 11
81.8568
 21
34.3917
 31
0.0
  0
LINE
  8
0
 62
     0
 10
81.8568
 20
34.3917
 30
0.0
 11
81.8568
 21
40.192
 31
0.0
  0
LINE
  8
0
 62
     0
 10
81.8568
 20
40.192
 30
0.0
 11
82.6562
 21
40.192
 31
0.0
  0
LINE
  8
0
 62
     0
 10
82.6562
 20
40.192
 30
0.0
 11
82.6562
 21
43.2911
 31
0.0
  0
LINE
  8
0
 62
     0
 10
82.6562
 20
43.2911
 30
0.0
 11
81.8568
 21
43.2911
 31
0.0
  0
LINE
  8
0
 62
     0
 10
81.8568
 20
43.2911
 30
0.0
 11
81.8568
 21
44.2916
 31
0.0
  0
LINE
  8
0
 62
     0
 10
81.8568
 20
44.2916
 30
0.0
 11
67.8561
 21
44.2916
 31
0.0
  0
LINE
  8
0
 62
     0
 10
267.881
 20
63.3416
 30
0.0
 11
267.881
 21
62.3411
 31
0.0
  0
LINE
  8
0
 62
     0
 10
267.881
 20
62.3411
 30
0.0
 11
267.082
 21
62.3411
 31
0.0
  0
LINE
  8
0
 62
     0
 10
267.082
 20
62.3411
 30
0.0
 11
267.082
 21
59.242
 31
0.0
  0
LINE
  8
0
 62
     0
 10
267.082
 20
59.242
 30
0.0
 11
267.881
 21
59.242
 31
0.0
  0
LINE
  8
0
 62
     0
 10
267.881
 20
59.242
 30
0.0
 11
267.881
 21
53.4416
 31
0.0
  0
LINE
  8
0
 62
     0
 10
267.881
 20
53.4416
 30
0.0
 11
267.082
 21
53.4416
 31
0.0
  0
LINE
  8
0
 62
     0
 10
267.082
 20
53.4416
 30
0.0
 11
267.082
 21
50.341
 31
0.0
  0
LINE
  8
0
 62
     0
 10
267.082
 20
50.341
 30
0.0
 11
267.881
 21
50.341
 31
0.0
  0
LINE
  8
0
 62
     0
 10
267.881
 20
50.341
 30
0.0
 11
267.881
 21
49.342
 31
0.0
  0
LINE
  8
0
 62
     0
 10
267.881
 20
49.342
 30
0.0
 11
281.882
 21
49.342
 31
0.0
  0
LINE
  8
0
 62
     0
 10
281.882
 20
49.342
 30
0.0
 11
281.882
 21
50.341
 31
0.0
  0
LINE
  8
0
 62
     0
 10
281.882
 20
50.341
 30
0.0
 11
282.681
 21
50.341
 31
0.0
  0
LINE
  8
0
 62
     0
 10
282.681
 20
50.341
 30
0.0
 11
282.681
 21
53.4416
 31
0.0
  0
LINE
  8
0
 62
     0
 10
282.681
 20
53.4416
 30
0.0
 11
281.882
 21
53.4416
 31
0.0
  0
LINE
  8
0
 62
     0
 10
281.882
 20
53.4416
 30
0.0
 11
281.882
 21
59.242
 31
0.0
  0
LINE
  8
0
 62
     0
 10
281.882
 20
59.242
 30
0.0
 11
282.681
 21
59.242
 31
0.0
  0
LINE
  8
0
 62
     0
 10
282.681
 20
59.242
 30
0.0
 11
282.681
 21
62.3411
 31
0.0
  0
LINE
  8
0
 62
     0
 10
282.681
 20
62.3411
 30
0.0
 11
281.882
 21
62.3411
 31
0.0
  0
LINE
  8
0
 62
     0
 10
281.882
 20
62.3411
 30
0.0
 11
281.882
 21
63.3416
 31
0.0
  0
LINE
  8
0
 62
     0
 10
281.882
 20
63.3416
 30
0.0
 11
267.881
 21
63.3416
 31
0.0
  0
LINE
  8
0
 62
     0
 10
248.831
 20
63.3416
 30
0.0
 11
248.831
 21
62.3411
 31
0.0
  0
LINE
  8
0
 62
     0
 10
248.831
 20
62.3411
 30
0.0
 11
248.032
 21
62.3411
 31
0.0
  0
LINE
  8
0
 62
     0
 10
248.032
 20
62.3411
 30
0.0
 11
248.032
 21
59.242
 31
0.0
  0
LINE
  8
0
 62
     0
 10
248.032
 20
59.242
 30
0.0
 11
248.831
 21
59.242
 31
0.0
  0
LINE
  8
0
 62
     0
 10
248.831
 20
59.242
 30
0.0
 11
248.831
 21
53.4416
 31
0.0
  0
LINE
  8
0
 62
     0
 10
248.831
 20
53.4416
 30
0.0
 11
248.032
 21
53.4416
 31
0.0
  0
LINE
  8
0
 62
     0
 10
248.032
 20
53.4416
 30
0.0
 11
248.032
 21
50.341
 31
0.0
  0
LINE
  8
0
 62
     0
 10
248.032
 20
50.341
 30
0.0
 11
248.831
 21
50.341
 31
0.0
  0
LINE
  8
0
 62
     0
 10
248.831
 20
50.341
 30
0.0
 11
248.831
 21
49.342
 31
0.0
  0
LINE
  8
0
 62
     0
 10
248.831
 20
49.342
 30
0.0
 11
262.832
 21
49.342
 31
0.0
  0
LINE
  8
0
 62
     0
 10
262.832
 20
49.342
 30
0.0
 11
262.832
 21
50.341
 31
0.0
  0
LINE
  8
0
 62
     0
 10
262.832
 20
50.341
 30
0.0
 11
263.631
 21
50.341
 31
0.0
  0
LINE
  8
0
 62
     0
 10
263.631
 20
50.341
 30
0.0
 11
263.631
 21
53.4416
 31
0.0
  0
LINE
  8
0
 62
     0
 10
263.631
 20
53.4416
 30
0.0
 11
262.832
 21
53.4416
 31
0.0
  0
LINE
  8
0
 62
     0
 10
262.832
 20
53.4416
 30
0.0
 11
262.832
 21
59.242
 31
0.0
  0
LINE
  8
0
 62
     0
 10
262.832
 20
59.242
 30
0.0
 11
263.631
 21
59.242
 31
0.0
  0
LINE
  8
0
 62
     0
 10
263.631
 20
59.242
 30
0.0
 11
263.631
 21
62.3411
 31
0.0
  0
LINE
  8
0
 62
     0
 10
263.631
 20
62.3411
 30
0.0
 11
262.832
 21
62.3411
 31
0.0
  0
LINE
  8
0
 62
     0
 10
262.832
 20
62.3411
 30
0.0
 11
262.832
 21
63.3416
 31
0.0
  0
LINE
  8
0
 62
     0
 10
262.832
 20
63.3416
 30
0.0
 11
248.831
 21
63.3416
 31
0.0
  0
LINE
  8
0
 62
     0
 10
229.781
 20
63.3416
 30
0.0
 11
229.781
 21
62.3411
 31
0.0
  0
LINE
  8
0
 62
     0
 10
229.781
 20
62.3411
 30
0.0
 11
228.982
 21
62.3411
 31
0.0
  0
LINE
  8
0
 62
     0
 10
228.982
 20
62.3411
 30
0.0
 11
228.982
 21
59.242
 31
0.0
  0
LINE
  8
0
 62
     0
 10
228.982
 20
59.242
 30
0.0
 11
229.781
 21
59.242
 31
0.0
  0
LINE
  8
0
 62
     0
 10
229.781
 20
59.242
 30
0.0
 11
229.781
 21
53.4416
 31
0.0
  0
LINE
  8
0
 62
     0
 10
229.781
 20
53.4416
 30
0.0
 11
228.982
 21
53.4416
 31
0.0
  0
LINE
  8
0
 62
     0
 10
228.982
 20
53.4416
 30
0.0
 11
228.982
 21
50.341
 31
0.0
  0
LINE
  8
0
 62
     0
 10
228.982
 20
50.341
 30
0.0
 11
229.781
 21
50.341
 31
0.0
  0
LINE
  8
0
 62
     0
 10
229.781
 20
50.341
 30
0.0
 11
229.781
 21
49.342
 31
0.0
  0
LINE
  8
0
 62
     0
 10
229.781
 20
49.342
 30
0.0
 11
243.782
 21
49.342
 31
0.0
  0
LINE
  8
0
 62
     0
 10
243.782
 20
49.342
 30
0.0
 11
243.782
 21
50.341
 31
0.0
  0
LINE
  8
0
 62
     0
 10
243.782
 20
50.341
 30
0.0
 11
244.581
 21
50.341
 31
0.0
  0
LINE
  8
0
 62
     0
 10
244.581
 20
50.341
 30
0.0
 11
244.581
 21
53.4416
 31
0.0
  0
LINE
  8
0
 62
     0
 10
244.581
 20
53.4416
 30
0.0
 11
243.782
 21
53.4416
 31
0.0
  0
LINE
  8
0
 62
     0
 10
243.782
 20
53.4416
 30
0.0
 11
243.782
 21
59.242
 31
0.0
  0
LINE
  8
0
 62
     0
 10
243.782
 20
59.242
 30
0.0
 11
244.581
 21
59.242
 31
0.0
  0
LINE
  8
0
 62
     0
 10
244.581
 20
59.242
 30
0.0
 11
244.581
 21
62.3411
 31
0.0
  0
LINE
  8
0
 62
     0
 10
244.581
 20
62.3411
 30
0.0
 11
243.782
 21
62.3411
 31
0.0
  0
LINE
  8
0
 62
     0
 10
243.782
 20
62.3411
 30
0.0
 11
243.782
 21
63.3416
 31
0.0
  0
LINE
  8
0
 62
     0
 10
243.782
 20
63.3416
 30
0.0
 11
229.781
 21
63.3416
 31
0.0
  0
LINE
  8
0
 62
     0
 10
210.731
 20
63.3416
 30
0.0
 11
210.731
 21
62.3411
 31
0.0
  0
LINE
  8
0
 62
     0
 10
210.731
 20
62.3411
 30
0.0
 11
209.932
 21
62.3411
 31
0.0
  0
LINE
  8
0
 62
     0
 10
209.932
 20
62.3411
 30
0.0
 11
209.932
 21
59.242
 31
0.0
  0
LINE
  8
0
 62
     0
 10
209.932
 20
59.242
 30
0.0
 11
210.731
 21
59.242
 31
0.0
  0
LINE
  8
0
 62
     0
 10
210.731
 20
59.242
 30
0.0
 11
210.731
 21
53.4416
 31
0.0
  0
LINE
  8
0
 62
     0
 10
210.731
 20
53.4416
 30
0.0
 11
209.932
 21
53.4416
 31
0.0
  0
LINE
  8
0
 62
     0
 10
209.932
 20
53.4416
 30
0.0
 11
209.932
 21
50.341
 31
0.0
  0
LINE
  8
0
 62
     0
 10
209.932
 20
50.341
 30
0.0
 11
210.731
 21
50.341
 31
0.0
  0
LINE
  8
0
 62
     0
 10
210.731
 20
50.341
 30
0.0
 11
210.731
 21
49.342
 31
0.0
  0
LINE
  8
0
 62
     0
 10
210.731
 20
49.342
 30
0.0
 11
224.732
 21
49.342
 31
0.0
  0
LINE
  8
0
 62
     0
 10
224.732
 20
49.342
 30
0.0
 11
224.732
 21
50.341
 31
0.0
  0
LINE
  8
0
 62
     0
 10
224.732
 20
50.341
 30
0.0
 11
225.531
 21
50.341
 31
0.0
  0
LINE
  8
0
 62
     0
 10
225.531
 20
50.341
 30
0.0
 11
225.531
 21
53.4416
 31
0.0
  0
LINE
  8
0
 62
     0
 10
225.531
 20
53.4416
 30
0.0
 11
224.732
 21
53.4416
 31
0.0
  0
LINE
  8
0
 62
     0
 10
224.732
 20
53.4416
 30
0.0
 11
224.732
 21
59.242
 31
0.0
  0
LINE
  8
0
 62
     0
 10
224.732
 20
59.242
 30
0.0
 11
225.531
 21
59.242
 31
0.0
  0
LINE
  8
0
 62
     0
 10
225.531
 20
59.242
 30
0.0
 11
225.531
 21
62.3411
 31
0.0
  0
LINE
  8
0
 62
     0
 10
225.531
 20
62.3411
 30
0.0
 11
224.732
 21
62.3411
 31
0.0
  0
LINE
  8
0
 62
     0
 10
224.732
 20
62.3411
 30
0.0
 11
224.732
 21
63.3416
 31
0.0
  0
LINE
  8
0
 62
     0
 10
224.732
 20
63.3416
 30
0.0
 11
210.731
 21
63.3416
 31
0.0
  0
LINE
  8
0
 62
     0
 10
191.681
 20
63.3416
 30
0.0
 11
191.681
 21
62.3411
 31
0.0
  0
LINE
  8
0
 62
     0
 10
191.681
 20
62.3411
 30
0.0
 11
190.882
 21
62.3411
 31
0.0
  0
LINE
  8
0
 62
     0
 10
190.882
 20
62.3411
 30
0.0
 11
190.882
 21
59.242
 31
0.0
  0
LINE
  8
0
 62
     0
 10
190.882
 20
59.242
 30
0.0
 11
191.681
 21
59.242
 31
0.0
  0
LINE
  8
0
 62
     0
 10
191.681
 20
59.242
 30
0.0
 11
191.681
 21
53.4416
 31
0.0
  0
LINE
  8
0
 62
     0
 10
191.681
 20
53.4416
 30
0.0
 11
190.882
 21
53.4416
 31
0.0
  0
LINE
  8
0
 62
     0
 10
190.882
 20
53.4416
 30
0.0
 11
190.882
 21
50.341
 31
0.0
  0
LINE
  8
0
 62
     0
 10
190.882
 20
50.341
 30
0.0
 11
191.681
 21
50.341
 31
0.0
  0
LINE
  8
0
 62
     0
 10
191.681
 20
50.341
 30
0.0
 11
191.681
 21
49.342
 31
0.0
  0
LINE
  8
0
 62
     0
 10
191.681
 20
49.342
 30
0.0
 11
205.682
 21
49.342
 31
0.0
  0
LINE
  8
0
 62
     0
 10
205.682
 20
49.342
 30
0.0
 11
205.682
 21
50.341
 31
0.0
  0
LINE
  8
0
 62
     0
 10
205.682
 20
50.341
 30
0.0
 11
206.481
 21
50.341
 31
0.0
  0
LINE
  8
0
 62
     0
 10
206.481
 20
50.341
 30
0.0
 11
206.481
 21
53.4416
 31
0.0
  0
LINE
  8
0
 62
     0
 10
206.481
 20
53.4416
 30
0.0
 11
205.682
 21
53.4416
 31
0.0
  0
LINE
  8
0
 62
     0
 10
205.682
 20
53.4416
 30
0.0
 11
205.682
 21
59.242
 31
0.0
  0
LINE
  8
0
 62
     0
 10
205.682
 20
59.242
 30
0.0
 11
206.481
 21
59.242
 31
0.0
  0
LINE
  8
0
 62
     0
 10
206.481
 20
59.242
 30
0.0
 11
206.481
 21
62.3411
 31
0.0
  0
LINE
  8
0
 62
     0
 10
206.481
 20
62.3411
 30
0.0
 11
205.682
 21
62.3411
 31
0.0
  0
LINE
  8
0
 62
     0
 10
205.682
 20
62.3411
 30
0.0
 11
205.682
 21
63.3416
 31
0.0
  0
LINE
  8
0
 62
     0
 10
205.682
 20
63.3416
 30
0.0
 11
191.681
 21
63.3416
 31
0.0
  0
LINE
  8
0
 62
     0
 10
172.631
 20
63.3416
 30
0.0
 11
172.631
 21
62.3411
 31
0.0
  0
LINE
  8
0
 62
     0
 10
172.631
 20
62.3411
 30
0.0
 11
171.832
 21
62.3411
 31
0.0
  0
LINE
  8
0
 62
     0
 10
171.832
 20
62.3411
 30
0.0
 11
171.832
 21
59.242
 31
0.0
  0
LINE
  8
0
 62
     0
 10
171.832
 20
59.242
 30
0.0
 11
172.631
 21
59.242
 31
0.0
  0
LINE
  8
0
 62
     0
 10
172.631
 20
59.242
 30
0.0
 11
172.631
 21
53.4416
 31
0.0
  0
LINE
  8
0
 62
     0
 10
172.631
 20
53.4416
 30
0.0
 11
171.832
 21
53.4416
 31
0.0
  0
LINE
  8
0
 62
     0
 10
171.832
 20
53.4416
 30
0.0
 11
171.832
 21
50.341
 31
0.0
  0
LINE
  8
0
 62
     0
 10
171.832
 20
50.341
 30
0.0
 11
172.631
 21
50.341
 31
0.0
  0
LINE
  8
0
 62
     0
 10
172.631
 20
50.341
 30
0.0
 11
172.631
 21
49.342
 31
0.0
  0
LINE
  8
0
 62
     0
 10
172.631
 20
49.342
 30
0.0
 11
186.632
 21
49.342
 31
0.0
  0
LINE
  8
0
 62
     0
 10
186.632
 20
49.342
 30
0.0
 11
186.632
 21
50.341
 31
0.0
  0
LINE
  8
0
 62
     0
 10
186.632
 20
50.341
 30
0.0
 11
187.431
 21
50.341
 31
0.0
  0
LINE
  8
0
 62
     0
 10
187.431
 20
50.341
 30
0.0
 11
187.431
 21
53.4416
 31
0.0
  0
LINE
  8
0
 62
     0
 10
187.431
 20
53.4416
 30
0.0
 11
186.632
 21
53.4416
 31
0.0
  0
LINE
  8
0
 62
     0
 10
186.632
 20
53.4416
 30
0.0
 11
186.632
 21
59.242
 31
0.0
  0
LINE
  8
0
 62
     0
 10
186.632
 20
59.242
 30
0.0
 11
187.431
 21
59.242
 31
0.0
  0
LINE
  8
0
 62
     0
 10
187.431
 20
59.242
 30
0.0
 11
187.431
 21
62.3411
 31
0.0
  0
LINE
  8
0
 62
     0
 10
187.431
 20
62.3411
 30
0.0
 11
186.632
 21
62.3411
 31
0.0
  0
LINE
  8
0
 62
     0
 10
186.632
 20
62.3411
 30
0.0
 11
186.632
 21
63.3416
 31
0.0
  0
LINE
  8
0
 62
     0
 10
186.632
 20
63.3416
 30
0.0
 11
172.631
 21
63.3416
 31
0.0
  0
LINE
  8
0
 62
     0
 10
153.581
 20
63.3416
 30
0.0
 11
153.581
 21
62.3411
 31
0.0
  0
LINE
  8
0
 62
     0
 10
153.581
 20
62.3411
 30
0.0
 11
152.782
 21
62.3411
 31
0.0
  0
LINE
  8
0
 62
     0
 10
152.782
 20
62.3411
 30
0.0
 11
152.782
 21
59.242
 31
0.0
  0
LINE
  8
0
 62
     0
 10
152.782
 20
59.242
 30
0.0
 11
153.581
 21
59.242
 31
0.0
  0
LINE
  8
0
 62
     0
 10
153.581
 20
59.242
 30
0.0
 11
153.581
 21
53.4416
 31
0.0
  0
LINE
  8
0
 62
     0
 10
153.581
 20
53.4416
 30
0.0
 11
152.782
 21
53.4416
 31
0.0
  0
LINE
  8
0
 62
     0
 10
152.782
 20
53.4416
 30
0.0
 11
152.782
 21
50.341
 31
0.0
  0
LINE
  8
0
 62
     0
 10
152.782
 20
50.341
 30
0.0
 11
153.581
 21
50.341
 31
0.0
  0
LINE
  8
0
 62
     0
 10
153.581
 20
50.341
 30
0.0
 11
153.581
 21
49.342
 31
0.0
  0
LINE
  8
0
 62
     0
 10
153.581
 20
49.342
 30
0.0
 11
167.582
 21
49.342
 31
0.0
  0
LINE
  8
0
 62
     0
 10
167.582
 20
49.342
 30
0.0
 11
167.582
 21
50.341
 31
0.0
  0
LINE
  8
0
 62
     0
 10
167.582
 20
50.341
 30
0.0
 11
168.381
 21
50.341
 31
0.0
  0
LINE
  8
0
 62
     0
 10
168.381
 20
50.341
 30
0.0
 11
168.381
 21
53.4416
 31
0.0
  0
LINE
  8
0
 62
     0
 10
168.381
 20
53.4416
 30
0.0
 11
167.582
 21
53.4416
 31
0.0
  0
LINE
  8
0
 62
     0
 10
167.582
 20
53.4416
 30
0.0
 11
167.582
 21
59.242
 31
0.0
  0
LINE
  8
0
 62
     0
 10
167.582
 20
59.242
 30
0.0
 11
168.381
 21
59.242
 31
0.0
  0
LINE
  8
0
 62
     0
 10
168.381
 20
59.242
 30
0.0
 11
168.381
 21
62.3411
 31
0.0
  0
LINE
  8
0
 62
     0
 10
168.381
 20
62.3411
 30
0.0
 11
167.582
 21
62.3411
 31
0.0
  0
LINE
  8
0
 62
     0
 10
167.582
 20
62.3411
 30
0.0
 11
167.582
 21
63.3416
 31
0.0
  0
LINE
  8
0
 62
     0
 10
167.582
 20
63.3416
 30
0.0
 11
153.581
 21
63.3416
 31
0.0
  0
LINE
  8
0
 62
     0
 10
134.531
 20
63.3416
 30
0.0
 11
134.531
 21
62.3411
 31
0.0
  0
LINE
  8
0
 62
     0
 10
134.531
 20
62.3411
 30
0.0
 11
133.732
 21
62.3411
 31
0.0
  0
LINE
  8
0
 62
     0
 10
133.732
 20
62.3411
 30
0.0
 11
133.732
 21
59.242
 31
0.0
  0
LINE
  8
0
 62
     0
 10
133.732
 20
59.242
 30
0.0
 11
134.531
 21
59.242
 31
0.0
  0
LINE
  8
0
 62
     0
 10
134.531
 20
59.242
 30
0.0
 11
134.531
 21
53.4416
 31
0.0
  0
LINE
  8
0
 62
     0
 10
134.531
 20
53.4416
 30
0.0
 11
133.732
 21
53.4416
 31
0.0
  0
LINE
  8
0
 62
     0
 10
133.732
 20
53.4416
 30
0.0
 11
133.732
 21
50.341
 31
0.0
  0
LINE
  8
0
 62
     0
 10
133.732
 20
50.341
 30
0.0
 11
134.531
 21
50.341
 31
0.0
  0
LINE
  8
0
 62
     0
 10
134.531
 20
50.341
 30
0.0
 11
134.531
 21
49.342
 31
0.0
  0
LINE
  8
0
 62
     0
 10
134.531
 20
49.342
 30
0.0
 11
148.532
 21
49.342
 31
0.0
  0
LINE
  8
0
 62
     0
 10
148.532
 20
49.342
 30
0.0
 11
148.532
 21
50.341
 31
0.0
  0
LINE
  8
0
 62
     0
 10
148.532
 20
50.341
 30
0.0
 11
149.331
 21
50.341
 31
0.0
  0
LINE
  8
0
 62
     0
 10
149.331
 20
50.341
 30
0.0
 11
149.331
 21
53.4416
 31
0.0
  0
LINE
  8
0
 62
     0
 10
149.331
 20
53.4416
 30
0.0
 11
148.532
 21
53.4416
 31
0.0
  0
LINE
  8
0
 62
     0
 10
148.532
 20
53.4416
 30
0.0
 11
148.532
 21
59.242
 31
0.0
  0
LINE
  8
0
 62
     0
 10
148.532
 20
59.242
 30
0.0
 11
149.331
 21
59.242
 31
0.0
  0
LINE
  8
0
 62
     0
 10
149.331
 20
59.242
 30
0.0
 11
149.331
 21
62.3411
 31
0.0
  0
LINE
  8
0
 62
     0
 10
149.331
 20
62.3411
 30
0.0
 11
148.532
 21
62.3411
 31
0.0
  0
LINE
  8
0
 62
     0
 10
148.532
 20
62.3411
 30
0.0
 11
148.532
 21
63.3416
 31
0.0
  0
LINE
  8
0
 62
     0
 10
148.532
 20
63.3416
 30
0.0
 11
134.531
 21
63.3416
 31
0.0
  0
LINE
  8
0
 62
     0
 10
115.481
 20
63.3416
 30
0.0
 11
115.481
 21
62.3411
 31
0.0
  0
LINE
  8
0
 62
     0
 10
115.481
 20
62.3411
 30
0.0
 11
114.682
 21
62.3411
 31
0.0
  0
LINE
  8
0
 62
     0
 10
114.682
 20
62.3411
 30
0.0
 11
114.682
 21
59.242
 31
0.0
  0
LINE
  8
0
 62
     0
 10
114.682
 20
59.242
 30
0.0
 11
115.481
 21
59.242
 31
0.0
  0
LINE
  8
0
 62
     0
 10
115.481
 20
59.242
 30
0.0
 11
115.481
 21
53.4416
 31
0.0
  0
LINE
  8
0
 62
     0
 10
115.481
 20
53.4416
 30
0.0
 11
114.682
 21
53.4416
 31
0.0
  0
LINE
  8
0
 62
     0
 10
114.682
 20
53.4416
 30
0.0
 11
114.682
 21
50.341
 31
0.0
  0
LINE
  8
0
 62
     0
 10
114.682
 20
50.341
 30
0.0
 11
115.481
 21
50.341
 31
0.0
  0
LINE
  8
0
 62
     0
 10
115.481
 20
50.341
 30
0.0
 11
115.481
 21
49.342
 31
0.0
  0
LINE
  8
0
 62
     0
 10
115.481
 20
49.342
 30
0.0
 11
129.482
 21
49.342
 31
0.0
  0
LINE
  8
0
 62
     0
 10
129.482
 20
49.342
 30
0.0
 11
129.482
 21
50.341
 31
0.0
  0
LINE
  8
0
 62
     0
 10
129.482
 20
50.341
 30
0.0
 11
130.281
 21
50.341
 31
0.0
  0
LINE
  8
0
 62
     0
 10
130.281
 20
50.341
 30
0.0
 11
130.281
 21
53.4416
 31
0.0
  0
LINE
  8
0
 62
     0
 10
130.281
 20
53.4416
 30
0.0
 11
129.482
 21
53.4416
 31
0.0
  0
LINE
  8
0
 62
     0
 10
129.482
 20
53.4416
 30
0.0
 11
129.482
 21
59.242
 31
0.0
  0
LINE
  8
0
 62
     0
 10
129.482
 20
59.242
 30
0.0
 11
130.281
 21
59.242
 31
0.0
  0
LINE
  8
0
 62
     0
 10
130.281
 20
59.242
 30
0.0
 11
130.281
 21
62.3411
 31
0.0
  0
LINE
  8
0
 62
     0
 10
130.281
 20
62.3411
 30
0.0
 11
129.482
 21
62.3411
 31
0.0
  0
LINE
  8
0
 62
     0
 10
129.482
 20
62.3411
 30
0.0
 11
129.482
 21
63.3416
 31
0.0
  0
LINE
  8
0
 62
     0
 10
129.482
 20
63.3416
 30
0.0
 11
115.481
 21
63.3416
 31
0.0
  0
LINE
  8
0
 62
     0
 10
96.4311
 20
63.3416
 30
0.0
 11
96.4311
 21
62.3411
 31
0.0
  0
LINE
  8
0
 62
     0
 10
96.4311
 20
62.3411
 30
0.0
 11
95.6317
 21
62.3411
 31
0.0
  0
LINE
  8
0
 62
     0
 10
95.6317
 20
62.3411
 30
0.0
 11
95.6317
 21
59.242
 31
0.0
  0
LINE
  8
0
 62
     0
 10
95.6317
 20
59.242
 30
0.0
 11
96.4311
 21
59.242
 31
0.0
  0
LINE
  8
0
 62
     0
 10
96.4311
 20
59.242
 30
0.0
 11
96.4311
 21
53.4416
 31
0.0
  0
LINE
  8
0
 62
     0
 10
96.4311
 20
53.4416
 30
0.0
 11
95.6317
 21
53.4416
 31
0.0
  0
LINE
  8
0
 62
     0
 10
95.6317
 20
53.4416
 30
0.0
 11
95.6317
 21
50.341
 31
0.0
  0
LINE
  8
0
 62
     0
 10
95.6317
 20
50.341
 30
0.0
 11
96.4311
 21
50.341
 31
0.0
  0
LINE
  8
0
 62
     0
 10
96.4311
 20
50.341
 30
0.0
 11
96.4311
 21
49.342
 31
0.0
  0
LINE
  8
0
 62
     0
 10
96.4311
 20
49.342
 30
0.0
 11
110.432
 21
49.342
 31
0.0
  0
LINE
  8
0
 62
     0
 10
110.432
 20
49.342
 30
0.0
 11
110.432
 21
50.341
 31
0.0
  0
LINE
  8
0
 62
     0
 10
110.432
 20
50.341
 30
0.0
 11
111.231
 21
50.341
 31
0.0
  0
LINE
  8
0
 62
     0
 10
111.231
 20
50.341
 30
0.0
 11
111.231
 21
53.4416
 31
0.0
  0
LINE
  8
0
 62
     0
 10
111.231
 20
53.4416
 30
0.0
 11
110.432
 21
53.4416
 31
0.0
  0
LINE
  8
0
 62
     0
 10
110.432
 20
53.4416
 30
0.0
 11
110.432
 21
59.242
 31
0.0
  0
LINE
  8
0
 62
     0
 10
110.432
 20
59.242
 30
0.0
 11
111.231
 21
59.242
 31
0.0
  0
LINE
  8
0
 62
     0
 10
111.231
 20
59.242
 30
0.0
 11
111.231
 21
62.3411
 31
0.0
  0
LINE
  8
0
 62
     0
 10
111.231
 20
62.3411
 30
0.0
 11
110.432
 21
62.3411
 31
0.0
  0
LINE
  8
0
 62
     0
 10
110.432
 20
62.3411
 30
0.0
 11
110.432
 21
63.3416
 31
0.0
  0
LINE
  8
0
 62
     0
 10
110.432
 20
63.3416
 30
0.0
 11
96.4311
 21
63.3416
 31
0.0
  0
LINE
  8
0
 62
     0
 10
77.3811
 20
63.3416
 30
0.0
 11
77.3811
 21
62.3411
 31
0.0
  0
LINE
  8
0
 62
     0
 10
77.3811
 20
62.3411
 30
0.0
 11
76.5817
 21
62.3411
 31
0.0
  0
LINE
  8
0
 62
     0
 10
76.5817
 20
62.3411
 30
0.0
 11
76.5817
 21
59.242
 31
0.0
  0
LINE
  8
0
 62
     0
 10
76.5817
 20
59.242
 30
0.0
 11
77.3811
 21
59.242
 31
0.0
  0
LINE
  8
0
 62
     0
 10
77.3811
 20
59.242
 30
0.0
 11
77.3811
 21
53.4416
 31
0.0
  0
LINE
  8
0
 62
     0
 10
77.3811
 20
53.4416
 30
0.0
 11
76.5817
 21
53.4416
 31
0.0
  0
LINE
  8
0
 62
     0
 10
76.5817
 20
53.4416
 30
0.0
 11
76.5817
 21
50.341
 31
0.0
  0
LINE
  8
0
 62
     0
 10
76.5817
 20
50.341
 30
0.0
 11
77.3811
 21
50.341
 31
0.0
  0
LINE
  8
0
 62
     0
 10
77.3811
 20
50.341
 30
0.0
 11
77.3811
 21
49.342
 31
0.0
  0
LINE
  8
0
 62
     0
 10
77.3811
 20
49.342
 30
0.0
 11
91.3818
 21
49.342
 31
0.0
  0
LINE
  8
0
 62
     0
 10
91.3818
 20
49.342
 30
0.0
 11
91.3818
 21
50.341
 31
0.0
  0
LINE
  8
0
 62
     0
 10
91.3818
 20
50.341
 30
0.0
 11
92.1812
 21
50.341
 31
0.0
  0
LINE
  8
0
 62
     0
 10
92.1812
 20
50.341
 30
0.0
 11
92.1812
 21
53.4416
 31
0.0
  0
LINE
  8
0
 62
     0
 10
92.1812
 20
53.4416
 30
0.0
 11
91.3818
 21
53.4416
 31
0.0
  0
LINE
  8
0
 62
     0
 10
91.3818
 20
53.4416
 30
0.0
 11
91.3818
 21
59.242
 31
0.0
  0
LINE
  8
0
 62
     0
 10
91.3818
 20
59.242
 30
0.0
 11
92.1812
 21
59.242
 31
0.0
  0
LINE
  8
0
 62
     0
 10
92.1812
 20
59.242
 30
0.0
 11
92.1812
 21
62.3411
 31
0.0
  0
LINE
  8
0
 62
     0
 10
92.1812
 20
62.3411
 30
0.0
 11
91.3818
 21
62.3411
 31
0.0
  0
LINE
  8
0
 62
     0
 10
91.3818
 20
62.3411
 30
0.0
 11
91.3818
 21
63.3416
 31
0.0
  0
LINE
  8
0
 62
     0
 10
91.3818
 20
63.3416
 30
0.0
 11
77.3811
 21
63.3416
 31
0.0
  0
LINE
  8
0
 62
     0
 10
58.3311
 20
63.3416
 30
0.0
 11
58.3311
 21
62.3411
 31
0.0
  0
LINE
  8
0
 62
     0
 10
58.3311
 20
62.3411
 30
0.0
 11
57.5317
 21
62.3411
 31
0.0
  0
LINE
  8
0
 62
     0
 10
57.5317
 20
62.3411
 30
0.0
 11
57.5317
 21
59.242
 31
0.0
  0
LINE
  8
0
 62
     0
 10
57.5317
 20
59.242
 30
0.0
 11
58.3311
 21
59.242
 31
0.0
  0
LINE
  8
0
 62
     0
 10
58.3311
 20
59.242
 30
0.0
 11
58.3311
 21
53.4416
 31
0.0
  0
LINE
  8
0
 62
     0
 10
58.3311
 20
53.4416
 30
0.0
 11
57.5317
 21
53.4416
 31
0.0
  0
LINE
  8
0
 62
     0
 10
57.5317
 20
53.4416
 30
0.0
 11
57.5317
 21
50.341
 31
0.0
  0
LINE
  8
0
 62
     0
 10
57.5317
 20
50.341
 30
0.0
 11
58.3311
 21
50.341
 31
0.0
  0
LINE
  8
0
 62
     0
 10
58.3311
 20
50.341
 30
0.0
 11
58.3311
 21
49.342
 31
0.0
  0
LINE
  8
0
 62
     0
 10
58.3311
 20
49.342
 30
0.0
 11
72.3318
 21
49.342
 31
0.0
  0
LINE
  8
0
 62
     0
 10
72.3318
 20
49.342
 30
0.0
 11
72.3318
 21
50.341
 31
0.0
  0
LINE
  8
0
 62
     0
 10
72.3318
 20
50.341
 30
0.0
 11
73.1312
 21
50.341
 31
0.0
  0
LINE
  8
0
 62
     0
 10
73.1312
 20
50.341
 30
0.0
 11
73.1312
 21
53.4416
 31
0.0
  0
LINE
  8
0
 62
     0
 10
73.1312
 20
53.4416
 30
0.0
 11
72.3318
 21
53.4416
 31
0.0
  0
LINE
  8
0
 62
     0
 10
72.3318
 20
53.4416
 30
0.0
 11
72.3318
 21
59.242
 31
0.0
  0
LINE
  8
0
 62
     0
 10
72.3318
 20
59.242
 30
0.0
 11
73.1312
 21
59.242
 31
0.0
  0
LINE
  8
0
 62
     0
 10
73.1312
 20
59.242
 30
0.0
 11
73.1312
 21
62.3411
 31
0.0
  0
LINE
  8
0
 62
     0
 10
73.1312
 20
62.3411
 30
0.0
 11
72.3318
 21
62.3411
 31
0.0
  0
LINE
  8
0
 62
     0
 10
72.3318
 20
62.3411
 30
0.0
 11
72.3318
 21
63.3416
 31
0.0
  0
LINE
  8
0
 62
     0
 10
72.3318
 20
63.3416
 30
0.0
 11
58.3311
 21
63.3416
 31
0.0
  0
LINE
  8
0
 62
     0
 10
27.3761
 20
63.3416
 30
0.0
 11
27.3761
 21
62.3411
 31
0.0
  0
LINE
  8
0
 62
     0
 10
27.3761
 20
62.3411
 30
0.0
 11
26.5755
 21
62.3411
 31
0.0
  0
LINE
  8
0
 62
     0
 10
26.5755
 20
62.3411
 30
0.0
 11
26.5755
 21
59.242
 31
0.0
  0
LINE
  8
0
 62
     0
 10
26.5755
 20
59.242
 30
0.0
 11
27.3761
 21
59.242
 31
0.0
  0
LINE
  8
0
 62
     0
 10
27.3761
 20
59.242
 30
0.0
 11
27.3761
 21
53.4416
 31
0.0
  0
LINE
  8
0
 62
     0
 10
27.3761
 20
53.4416
 30
0.0
 11
26.5755
 21
53.4416
 31
0.0
  0
LINE
  8
0
 62
     0
 10
26.5755
 20
53.4416
 30
0.0
 11
26.5755
 21
50.341
 31
0.0
  0
LINE
  8
0
 62
     0
 10
26.5755
 20
50.341
 30
0.0
 11
27.3761
 21
50.341
 31
0.0
  0
LINE
  8
0
 62
     0
 10
27.3761
 20
50.341
 30
0.0
 11
27.3761
 21
49.342
 31
0.0
  0
LINE
  8
0
 62
     0
 10
27.3761
 20
49.342
 30
0.0
 11
41.3755
 21
49.342
 31
0.0
  0
LINE
  8
0
 62
     0
 10
41.3755
 20
49.342
 30
0.0
 11
41.3755
 21
50.341
 31
0.0
  0
LINE
  8
0
 62
     0
 10
41.3755
 20
50.341
 30
0.0
 11
42.1749
 21
50.341
 31
0.0
  0
LINE
  8
0
 62
     0
 10
42.1749
 20
50.341
 30
0.0
 11
42.1749
 21
53.4416
 31
0.0
  0
LINE
  8
0
 62
     0
 10
42.1749
 20
53.4416
 30
0.0
 11
41.3755
 21
53.4416
 31
0.0
  0
LINE
  8
0
 62
     0
 10
41.3755
 20
53.4416
 30
0.0
 11
41.3755
 21
59.242
 31
0.0
  0
LINE
  8
0
 62
     0
 10
41.3755
 20
59.242
 30
0.0
 11
42.1749
 21
59.242
 31
0.0
  0
LINE
  8
0
 62
     0
 10
42.1749
 20
59.242
 30
0.0
 11
42.1749
 21
62.3411
 31
0.0
  0
LINE
  8
0
 62
     0
 10
42.1749
 20
62.3411
 30
0.0
 11
41.3755
 21
62.3411
 31
0.0
  0
LINE
  8
0
 62
     0
 10
41.3755
 20
62.3411
 30
0.0
 11
41.3755
 21
63.3416
 31
0.0
  0
LINE
  8
0
 62
     0
 10
41.3755
 20
63.3416
 30
0.0
 11
27.3761
 21
63.3416
 31
0.0
  0
LINE
  8
0
 62
     0
 10
295.812
 20
81.9672
 30
0.0
 11
295.812
 21
81.1417
 31
0.0
  0
LINE
  8
0
 62
     0
 10
295.812
 20
81.1417
 30
0.0
 11
289.542
 21
81.1417
 31
0.0
  0
LINE
  8
0
 62
     0
 10
289.542
 20
81.1417
 30
0.0
 11
289.542
 21
79.4177
 31
0.0
  0
LINE
  8
0
 62
     0
 10
289.542
 20
79.4177
 30
0.0
 11
288.342
 21
79.4177
 31
0.0
  0
LINE
  8
0
 62
     0
 10
288.342
 20
79.4177
 30
0.0
 11
288.342
 21
76.1175
 31
0.0
  0
LINE
  8
0
 62
     0
 10
288.342
 20
76.1175
 30
0.0
 11
289.542
 21
76.1175
 31
0.0
  0
LINE
  8
0
 62
     0
 10
289.542
 20
76.1175
 30
0.0
 11
289.542
 21
74.392
 31
0.0
  0
LINE
  8
0
 62
     0
 10
289.542
 20
74.392
 30
0.0
 11
294.013
 21
74.392
 31
0.0
  0
LINE
  8
0
 62
     0
 10
294.013
 20
74.392
 30
0.0
 11
294.013
 21
72.868
 31
0.0
  0
LINE
  8
0
 62
     0
 10
294.013
 20
72.868
 30
0.0
 11
293.412
 21
72.868
 31
0.0
  0
LINE
  8
0
 62
     0
 10
293.412
 20
72.868
 30
0.0
 11
293.412
 21
73.6671
 31
0.0
  0
LINE
  8
0
 62
     0
 10
293.412
 20
73.6671
 30
0.0
 11
290.313
 21
73.6671
 31
0.0
  0
LINE
  8
0
 62
     0
 10
290.313
 20
73.6671
 30
0.0
 11
290.313
 21
72.868
 31
0.0
  0
LINE
  8
0
 62
     0
 10
290.313
 20
72.868
 30
0.0
 11
289.312
 21
72.868
 31
0.0
  0
LINE
  8
0
 62
     0
 10
289.312
 20
72.868
 30
0.0
 11
289.312
 21
58.867
 31
0.0
  0
LINE
  8
0
 62
     0
 10
289.312
 20
58.867
 30
0.0
 11
290.313
 21
58.867
 31
0.0
  0
LINE
  8
0
 62
     0
 10
290.313
 20
58.867
 30
0.0
 11
290.313
 21
58.0679
 31
0.0
  0
LINE
  8
0
 62
     0
 10
290.313
 20
58.0679
 30
0.0
 11
293.412
 21
58.0679
 31
0.0
  0
LINE
  8
0
 62
     0
 10
293.412
 20
58.0679
 30
0.0
 11
293.412
 21
58.867
 31
0.0
  0
LINE
  8
0
 62
     0
 10
293.412
 20
58.867
 30
0.0
 11
294.013
 21
58.867
 31
0.0
  0
LINE
  8
0
 62
     0
 10
294.013
 20
58.867
 30
0.0
 11
294.013
 21
57.343
 31
0.0
  0
LINE
  8
0
 62
     0
 10
294.013
 20
57.343
 30
0.0
 11
289.542
 21
57.343
 31
0.0
  0
LINE
  8
0
 62
     0
 10
289.542
 20
57.343
 30
0.0
 11
289.542
 21
55.6175
 31
0.0
  0
LINE
  8
0
 62
     0
 10
289.542
 20
55.6175
 30
0.0
 11
288.342
 21
55.6175
 31
0.0
  0
LINE
  8
0
 62
     0
 10
288.342
 20
55.6175
 30
0.0
 11
288.342
 21
52.3173
 31
0.0
  0
LINE
  8
0
 62
     0
 10
288.342
 20
52.3173
 30
0.0
 11
289.542
 21
52.3173
 31
0.0
  0
LINE
  8
0
 62
     0
 10
289.542
 20
52.3173
 30
0.0
 11
289.542
 21
50.5919
 31
0.0
  0
LINE
  8
0
 62
     0
 10
289.542
 20
50.5919
 30
0.0
 11
295.812
 21
50.5919
 31
0.0
  0
LINE
  8
0
 62
     0
 10
295.812
 20
50.5919
 30
0.0
 11
295.812
 21
49.7664
 31
0.0
  0
LINE
  8
0
 62
     0
 10
295.812
 20
49.7664
 30
0.0
 11
298.613
 21
49.7664
 31
0.0
  0
LINE
  8
0
 62
     0
 10
298.613
 20
49.7664
 30
0.0
 11
298.613
 21
50.5919
 31
0.0
  0
LINE
  8
0
 62
     0
 10
298.613
 20
50.5919
 30
0.0
 11
301.843
 21
50.5919
 31
0.0
  0
LINE
  8
0
 62
     0
 10
301.843
 20
50.5919
 30
0.0
 11
301.843
 21
57.343
 31
0.0
  0
LINE
  8
0
 62
     0
 10
301.843
 20
57.343
 30
0.0
 11
298.613
 21
57.343
 31
0.0
  0
LINE
  8
0
 62
     0
 10
298.613
 20
57.343
 30
0.0
 11
298.613
 21
58.867
 31
0.0
  0
LINE
  8
0
 62
     0
 10
298.613
 20
58.867
 30
0.0
 11
299.212
 21
58.867
 31
0.0
  0
LINE
  8
0
 62
     0
 10
299.212
 20
58.867
 30
0.0
 11
299.212
 21
58.0679
 31
0.0
  0
LINE
  8
0
 62
     0
 10
299.212
 20
58.0679
 30
0.0
 11
302.313
 21
58.0679
 31
0.0
  0
LINE
  8
0
 62
     0
 10
302.313
 20
58.0679
 30
0.0
 11
302.313
 21
58.867
 31
0.0
  0
LINE
  8
0
 62
     0
 10
302.313
 20
58.867
 30
0.0
 11
303.313
 21
58.867
 31
0.0
  0
LINE
  8
0
 62
     0
 10
303.313
 20
58.867
 30
0.0
 11
303.313
 21
72.868
 31
0.0
  0
LINE
  8
0
 62
     0
 10
303.313
 20
72.868
 30
0.0
 11
302.313
 21
72.868
 31
0.0
  0
LINE
  8
0
 62
     0
 10
302.313
 20
72.868
 30
0.0
 11
302.313
 21
73.6671
 31
0.0
  0
LINE
  8
0
 62
     0
 10
302.313
 20
73.6671
 30
0.0
 11
299.212
 21
73.6671
 31
0.0
  0
LINE
  8
0
 62
     0
 10
299.212
 20
73.6671
 30
0.0
 11
299.212
 21
72.868
 31
0.0
  0
LINE
  8
0
 62
     0
 10
299.212
 20
72.868
 30
0.0
 11
298.613
 21
72.868
 31
0.0
  0
LINE
  8
0
 62
     0
 10
298.613
 20
72.868
 30
0.0
 11
298.613
 21
74.392
 31
0.0
  0
LINE
  8
0
 62
     0
 10
298.613
 20
74.392
 30
0.0
 11
301.843
 21
74.392
 31
0.0
  0
LINE
  8
0
 62
     0
 10
301.843
 20
74.392
 30
0.0
 11
301.843
 21
81.1417
 31
0.0
  0
LINE
  8
0
 62
     0
 10
301.843
 20
81.1417
 30
0.0
 11
298.613
 21
81.1417
 31
0.0
  0
LINE
  8
0
 62
     0
 10
298.613
 20
81.1417
 30
0.0
 11
298.613
 21
81.9672
 31
0.0
  0
LINE
  8
0
 62
     0
 10
298.613
 20
81.9672
 30
0.0
 11
295.812
 21
81.9672
 31
0.0
  0
LINE
  8
0
 62
     0
 10
263.12
 20
82.3916
 30
0.0
 11
263.12
 21
81.3911
 31
0.0
  0
LINE
  8
0
 62
     0
 10
263.12
 20
81.3911
 30
0.0
 11
262.319
 21
81.3911
 31
0.0
  0
LINE
  8
0
 62
     0
 10
262.319
 20
81.3911
 30
0.0
 11
262.319
 21
78.292
 31
0.0
  0
LINE
  8
0
 62
     0
 10
262.319
 20
78.292
 30
0.0
 11
263.12
 21
78.292
 31
0.0
  0
LINE
  8
0
 62
     0
 10
263.12
 20
78.292
 30
0.0
 11
263.12
 21
72.493
 31
0.0
  0
LINE
  8
0
 62
     0
 10
263.12
 20
72.493
 30
0.0
 11
262.319
 21
72.493
 31
0.0
  0
LINE
  8
0
 62
     0
 10
262.319
 20
72.493
 30
0.0
 11
262.319
 21
69.391
 31
0.0
  0
LINE
  8
0
 62
     0
 10
262.319
 20
69.391
 30
0.0
 11
263.12
 21
69.391
 31
0.0
  0
LINE
  8
0
 62
     0
 10
263.12
 20
69.391
 30
0.0
 11
263.12
 21
68.392
 31
0.0
  0
LINE
  8
0
 62
     0
 10
263.12
 20
68.392
 30
0.0
 11
277.119
 21
68.392
 31
0.0
  0
LINE
  8
0
 62
     0
 10
277.119
 20
68.392
 30
0.0
 11
277.119
 21
69.391
 31
0.0
  0
LINE
  8
0
 62
     0
 10
277.119
 20
69.391
 30
0.0
 11
277.92
 21
69.391
 31
0.0
  0
LINE
  8
0
 62
     0
 10
277.92
 20
69.391
 30
0.0
 11
277.92
 21
72.493
 31
0.0
  0
LINE
  8
0
 62
     0
 10
277.92
 20
72.493
 30
0.0
 11
277.119
 21
72.493
 31
0.0
  0
LINE
  8
0
 62
     0
 10
277.119
 20
72.493
 30
0.0
 11
277.119
 21
78.292
 31
0.0
  0
LINE
  8
0
 62
     0
 10
277.119
 20
78.292
 30
0.0
 11
277.92
 21
78.292
 31
0.0
  0
LINE
  8
0
 62
     0
 10
277.92
 20
78.292
 30
0.0
 11
277.92
 21
81.3911
 31
0.0
  0
LINE
  8
0
 62
     0
 10
277.92
 20
81.3911
 30
0.0
 11
277.119
 21
81.3911
 31
0.0
  0
LINE
  8
0
 62
     0
 10
277.119
 20
81.3911
 30
0.0
 11
277.119
 21
82.3916
 31
0.0
  0
LINE
  8
0
 62
     0
 10
277.119
 20
82.3916
 30
0.0
 11
263.12
 21
82.3916
 31
0.0
  0
LINE
  8
0
 62
     0
 10
244.07
 20
82.3916
 30
0.0
 11
244.07
 21
81.3911
 31
0.0
  0
LINE
  8
0
 62
     0
 10
244.07
 20
81.3911
 30
0.0
 11
243.269
 21
81.3911
 31
0.0
  0
LINE
  8
0
 62
     0
 10
243.269
 20
81.3911
 30
0.0
 11
243.269
 21
78.292
 31
0.0
  0
LINE
  8
0
 62
     0
 10
243.269
 20
78.292
 30
0.0
 11
244.07
 21
78.292
 31
0.0
  0
LINE
  8
0
 62
     0
 10
244.07
 20
78.292
 30
0.0
 11
244.07
 21
72.493
 31
0.0
  0
LINE
  8
0
 62
     0
 10
244.07
 20
72.493
 30
0.0
 11
243.269
 21
72.493
 31
0.0
  0
LINE
  8
0
 62
     0
 10
243.269
 20
72.493
 30
0.0
 11
243.269
 21
69.391
 31
0.0
  0
LINE
  8
0
 62
     0
 10
243.269
 20
69.391
 30
0.0
 11
244.07
 21
69.391
 31
0.0
  0
LINE
  8
0
 62
     0
 10
244.07
 20
69.391
 30
0.0
 11
244.07
 21
68.392
 31
0.0
  0
LINE
  8
0
 62
     0
 10
244.07
 20
68.392
 30
0.0
 11
258.069
 21
68.392
 31
0.0
  0
LINE
  8
0
 62
     0
 10
258.069
 20
68.392
 30
0.0
 11
258.069
 21
69.391
 31
0.0
  0
LINE
  8
0
 62
     0
 10
258.069
 20
69.391
 30
0.0
 11
258.87
 21
69.391
 31
0.0
  0
LINE
  8
0
 62
     0
 10
258.87
 20
69.391
 30
0.0
 11
258.87
 21
72.493
 31
0.0
  0
LINE
  8
0
 62
     0
 10
258.87
 20
72.493
 30
0.0
 11
258.069
 21
72.493
 31
0.0
  0
LINE
  8
0
 62
     0
 10
258.069
 20
72.493
 30
0.0
 11
258.069
 21
78.292
 31
0.0
  0
LINE
  8
0
 62
     0
 10
258.069
 20
78.292
 30
0.0
 11
258.87
 21
78.292
 31
0.0
  0
LINE
  8
0
 62
     0
 10
258.87
 20
78.292
 30
0.0
 11
258.87
 21
81.3911
 31
0.0
  0
LINE
  8
0
 62
     0
 10
258.87
 20
81.3911
 30
0.0
 11
258.069
 21
81.3911
 31
0.0
  0
LINE
  8
0
 62
     0
 10
258.069
 20
81.3911
 30
0.0
 11
258.069
 21
82.3916
 31
0.0
  0
LINE
  8
0
 62
     0
 10
258.069
 20
82.3916
 30
0.0
 11
244.07
 21
82.3916
 31
0.0
  0
LINE
  8
0
 62
     0
 10
225.02
 20
82.3916
 30
0.0
 11
225.02
 21
81.3911
 31
0.0
  0
LINE
  8
0
 62
     0
 10
225.02
 20
81.3911
 30
0.0
 11
224.219
 21
81.3911
 31
0.0
  0
LINE
  8
0
 62
     0
 10
224.219
 20
81.3911
 30
0.0
 11
224.219
 21
78.292
 31
0.0
  0
LINE
  8
0
 62
     0
 10
224.219
 20
78.292
 30
0.0
 11
225.02
 21
78.292
 31
0.0
  0
LINE
  8
0
 62
     0
 10
225.02
 20
78.292
 30
0.0
 11
225.02
 21
72.493
 31
0.0
  0
LINE
  8
0
 62
     0
 10
225.02
 20
72.493
 30
0.0
 11
224.219
 21
72.493
 31
0.0
  0
LINE
  8
0
 62
     0
 10
224.219
 20
72.493
 30
0.0
 11
224.219
 21
69.391
 31
0.0
  0
LINE
  8
0
 62
     0
 10
224.219
 20
69.391
 30
0.0
 11
225.02
 21
69.391
 31
0.0
  0
LINE
  8
0
 62
     0
 10
225.02
 20
69.391
 30
0.0
 11
225.02
 21
68.392
 31
0.0
  0
LINE
  8
0
 62
     0
 10
225.02
 20
68.392
 30
0.0
 11
239.019
 21
68.392
 31
0.0
  0
LINE
  8
0
 62
     0
 10
239.019
 20
68.392
 30
0.0
 11
239.019
 21
69.391
 31
0.0
  0
LINE
  8
0
 62
     0
 10
239.019
 20
69.391
 30
0.0
 11
239.82
 21
69.391
 31
0.0
  0
LINE
  8
0
 62
     0
 10
239.82
 20
69.391
 30
0.0
 11
239.82
 21
72.493
 31
0.0
  0
LINE
  8
0
 62
     0
 10
239.82
 20
72.493
 30
0.0
 11
239.019
 21
72.493
 31
0.0
  0
LINE
  8
0
 62
     0
 10
239.019
 20
72.493
 30
0.0
 11
239.019
 21
78.292
 31
0.0
  0
LINE
  8
0
 62
     0
 10
239.019
 20
78.292
 30
0.0
 11
239.82
 21
78.292
 31
0.0
  0
LINE
  8
0
 62
     0
 10
239.82
 20
78.292
 30
0.0
 11
239.82
 21
81.3911
 31
0.0
  0
LINE
  8
0
 62
     0
 10
239.82
 20
81.3911
 30
0.0
 11
239.019
 21
81.3911
 31
0.0
  0
LINE
  8
0
 62
     0
 10
239.019
 20
81.3911
 30
0.0
 11
239.019
 21
82.3916
 31
0.0
  0
LINE
  8
0
 62
     0
 10
239.019
 20
82.3916
 30
0.0
 11
225.02
 21
82.3916
 31
0.0
  0
LINE
  8
0
 62
     0
 10
205.97
 20
82.3916
 30
0.0
 11
205.97
 21
81.3911
 31
0.0
  0
LINE
  8
0
 62
     0
 10
205.97
 20
81.3911
 30
0.0
 11
205.169
 21
81.3911
 31
0.0
  0
LINE
  8
0
 62
     0
 10
205.169
 20
81.3911
 30
0.0
 11
205.169
 21
78.292
 31
0.0
  0
LINE
  8
0
 62
     0
 10
205.169
 20
78.292
 30
0.0
 11
205.97
 21
78.292
 31
0.0
  0
LINE
  8
0
 62
     0
 10
205.97
 20
78.292
 30
0.0
 11
205.97
 21
72.493
 31
0.0
  0
LINE
  8
0
 62
     0
 10
205.97
 20
72.493
 30
0.0
 11
205.169
 21
72.493
 31
0.0
  0
LINE
  8
0
 62
     0
 10
205.169
 20
72.493
 30
0.0
 11
205.169
 21
69.391
 31
0.0
  0
LINE
  8
0
 62
     0
 10
205.169
 20
69.391
 30
0.0
 11
205.97
 21
69.391
 31
0.0
  0
LINE
  8
0
 62
     0
 10
205.97
 20
69.391
 30
0.0
 11
205.97
 21
68.392
 31
0.0
  0
LINE
  8
0
 62
     0
 10
205.97
 20
68.392
 30
0.0
 11
219.969
 21
68.392
 31
0.0
  0
LINE
  8
0
 62
     0
 10
219.969
 20
68.392
 30
0.0
 11
219.969
 21
69.391
 31
0.0
  0
LINE
  8
0
 62
     0
 10
219.969
 20
69.391
 30
0.0
 11
220.77
 21
69.391
 31
0.0
  0
LINE
  8
0
 62
     0
 10
220.77
 20
69.391
 30
0.0
 11
220.77
 21
72.493
 31
0.0
  0
LINE
  8
0
 62
     0
 10
220.77
 20
72.493
 30
0.0
 11
219.969
 21
72.493
 31
0.0
  0
LINE
  8
0
 62
     0
 10
219.969
 20
72.493
 30
0.0
 11
219.969
 21
78.292
 31
0.0
  0
LINE
  8
0
 62
     0
 10
219.969
 20
78.292
 30
0.0
 11
220.77
 21
78.292
 31
0.0
  0
LINE
  8
0
 62
     0
 10
220.77
 20
78.292
 30
0.0
 11
220.77
 21
81.3911
 31
0.0
  0
LINE
  8
0
 62
     0
 10
220.77
 20
81.3911
 30
0.0
 11
219.969
 21
81.3911
 31
0.0
  0
LINE
  8
0
 62
     0
 10
219.969
 20
81.3911
 30
0.0
 11
219.969
 21
82.3916
 31
0.0
  0
LINE
  8
0
 62
     0
 10
219.969
 20
82.3916
 30
0.0
 11
205.97
 21
82.3916
 31
0.0
  0
LINE
  8
0
 62
     0
 10
186.92
 20
82.3916
 30
0.0
 11
186.92
 21
81.3911
 31
0.0
  0
LINE
  8
0
 62
     0
 10
186.92
 20
81.3911
 30
0.0
 11
186.119
 21
81.3911
 31
0.0
  0
LINE
  8
0
 62
     0
 10
186.119
 20
81.3911
 30
0.0
 11
186.119
 21
78.292
 31
0.0
  0
LINE
  8
0
 62
     0
 10
186.119
 20
78.292
 30
0.0
 11
186.92
 21
78.292
 31
0.0
  0
LINE
  8
0
 62
     0
 10
186.92
 20
78.292
 30
0.0
 11
186.92
 21
72.493
 31
0.0
  0
LINE
  8
0
 62
     0
 10
186.92
 20
72.493
 30
0.0
 11
186.119
 21
72.493
 31
0.0
  0
LINE
  8
0
 62
     0
 10
186.119
 20
72.493
 30
0.0
 11
186.119
 21
69.391
 31
0.0
  0
LINE
  8
0
 62
     0
 10
186.119
 20
69.391
 30
0.0
 11
186.92
 21
69.391
 31
0.0
  0
LINE
  8
0
 62
     0
 10
186.92
 20
69.391
 30
0.0
 11
186.92
 21
68.392
 31
0.0
  0
LINE
  8
0
 62
     0
 10
186.92
 20
68.392
 30
0.0
 11
200.919
 21
68.392
 31
0.0
  0
LINE
  8
0
 62
     0
 10
200.919
 20
68.392
 30
0.0
 11
200.919
 21
69.391
 31
0.0
  0
LINE
  8
0
 62
     0
 10
200.919
 20
69.391
 30
0.0
 11
201.72
 21
69.391
 31
0.0
  0
LINE
  8
0
 62
     0
 10
201.72
 20
69.391
 30
0.0
 11
201.72
 21
72.493
 31
0.0
  0
LINE
  8
0
 62
     0
 10
201.72
 20
72.493
 30
0.0
 11
200.919
 21
72.493
 31
0.0
  0
LINE
  8
0
 62
     0
 10
200.919
 20
72.493
 30
0.0
 11
200.919
 21
78.292
 31
0.0
  0
LINE
  8
0
 62
     0
 10
200.919
 20
78.292
 30
0.0
 11
201.72
 21
78.292
 31
0.0
  0
LINE
  8
0
 62
     0
 10
201.72
 20
78.292
 30
0.0
 11
201.72
 21
81.3911
 31
0.0
  0
LINE
  8
0
 62
     0
 10
201.72
 20
81.3911
 30
0.0
 11
200.919
 21
81.3911
 31
0.0
  0
LINE
  8
0
 62
     0
 10
200.919
 20
81.3911
 30
0.0
 11
200.919
 21
82.3916
 31
0.0
  0
LINE
  8
0
 62
     0
 10
200.919
 20
82.3916
 30
0.0
 11
186.92
 21
82.3916
 31
0.0
  0
LINE
  8
0
 62
     0
 10
167.87
 20
82.3916
 30
0.0
 11
167.87
 21
81.3911
 31
0.0
  0
LINE
  8
0
 62
     0
 10
167.87
 20
81.3911
 30
0.0
 11
167.069
 21
81.3911
 31
0.0
  0
LINE
  8
0
 62
     0
 10
167.069
 20
81.3911
 30
0.0
 11
167.069
 21
78.292
 31
0.0
  0
LINE
  8
0
 62
     0
 10
167.069
 20
78.292
 30
0.0
 11
167.87
 21
78.292
 31
0.0
  0
LINE
  8
0
 62
     0
 10
167.87
 20
78.292
 30
0.0
 11
167.87
 21
72.493
 31
0.0
  0
LINE
  8
0
 62
     0
 10
167.87
 20
72.493
 30
0.0
 11
167.069
 21
72.493
 31
0.0
  0
LINE
  8
0
 62
     0
 10
167.069
 20
72.493
 30
0.0
 11
167.069
 21
69.391
 31
0.0
  0
LINE
  8
0
 62
     0
 10
167.069
 20
69.391
 30
0.0
 11
167.87
 21
69.391
 31
0.0
  0
LINE
  8
0
 62
     0
 10
167.87
 20
69.391
 30
0.0
 11
167.87
 21
68.392
 31
0.0
  0
LINE
  8
0
 62
     0
 10
167.87
 20
68.392
 30
0.0
 11
181.869
 21
68.392
 31
0.0
  0
LINE
  8
0
 62
     0
 10
181.869
 20
68.392
 30
0.0
 11
181.869
 21
69.391
 31
0.0
  0
LINE
  8
0
 62
     0
 10
181.869
 20
69.391
 30
0.0
 11
182.67
 21
69.391
 31
0.0
  0
LINE
  8
0
 62
     0
 10
182.67
 20
69.391
 30
0.0
 11
182.67
 21
72.493
 31
0.0
  0
LINE
  8
0
 62
     0
 10
182.67
 20
72.493
 30
0.0
 11
181.869
 21
72.493
 31
0.0
  0
LINE
  8
0
 62
     0
 10
181.869
 20
72.493
 30
0.0
 11
181.869
 21
78.292
 31
0.0
  0
LINE
  8
0
 62
     0
 10
181.869
 20
78.292
 30
0.0
 11
182.67
 21
78.292
 31
0.0
  0
LINE
  8
0
 62
     0
 10
182.67
 20
78.292
 30
0.0
 11
182.67
 21
81.3911
 31
0.0
  0
LINE
  8
0
 62
     0
 10
182.67
 20
81.3911
 30
0.0
 11
181.869
 21
81.3911
 31
0.0
  0
LINE
  8
0
 62
     0
 10
181.869
 20
81.3911
 30
0.0
 11
181.869
 21
82.3916
 31
0.0
  0
LINE
  8
0
 62
     0
 10
181.869
 20
82.3916
 30
0.0
 11
167.87
 21
82.3916
 31
0.0
  0
LINE
  8
0
 62
     0
 10
148.82
 20
82.3916
 30
0.0
 11
148.82
 21
81.3911
 31
0.0
  0
LINE
  8
0
 62
     0
 10
148.82
 20
81.3911
 30
0.0
 11
148.018
 21
81.3911
 31
0.0
  0
LINE
  8
0
 62
     0
 10
148.018
 20
81.3911
 30
0.0
 11
148.018
 21
78.292
 31
0.0
  0
LINE
  8
0
 62
     0
 10
148.018
 20
78.292
 30
0.0
 11
148.82
 21
78.292
 31
0.0
  0
LINE
  8
0
 62
     0
 10
148.82
 20
78.292
 30
0.0
 11
148.82
 21
72.493
 31
0.0
  0
LINE
  8
0
 62
     0
 10
148.82
 20
72.493
 30
0.0
 11
148.018
 21
72.493
 31
0.0
  0
LINE
  8
0
 62
     0
 10
148.018
 20
72.493
 30
0.0
 11
148.018
 21
69.391
 31
0.0
  0
LINE
  8
0
 62
     0
 10
148.018
 20
69.391
 30
0.0
 11
148.82
 21
69.391
 31
0.0
  0
LINE
  8
0
 62
     0
 10
148.82
 20
69.391
 30
0.0
 11
148.82
 21
68.392
 31
0.0
  0
LINE
  8
0
 62
     0
 10
148.82
 20
68.392
 30
0.0
 11
162.819
 21
68.392
 31
0.0
  0
LINE
  8
0
 62
     0
 10
162.819
 20
68.392
 30
0.0
 11
162.819
 21
69.391
 31
0.0
  0
LINE
  8
0
 62
     0
 10
162.819
 20
69.391
 30
0.0
 11
163.62
 21
69.391
 31
0.0
  0
LINE
  8
0
 62
     0
 10
163.62
 20
69.391
 30
0.0
 11
163.62
 21
72.493
 31
0.0
  0
LINE
  8
0
 62
     0
 10
163.62
 20
72.493
 30
0.0
 11
162.819
 21
72.493
 31
0.0
  0
LINE
  8
0
 62
     0
 10
162.819
 20
72.493
 30
0.0
 11
162.819
 21
78.292
 31
0.0
  0
LINE
  8
0
 62
     0
 10
162.819
 20
78.292
 30
0.0
 11
163.62
 21
78.292
 31
0.0
  0
LINE
  8
0
 62
     0
 10
163.62
 20
78.292
 30
0.0
 11
163.62
 21
81.3911
 31
0.0
  0
LINE
  8
0
 62
     0
 10
163.62
 20
81.3911
 30
0.0
 11
162.819
 21
81.3911
 31
0.0
  0
LINE
  8
0
 62
     0
 10
162.819
 20
81.3911
 30
0.0
 11
162.819
 21
82.3916
 31
0.0
  0
LINE
  8
0
 62
     0
 10
162.819
 20
82.3916
 30
0.0
 11
148.82
 21
82.3916
 31
0.0
  0
LINE
  8
0
 62
     0
 10
129.769
 20
82.3916
 30
0.0
 11
129.769
 21
81.3911
 31
0.0
  0
LINE
  8
0
 62
     0
 10
129.769
 20
81.3911
 30
0.0
 11
128.968
 21
81.3911
 31
0.0
  0
LINE
  8
0
 62
     0
 10
128.968
 20
81.3911
 30
0.0
 11
128.968
 21
78.292
 31
0.0
  0
LINE
  8
0
 62
     0
 10
128.968
 20
78.292
 30
0.0
 11
129.769
 21
78.292
 31
0.0
  0
LINE
  8
0
 62
     0
 10
129.769
 20
78.292
 30
0.0
 11
129.769
 21
72.493
 31
0.0
  0
LINE
  8
0
 62
     0
 10
129.769
 20
72.493
 30
0.0
 11
128.968
 21
72.493
 31
0.0
  0
LINE
  8
0
 62
     0
 10
128.968
 20
72.493
 30
0.0
 11
128.968
 21
69.391
 31
0.0
  0
LINE
  8
0
 62
     0
 10
128.968
 20
69.391
 30
0.0
 11
129.769
 21
69.391
 31
0.0
  0
LINE
  8
0
 62
     0
 10
129.769
 20
69.391
 30
0.0
 11
129.769
 21
68.392
 31
0.0
  0
LINE
  8
0
 62
     0
 10
129.769
 20
68.392
 30
0.0
 11
143.768
 21
68.392
 31
0.0
  0
LINE
  8
0
 62
     0
 10
143.768
 20
68.392
 30
0.0
 11
143.768
 21
69.391
 31
0.0
  0
LINE
  8
0
 62
     0
 10
143.768
 20
69.391
 30
0.0
 11
144.57
 21
69.391
 31
0.0
  0
LINE
  8
0
 62
     0
 10
144.57
 20
69.391
 30
0.0
 11
144.57
 21
72.493
 31
0.0
  0
LINE
  8
0
 62
     0
 10
144.57
 20
72.493
 30
0.0
 11
143.768
 21
72.493
 31
0.0
  0
LINE
  8
0
 62
     0
 10
143.768
 20
72.493
 30
0.0
 11
143.768
 21
78.292
 31
0.0
  0
LINE
  8
0
 62
     0
 10
143.768
 20
78.292
 30
0.0
 11
144.57
 21
78.292
 31
0.0
  0
LINE
  8
0
 62
     0
 10
144.57
 20
78.292
 30
0.0
 11
144.57
 21
81.3911
 31
0.0
  0
LINE
  8
0
 62
     0
 10
144.57
 20
81.3911
 30
0.0
 11
143.768
 21
81.3911
 31
0.0
  0
LINE
  8
0
 62
     0
 10
143.768
 20
81.3911
 30
0.0
 11
143.768
 21
82.3916
 31
0.0
  0
LINE
  8
0
 62
     0
 10
143.768
 20
82.3916
 30
0.0
 11
129.769
 21
82.3916
 31
0.0
  0
LINE
  8
0
 62
     0
 10
110.719
 20
82.3916
 30
0.0
 11
110.719
 21
81.3911
 31
0.0
  0
LINE
  8
0
 62
     0
 10
110.719
 20
81.3911
 30
0.0
 11
109.918
 21
81.3911
 31
0.0
  0
LINE
  8
0
 62
     0
 10
109.918
 20
81.3911
 30
0.0
 11
109.918
 21
78.292
 31
0.0
  0
LINE
  8
0
 62
     0
 10
109.918
 20
78.292
 30
0.0
 11
110.719
 21
78.292
 31
0.0
  0
LINE
  8
0
 62
     0
 10
110.719
 20
78.292
 30
0.0
 11
110.719
 21
72.493
 31
0.0
  0
LINE
  8
0
 62
     0
 10
110.719
 20
72.493
 30
0.0
 11
109.918
 21
72.493
 31
0.0
  0
LINE
  8
0
 62
     0
 10
109.918
 20
72.493
 30
0.0
 11
109.918
 21
69.391
 31
0.0
  0
LINE
  8
0
 62
     0
 10
109.918
 20
69.391
 30
0.0
 11
110.719
 21
69.391
 31
0.0
  0
LINE
  8
0
 62
     0
 10
110.719
 20
69.391
 30
0.0
 11
110.719
 21
68.392
 31
0.0
  0
LINE
  8
0
 62
     0
 10
110.719
 20
68.392
 30
0.0
 11
124.719
 21
68.392
 31
0.0
  0
LINE
  8
0
 62
     0
 10
124.719
 20
68.392
 30
0.0
 11
124.719
 21
69.391
 31
0.0
  0
LINE
  8
0
 62
     0
 10
124.719
 20
69.391
 30
0.0
 11
125.519
 21
69.391
 31
0.0
  0
LINE
  8
0
 62
     0
 10
125.519
 20
69.391
 30
0.0
 11
125.519
 21
72.493
 31
0.0
  0
LINE
  8
0
 62
     0
 10
125.519
 20
72.493
 30
0.0
 11
124.719
 21
72.493
 31
0.0
  0
LINE
  8
0
 62
     0
 10
124.719
 20
72.493
 30
0.0
 11
124.719
 21
78.292
 31
0.0
  0
LINE
  8
0
 62
     0
 10
124.719
 20
78.292
 30
0.0
 11
125.519
 21
78.292
 31
0.0
  0
LINE
  8
0
 62
     0
 10
125.519
 20
78.292
 30
0.0
 11
125.519
 21
81.3911
 31
0.0
  0
LINE
  8
0
 62
     0
 10
125.519
 20
81.3911
 30
0.0
 11
124.719
 21
81.3911
 31
0.0
  0
LINE
  8
0
 62
     0
 10
124.719
 20
81.3911
 30
0.0
 11
124.719
 21
82.3916
 31
0.0
  0
LINE
  8
0
 62
     0
 10
124.719
 20
82.3916
 30
0.0
 11
110.719
 21
82.3916
 31
0.0
  0
LINE
  8
0
 62
     0
 10
91.6686
 20
82.3916
 30
0.0
 11
91.6686
 21
81.3911
 31
0.0
  0
LINE
  8
0
 62
     0
 10
91.6686
 20
81.3911
 30
0.0
 11
90.8678
 21
81.3911
 31
0.0
  0
LINE
  8
0
 62
     0
 10
90.8678
 20
81.3911
 30
0.0
 11
90.8678
 21
78.292
 31
0.0
  0
LINE
  8
0
 62
     0
 10
90.8678
 20
78.292
 30
0.0
 11
91.6686
 21
78.292
 31
0.0
  0
LINE
  8
0
 62
     0
 10
91.6686
 20
78.292
 30
0.0
 11
91.6686
 21
72.493
 31
0.0
  0
LINE
  8
0
 62
     0
 10
91.6686
 20
72.493
 30
0.0
 11
90.8678
 21
72.493
 31
0.0
  0
LINE
  8
0
 62
     0
 10
90.8678
 20
72.493
 30
0.0
 11
90.8678
 21
69.391
 31
0.0
  0
LINE
  8
0
 62
     0
 10
90.8678
 20
69.391
 30
0.0
 11
91.6686
 21
69.391
 31
0.0
  0
LINE
  8
0
 62
     0
 10
91.6686
 20
69.391
 30
0.0
 11
91.6686
 21
68.392
 31
0.0
  0
LINE
  8
0
 62
     0
 10
91.6686
 20
68.392
 30
0.0
 11
105.668
 21
68.392
 31
0.0
  0
LINE
  8
0
 62
     0
 10
105.668
 20
68.392
 30
0.0
 11
105.668
 21
69.391
 31
0.0
  0
LINE
  8
0
 62
     0
 10
105.668
 20
69.391
 30
0.0
 11
106.469
 21
69.391
 31
0.0
  0
LINE
  8
0
 62
     0
 10
106.469
 20
69.391
 30
0.0
 11
106.469
 21
72.493
 31
0.0
  0
LINE
  8
0
 62
     0
 10
106.469
 20
72.493
 30
0.0
 11
105.668
 21
72.493
 31
0.0
  0
LINE
  8
0
 62
     0
 10
105.668
 20
72.493
 30
0.0
 11
105.668
 21
78.292
 31
0.0
  0
LINE
  8
0
 62
     0
 10
105.668
 20
78.292
 30
0.0
 11
106.469
 21
78.292
 31
0.0
  0
LINE
  8
0
 62
     0
 10
106.469
 20
78.292
 30
0.0
 11
106.469
 21
81.3911
 31
0.0
  0
LINE
  8
0
 62
     0
 10
106.469
 20
81.3911
 30
0.0
 11
105.668
 21
81.3911
 31
0.0
  0
LINE
  8
0
 62
     0
 10
105.668
 20
81.3911
 30
0.0
 11
105.668
 21
82.3916
 31
0.0
  0
LINE
  8
0
 62
     0
 10
105.668
 20
82.3916
 30
0.0
 11
91.6686
 21
82.3916
 31
0.0
  0
LINE
  8
0
 62
     0
 10
72.6186
 20
82.3916
 30
0.0
 11
72.6186
 21
81.3911
 31
0.0
  0
LINE
  8
0
 62
     0
 10
72.6186
 20
81.3911
 30
0.0
 11
71.8192
 21
81.3911
 31
0.0
  0
LINE
  8
0
 62
     0
 10
71.8192
 20
81.3911
 30
0.0
 11
71.8192
 21
78.292
 31
0.0
  0
LINE
  8
0
 62
     0
 10
71.8192
 20
78.292
 30
0.0
 11
72.6186
 21
78.292
 31
0.0
  0
LINE
  8
0
 62
     0
 10
72.6186
 20
78.292
 30
0.0
 11
72.6186
 21
72.493
 31
0.0
  0
LINE
  8
0
 62
     0
 10
72.6186
 20
72.493
 30
0.0
 11
71.8192
 21
72.493
 31
0.0
  0
LINE
  8
0
 62
     0
 10
71.8192
 20
72.493
 30
0.0
 11
71.8192
 21
69.391
 31
0.0
  0
LINE
  8
0
 62
     0
 10
71.8192
 20
69.391
 30
0.0
 11
72.6186
 21
69.391
 31
0.0
  0
LINE
  8
0
 62
     0
 10
72.6186
 20
69.391
 30
0.0
 11
72.6186
 21
68.392
 31
0.0
  0
LINE
  8
0
 62
     0
 10
72.6186
 20
68.392
 30
0.0
 11
86.6179
 21
68.392
 31
0.0
  0
LINE
  8
0
 62
     0
 10
86.6179
 20
68.392
 30
0.0
 11
86.6179
 21
69.391
 31
0.0
  0
LINE
  8
0
 62
     0
 10
86.6179
 20
69.391
 30
0.0
 11
87.4187
 21
69.391
 31
0.0
  0
LINE
  8
0
 62
     0
 10
87.4187
 20
69.391
 30
0.0
 11
87.4187
 21
72.493
 31
0.0
  0
LINE
  8
0
 62
     0
 10
87.4187
 20
72.493
 30
0.0
 11
86.6179
 21
72.493
 31
0.0
  0
LINE
  8
0
 62
     0
 10
86.6179
 20
72.493
 30
0.0
 11
86.6179
 21
78.292
 31
0.0
  0
LINE
  8
0
 62
     0
 10
86.6179
 20
78.292
 30
0.0
 11
87.4187
 21
78.292
 31
0.0
  0
LINE
  8
0
 62
     0
 10
87.4187
 20
78.292
 30
0.0
 11
87.4187
 21
81.3911
 31
0.0
  0
LINE
  8
0
 62
     0
 10
87.4187
 20
81.3911
 30
0.0
 11
86.6179
 21
81.3911
 31
0.0
  0
LINE
  8
0
 62
     0
 10
86.6179
 20
81.3911
 30
0.0
 11
86.6179
 21
82.3916
 31
0.0
  0
LINE
  8
0
 62
     0
 10
86.6179
 20
82.3916
 30
0.0
 11
72.6186
 21
82.3916
 31
0.0
  0
LINE
  8
0
 62
     0
 10
53.5686
 20
82.3916
 30
0.0
 11
53.5686
 21
81.3911
 31
0.0
  0
LINE
  8
0
 62
     0
 10
53.5686
 20
81.3911
 30
0.0
 11
52.7692
 21
81.3911
 31
0.0
  0
LINE
  8
0
 62
     0
 10
52.7692
 20
81.3911
 30
0.0
 11
52.7692
 21
78.292
 31
0.0
  0
LINE
  8
0
 62
     0
 10
52.7692
 20
78.292
 30
0.0
 11
53.5686
 21
78.292
 31
0.0
  0
LINE
  8
0
 62
     0
 10
53.5686
 20
78.292
 30
0.0
 11
53.5686
 21
72.493
 31
0.0
  0
LINE
  8
0
 62
     0
 10
53.5686
 20
72.493
 30
0.0
 11
52.7692
 21
72.493
 31
0.0
  0
LINE
  8
0
 62
     0
 10
52.7692
 20
72.493
 30
0.0
 11
52.7692
 21
69.391
 31
0.0
  0
LINE
  8
0
 62
     0
 10
52.7692
 20
69.391
 30
0.0
 11
53.5686
 21
69.391
 31
0.0
  0
LINE
  8
0
 62
     0
 10
53.5686
 20
69.391
 30
0.0
 11
53.5686
 21
68.392
 31
0.0
  0
LINE
  8
0
 62
     0
 10
53.5686
 20
68.392
 30
0.0
 11
67.5693
 21
68.392
 31
0.0
  0
LINE
  8
0
 62
     0
 10
67.5693
 20
68.392
 30
0.0
 11
67.5693
 21
69.391
 31
0.0
  0
LINE
  8
0
 62
     0
 10
67.5693
 20
69.391
 30
0.0
 11
68.3687
 21
69.391
 31
0.0
  0
LINE
  8
0
 62
     0
 10
68.3687
 20
69.391
 30
0.0
 11
68.3687
 21
72.493
 31
0.0
  0
LINE
  8
0
 62
     0
 10
68.3687
 20
72.493
 30
0.0
 11
67.5693
 21
72.493
 31
0.0
  0
LINE
  8
0
 62
     0
 10
67.5693
 20
72.493
 30
0.0
 11
67.5693
 21
78.292
 31
0.0
  0
LINE
  8
0
 62
     0
 10
67.5693
 20
78.292
 30
0.0
 11
68.3687
 21
78.292
 31
0.0
  0
LINE
  8
0
 62
     0
 10
68.3687
 20
78.292
 30
0.0
 11
68.3687
 21
81.3911
 31
0.0
  0
LINE
  8
0
 62
     0
 10
68.3687
 20
81.3911
 30
0.0
 11
67.5693
 21
81.3911
 31
0.0
  0
LINE
  8
0
 62
     0
 10
67.5693
 20
81.3911
 30
0.0
 11
67.5693
 21
82.3916
 31
0.0
  0
LINE
  8
0
 62
     0
 10
67.5693
 20
82.3916
 30
0.0
 11
53.5686
 21
82.3916
 31
0.0
  0
LINE
  8
0
 62
     0
 10
29.756
 20
82.3916
 30
0.0
 11
29.756
 21
81.3911
 31
0.0
  0
LINE
  8
0
 62
     0
 10
29.756
 20
81.3911
 30
0.0
 11
28.9567
 21
81.3911
 31
0.0
  0
LINE
  8
0
 62
     0
 10
28.9567
 20
81.3911
 30
0.0
 11
28.9567
 21
78.292
 31
0.0
  0
LINE
  8
0
 62
     0
 10
28.9567
 20
78.292
 30
0.0
 11
29.756
 21
78.292
 31
0.0
  0
LINE
  8
0
 62
     0
 10
29.756
 20
78.292
 30
0.0
 11
29.756
 21
72.493
 31
0.0
  0
LINE
  8
0
 62
     0
 10
29.756
 20
72.493
 30
0.0
 11
28.9567
 21
72.493
 31
0.0
  0
LINE
  8
0
 62
     0
 10
28.9567
 20
72.493
 30
0.0
 11
28.9567
 21
69.391
 31
0.0
  0
LINE
  8
0
 62
     0
 10
28.9567
 20
69.391
 30
0.0
 11
29.756
 21
69.391
 31
0.0
  0
LINE
  8
0
 62
     0
 10
29.756
 20
69.391
 30
0.0
 11
29.756
 21
68.392
 31
0.0
  0
LINE
  8
0
 62
     0
 10
29.756
 20
68.392
 30
0.0
 11
43.7568
 21
68.392
 31
0.0
  0
LINE
  8
0
 62
     0
 10
43.7568
 20
68.392
 30
0.0
 11
43.7568
 21
69.391
 31
0.0
  0
LINE
  8
0
 62
     0
 10
43.7568
 20
69.391
 30
0.0
 11
44.5562
 21
69.391
 31
0.0
  0
LINE
  8
0
 62
     0
 10
44.5562
 20
69.391
 30
0.0
 11
44.5562
 21
72.493
 31
0.0
  0
LINE
  8
0
 62
     0
 10
44.5562
 20
72.493
 30
0.0
 11
43.7568
 21
72.493
 31
0.0
  0
LINE
  8
0
 62
     0
 10
43.7568
 20
72.493
 30
0.0
 11
43.7568
 21
78.292
 31
0.0
  0
LINE
  8
0
 62
     0
 10
43.7568
 20
78.292
 30
0.0
 11
44.5562
 21
78.292
 31
0.0
  0
LINE
  8
0
 62
     0
 10
44.5562
 20
78.292
 30
0.0
 11
44.5562
 21
81.3911
 31
0.0
  0
LINE
  8
0
 62
     0
 10
44.5562
 20
81.3911
 30
0.0
 11
43.7568
 21
81.3911
 31
0.0
  0
LINE
  8
0
 62
     0
 10
43.7568
 20
81.3911
 30
0.0
 11
43.7568
 21
82.3916
 31
0.0
  0
LINE
  8
0
 62
     0
 10
43.7568
 20
82.3916
 30
0.0
 11
29.756
 21
82.3916
 31
0.0
  0
LINE
  8
0
 62
     0
 10
291.695
 20
101.442
 30
0.0
 11
291.695
 21
100.441
 31
0.0
  0
LINE
  8
0
 62
     0
 10
291.695
 20
100.441
 30
0.0
 11
290.894
 21
100.441
 31
0.0
  0
LINE
  8
0
 62
     0
 10
290.894
 20
100.441
 30
0.0
 11
290.894
 21
97.342
 31
0.0
  0
LINE
  8
0
 62
     0
 10
290.894
 20
97.342
 30
0.0
 11
291.695
 21
97.342
 31
0.0
  0
LINE
  8
0
 62
     0
 10
291.695
 20
97.342
 30
0.0
 11
291.695
 21
91.5416
 31
0.0
  0
LINE
  8
0
 62
     0
 10
291.695
 20
91.5416
 30
0.0
 11
290.894
 21
91.5416
 31
0.0
  0
LINE
  8
0
 62
     0
 10
290.894
 20
91.5416
 30
0.0
 11
290.894
 21
88.441
 31
0.0
  0
LINE
  8
0
 62
     0
 10
290.894
 20
88.441
 30
0.0
 11
291.695
 21
88.441
 31
0.0
  0
LINE
  8
0
 62
     0
 10
291.695
 20
88.441
 30
0.0
 11
291.695
 21
87.442
 31
0.0
  0
LINE
  8
0
 62
     0
 10
291.695
 20
87.442
 30
0.0
 11
305.694
 21
87.442
 31
0.0
  0
LINE
  8
0
 62
     0
 10
305.694
 20
87.442
 30
0.0
 11
305.694
 21
88.441
 31
0.0
  0
LINE
  8
0
 62
     0
 10
305.694
 20
88.441
 30
0.0
 11
306.495
 21
88.441
 31
0.0
  0
LINE
  8
0
 62
     0
 10
306.495
 20
88.441
 30
0.0
 11
306.495
 21
91.5416
 31
0.0
  0
LINE
  8
0
 62
     0
 10
306.495
 20
91.5416
 30
0.0
 11
305.694
 21
91.5416
 31
0.0
  0
LINE
  8
0
 62
     0
 10
305.694
 20
91.5416
 30
0.0
 11
305.694
 21
97.342
 31
0.0
  0
LINE
  8
0
 62
     0
 10
305.694
 20
97.342
 30
0.0
 11
306.495
 21
97.342
 31
0.0
  0
LINE
  8
0
 62
     0
 10
306.495
 20
97.342
 30
0.0
 11
306.495
 21
100.441
 31
0.0
  0
LINE
  8
0
 62
     0
 10
306.495
 20
100.441
 30
0.0
 11
305.694
 21
100.441
 31
0.0
  0
LINE
  8
0
 62
     0
 10
305.694
 20
100.441
 30
0.0
 11
305.694
 21
101.442
 31
0.0
  0
LINE
  8
0
 62
     0
 10
305.694
 20
101.442
 30
0.0
 11
291.695
 21
101.442
 31
0.0
  0
LINE
  8
0
 62
     0
 10
272.645
 20
101.442
 30
0.0
 11
272.645
 21
100.441
 31
0.0
  0
LINE
  8
0
 62
     0
 10
272.645
 20
100.441
 30
0.0
 11
271.844
 21
100.441
 31
0.0
  0
LINE
  8
0
 62
     0
 10
271.844
 20
100.441
 30
0.0
 11
271.844
 21
97.342
 31
0.0
  0
LINE
  8
0
 62
     0
 10
271.844
 20
97.342
 30
0.0
 11
272.645
 21
97.342
 31
0.0
  0
LINE
  8
0
 62
     0
 10
272.645
 20
97.342
 30
0.0
 11
272.645
 21
91.5416
 31
0.0
  0
LINE
  8
0
 62
     0
 10
272.645
 20
91.5416
 30
0.0
 11
271.844
 21
91.5416
 31
0.0
  0
LINE
  8
0
 62
     0
 10
271.844
 20
91.5416
 30
0.0
 11
271.844
 21
88.441
 31
0.0
  0
LINE
  8
0
 62
     0
 10
271.844
 20
88.441
 30
0.0
 11
272.645
 21
88.441
 31
0.0
  0
LINE
  8
0
 62
     0
 10
272.645
 20
88.441
 30
0.0
 11
272.645
 21
87.442
 31
0.0
  0
LINE
  8
0
 62
     0
 10
272.645
 20
87.442
 30
0.0
 11
286.644
 21
87.442
 31
0.0
  0
LINE
  8
0
 62
     0
 10
286.644
 20
87.442
 30
0.0
 11
286.644
 21
88.441
 31
0.0
  0
LINE
  8
0
 62
     0
 10
286.644
 20
88.441
 30
0.0
 11
287.445
 21
88.441
 31
0.0
  0
LINE
  8
0
 62
     0
 10
287.445
 20
88.441
 30
0.0
 11
287.445
 21
91.5416
 31
0.0
  0
LINE
  8
0
 62
     0
 10
287.445
 20
91.5416
 30
0.0
 11
286.644
 21
91.5416
 31
0.0
  0
LINE
  8
0
 62
     0
 10
286.644
 20
91.5416
 30
0.0
 11
286.644
 21
97.342
 31
0.0
  0
LINE
  8
0
 62
     0
 10
286.644
 20
97.342
 30
0.0
 11
287.445
 21
97.342
 31
0.0
  0
LINE
  8
0
 62
     0
 10
287.445
 20
97.342
 30
0.0
 11
287.445
 21
100.441
 31
0.0
  0
LINE
  8
0
 62
     0
 10
287.445
 20
100.441
 30
0.0
 11
286.644
 21
100.441
 31
0.0
  0
LINE
  8
0
 62
     0
 10
286.644
 20
100.441
 30
0.0
 11
286.644
 21
101.442
 31
0.0
  0
LINE
  8
0
 62
     0
 10
286.644
 20
101.442
 30
0.0
 11
272.645
 21
101.442
 31
0.0
  0
LINE
  8
0
 62
     0
 10
253.595
 20
101.442
 30
0.0
 11
253.595
 21
100.441
 31
0.0
  0
LINE
  8
0
 62
     0
 10
253.595
 20
100.441
 30
0.0
 11
252.794
 21
100.441
 31
0.0
  0
LINE
  8
0
 62
     0
 10
252.794
 20
100.441
 30
0.0
 11
252.794
 21
97.342
 31
0.0
  0
LINE
  8
0
 62
     0
 10
252.794
 20
97.342
 30
0.0
 11
253.595
 21
97.342
 31
0.0
  0
LINE
  8
0
 62
     0
 10
253.595
 20
97.342
 30
0.0
 11
253.595
 21
91.5416
 31
0.0
  0
LINE
  8
0
 62
     0
 10
253.595
 20
91.5416
 30
0.0
 11
252.794
 21
91.5416
 31
0.0
  0
LINE
  8
0
 62
     0
 10
252.794
 20
91.5416
 30
0.0
 11
252.794
 21
88.441
 31
0.0
  0
LINE
  8
0
 62
     0
 10
252.794
 20
88.441
 30
0.0
 11
253.595
 21
88.441
 31
0.0
  0
LINE
  8
0
 62
     0
 10
253.595
 20
88.441
 30
0.0
 11
253.595
 21
87.442
 31
0.0
  0
LINE
  8
0
 62
     0
 10
253.595
 20
87.442
 30
0.0
 11
267.594
 21
87.442
 31
0.0
  0
LINE
  8
0
 62
     0
 10
267.594
 20
87.442
 30
0.0
 11
267.594
 21
88.441
 31
0.0
  0
LINE
  8
0
 62
     0
 10
267.594
 20
88.441
 30
0.0
 11
268.395
 21
88.441
 31
0.0
  0
LINE
  8
0
 62
     0
 10
268.395
 20
88.441
 30
0.0
 11
268.395
 21
91.5416
 31
0.0
  0
LINE
  8
0
 62
     0
 10
268.395
 20
91.5416
 30
0.0
 11
267.594
 21
91.5416
 31
0.0
  0
LINE
  8
0
 62
     0
 10
267.594
 20
91.5416
 30
0.0
 11
267.594
 21
97.342
 31
0.0
  0
LINE
  8
0
 62
     0
 10
267.594
 20
97.342
 30
0.0
 11
268.395
 21
97.342
 31
0.0
  0
LINE
  8
0
 62
     0
 10
268.395
 20
97.342
 30
0.0
 11
268.395
 21
100.441
 31
0.0
  0
LINE
  8
0
 62
     0
 10
268.395
 20
100.441
 30
0.0
 11
267.594
 21
100.441
 31
0.0
  0
LINE
  8
0
 62
     0
 10
267.594
 20
100.441
 30
0.0
 11
267.594
 21
101.442
 31
0.0
  0
LINE
  8
0
 62
     0
 10
267.594
 20
101.442
 30
0.0
 11
253.595
 21
101.442
 31
0.0
  0
LINE
  8
0
 62
     0
 10
234.545
 20
101.442
 30
0.0
 11
234.545
 21
100.441
 31
0.0
  0
LINE
  8
0
 62
     0
 10
234.545
 20
100.441
 30
0.0
 11
233.744
 21
100.441
 31
0.0
  0
LINE
  8
0
 62
     0
 10
233.744
 20
100.441
 30
0.0
 11
233.744
 21
97.342
 31
0.0
  0
LINE
  8
0
 62
     0
 10
233.744
 20
97.342
 30
0.0
 11
234.545
 21
97.342
 31
0.0
  0
LINE
  8
0
 62
     0
 10
234.545
 20
97.342
 30
0.0
 11
234.545
 21
91.5416
 31
0.0
  0
LINE
  8
0
 62
     0
 10
234.545
 20
91.5416
 30
0.0
 11
233.744
 21
91.5416
 31
0.0
  0
LINE
  8
0
 62
     0
 10
233.744
 20
91.5416
 30
0.0
 11
233.744
 21
88.441
 31
0.0
  0
LINE
  8
0
 62
     0
 10
233.744
 20
88.441
 30
0.0
 11
234.545
 21
88.441
 31
0.0
  0
LINE
  8
0
 62
     0
 10
234.545
 20
88.441
 30
0.0
 11
234.545
 21
87.442
 31
0.0
  0
LINE
  8
0
 62
     0
 10
234.545
 20
87.442
 30
0.0
 11
248.544
 21
87.442
 31
0.0
  0
LINE
  8
0
 62
     0
 10
248.544
 20
87.442
 30
0.0
 11
248.544
 21
88.441
 31
0.0
  0
LINE
  8
0
 62
     0
 10
248.544
 20
88.441
 30
0.0
 11
249.345
 21
88.441
 31
0.0
  0
LINE
  8
0
 62
     0
 10
249.345
 20
88.441
 30
0.0
 11
249.345
 21
91.5416
 31
0.0
  0
LINE
  8
0
 62
     0
 10
249.345
 20
91.5416
 30
0.0
 11
248.544
 21
91.5416
 31
0.0
  0
LINE
  8
0
 62
     0
 10
248.544
 20
91.5416
 30
0.0
 11
248.544
 21
97.342
 31
0.0
  0
LINE
  8
0
 62
     0
 10
248.544
 20
97.342
 30
0.0
 11
249.345
 21
97.342
 31
0.0
  0
LINE
  8
0
 62
     0
 10
249.345
 20
97.342
 30
0.0
 11
249.345
 21
100.441
 31
0.0
  0
LINE
  8
0
 62
     0
 10
249.345
 20
100.441
 30
0.0
 11
248.544
 21
100.441
 31
0.0
  0
LINE
  8
0
 62
     0
 10
248.544
 20
100.441
 30
0.0
 11
248.544
 21
101.442
 31
0.0
  0
LINE
  8
0
 62
     0
 10
248.544
 20
101.442
 30
0.0
 11
234.545
 21
101.442
 31
0.0
  0
LINE
  8
0
 62
     0
 10
215.495
 20
101.442
 30
0.0
 11
215.495
 21
100.441
 31
0.0
  0
LINE
  8
0
 62
     0
 10
215.495
 20
100.441
 30
0.0
 11
214.694
 21
100.441
 31
0.0
  0
LINE
  8
0
 62
     0
 10
214.694
 20
100.441
 30
0.0
 11
214.694
 21
97.342
 31
0.0
  0
LINE
  8
0
 62
     0
 10
214.694
 20
97.342
 30
0.0
 11
215.495
 21
97.342
 31
0.0
  0
LINE
  8
0
 62
     0
 10
215.495
 20
97.342
 30
0.0
 11
215.495
 21
91.5416
 31
0.0
  0
LINE
  8
0
 62
     0
 10
215.495
 20
91.5416
 30
0.0
 11
214.694
 21
91.5416
 31
0.0
  0
LINE
  8
0
 62
     0
 10
214.694
 20
91.5416
 30
0.0
 11
214.694
 21
88.441
 31
0.0
  0
LINE
  8
0
 62
     0
 10
214.694
 20
88.441
 30
0.0
 11
215.495
 21
88.441
 31
0.0
  0
LINE
  8
0
 62
     0
 10
215.495
 20
88.441
 30
0.0
 11
215.495
 21
87.442
 31
0.0
  0
LINE
  8
0
 62
     0
 10
215.495
 20
87.442
 30
0.0
 11
229.494
 21
87.442
 31
0.0
  0
LINE
  8
0
 62
     0
 10
229.494
 20
87.442
 30
0.0
 11
229.494
 21
88.441
 31
0.0
  0
LINE
  8
0
 62
     0
 10
229.494
 20
88.441
 30
0.0
 11
230.295
 21
88.441
 31
0.0
  0
LINE
  8
0
 62
     0
 10
230.295
 20
88.441
 30
0.0
 11
230.295
 21
91.5416
 31
0.0
  0
LINE
  8
0
 62
     0
 10
230.295
 20
91.5416
 30
0.0
 11
229.494
 21
91.5416
 31
0.0
  0
LINE
  8
0
 62
     0
 10
229.494
 20
91.5416
 30
0.0
 11
229.494
 21
97.342
 31
0.0
  0
LINE
  8
0
 62
     0
 10
229.494
 20
97.342
 30
0.0
 11
230.295
 21
97.342
 31
0.0
  0
LINE
  8
0
 62
     0
 10
230.295
 20
97.342
 30
0.0
 11
230.295
 21
100.441
 31
0.0
  0
LINE
  8
0
 62
     0
 10
230.295
 20
100.441
 30
0.0
 11
229.494
 21
100.441
 31
0.0
  0
LINE
  8
0
 62
     0
 10
229.494
 20
100.441
 30
0.0
 11
229.494
 21
101.442
 31
0.0
  0
LINE
  8
0
 62
     0
 10
229.494
 20
101.442
 30
0.0
 11
215.495
 21
101.442
 31
0.0
  0
LINE
  8
0
 62
     0
 10
196.445
 20
101.442
 30
0.0
 11
196.445
 21
100.441
 31
0.0
  0
LINE
  8
0
 62
     0
 10
196.445
 20
100.441
 30
0.0
 11
195.644
 21
100.441
 31
0.0
  0
LINE
  8
0
 62
     0
 10
195.644
 20
100.441
 30
0.0
 11
195.644
 21
97.342
 31
0.0
  0
LINE
  8
0
 62
     0
 10
195.644
 20
97.342
 30
0.0
 11
196.445
 21
97.342
 31
0.0
  0
LINE
  8
0
 62
     0
 10
196.445
 20
97.342
 30
0.0
 11
196.445
 21
91.5416
 31
0.0
  0
LINE
  8
0
 62
     0
 10
196.445
 20
91.5416
 30
0.0
 11
195.644
 21
91.5416
 31
0.0
  0
LINE
  8
0
 62
     0
 10
195.644
 20
91.5416
 30
0.0
 11
195.644
 21
88.441
 31
0.0
  0
LINE
  8
0
 62
     0
 10
195.644
 20
88.441
 30
0.0
 11
196.445
 21
88.441
 31
0.0
  0
LINE
  8
0
 62
     0
 10
196.445
 20
88.441
 30
0.0
 11
196.445
 21
87.442
 31
0.0
  0
LINE
  8
0
 62
     0
 10
196.445
 20
87.442
 30
0.0
 11
210.444
 21
87.442
 31
0.0
  0
LINE
  8
0
 62
     0
 10
210.444
 20
87.442
 30
0.0
 11
210.444
 21
88.441
 31
0.0
  0
LINE
  8
0
 62
     0
 10
210.444
 20
88.441
 30
0.0
 11
211.245
 21
88.441
 31
0.0
  0
LINE
  8
0
 62
     0
 10
211.245
 20
88.441
 30
0.0
 11
211.245
 21
91.5416
 31
0.0
  0
LINE
  8
0
 62
     0
 10
211.245
 20
91.5416
 30
0.0
 11
210.444
 21
91.5416
 31
0.0
  0
LINE
  8
0
 62
     0
 10
210.444
 20
91.5416
 30
0.0
 11
210.444
 21
97.342
 31
0.0
  0
LINE
  8
0
 62
     0
 10
210.444
 20
97.342
 30
0.0
 11
211.245
 21
97.342
 31
0.0
  0
LINE
  8
0
 62
     0
 10
211.245
 20
97.342
 30
0.0
 11
211.245
 21
100.441
 31
0.0
  0
LINE
  8
0
 62
     0
 10
211.245
 20
100.441
 30
0.0
 11
210.444
 21
100.441
 31
0.0
  0
LINE
  8
0
 62
     0
 10
210.444
 20
100.441
 30
0.0
 11
210.444
 21
101.442
 31
0.0
  0
LINE
  8
0
 62
     0
 10
210.444
 20
101.442
 30
0.0
 11
196.445
 21
101.442
 31
0.0
  0
LINE
  8
0
 62
     0
 10
177.395
 20
101.442
 30
0.0
 11
177.395
 21
100.441
 31
0.0
  0
LINE
  8
0
 62
     0
 10
177.395
 20
100.441
 30
0.0
 11
176.594
 21
100.441
 31
0.0
  0
LINE
  8
0
 62
     0
 10
176.594
 20
100.441
 30
0.0
 11
176.594
 21
97.342
 31
0.0
  0
LINE
  8
0
 62
     0
 10
176.594
 20
97.342
 30
0.0
 11
177.395
 21
97.342
 31
0.0
  0
LINE
  8
0
 62
     0
 10
177.395
 20
97.342
 30
0.0
 11
177.395
 21
91.5416
 31
0.0
  0
LINE
  8
0
 62
     0
 10
177.395
 20
91.5416
 30
0.0
 11
176.594
 21
91.5416
 31
0.0
  0
LINE
  8
0
 62
     0
 10
176.594
 20
91.5416
 30
0.0
 11
176.594
 21
88.441
 31
0.0
  0
LINE
  8
0
 62
     0
 10
176.594
 20
88.441
 30
0.0
 11
177.395
 21
88.441
 31
0.0
  0
LINE
  8
0
 62
     0
 10
177.395
 20
88.441
 30
0.0
 11
177.395
 21
87.442
 31
0.0
  0
LINE
  8
0
 62
     0
 10
177.395
 20
87.442
 30
0.0
 11
191.394
 21
87.442
 31
0.0
  0
LINE
  8
0
 62
     0
 10
191.394
 20
87.442
 30
0.0
 11
191.394
 21
88.441
 31
0.0
  0
LINE
  8
0
 62
     0
 10
191.394
 20
88.441
 30
0.0
 11
192.195
 21
88.441
 31
0.0
  0
LINE
  8
0
 62
     0
 10
192.195
 20
88.441
 30
0.0
 11
192.195
 21
91.5416
 31
0.0
  0
LINE
  8
0
 62
     0
 10
192.195
 20
91.5416
 30
0.0
 11
191.394
 21
91.5416
 31
0.0
  0
LINE
  8
0
 62
     0
 10
191.394
 20
91.5416
 30
0.0
 11
191.394
 21
97.342
 31
0.0
  0
LINE
  8
0
 62
     0
 10
191.394
 20
97.342
 30
0.0
 11
192.195
 21
97.342
 31
0.0
  0
LINE
  8
0
 62
     0
 10
192.195
 20
97.342
 30
0.0
 11
192.195
 21
100.441
 31
0.0
  0
LINE
  8
0
 62
     0
 10
192.195
 20
100.441
 30
0.0
 11
191.394
 21
100.441
 31
0.0
  0
LINE
  8
0
 62
     0
 10
191.394
 20
100.441
 30
0.0
 11
191.394
 21
101.442
 31
0.0
  0
LINE
  8
0
 62
     0
 10
191.394
 20
101.442
 30
0.0
 11
177.395
 21
101.442
 31
0.0
  0
LINE
  8
0
 62
     0
 10
158.345
 20
101.442
 30
0.0
 11
158.345
 21
100.441
 31
0.0
  0
LINE
  8
0
 62
     0
 10
158.345
 20
100.441
 30
0.0
 11
157.544
 21
100.441
 31
0.0
  0
LINE
  8
0
 62
     0
 10
157.544
 20
100.441
 30
0.0
 11
157.544
 21
97.342
 31
0.0
  0
LINE
  8
0
 62
     0
 10
157.544
 20
97.342
 30
0.0
 11
158.345
 21
97.342
 31
0.0
  0
LINE
  8
0
 62
     0
 10
158.345
 20
97.342
 30
0.0
 11
158.345
 21
91.5416
 31
0.0
  0
LINE
  8
0
 62
     0
 10
158.345
 20
91.5416
 30
0.0
 11
157.544
 21
91.5416
 31
0.0
  0
LINE
  8
0
 62
     0
 10
157.544
 20
91.5416
 30
0.0
 11
157.544
 21
88.441
 31
0.0
  0
LINE
  8
0
 62
     0
 10
157.544
 20
88.441
 30
0.0
 11
158.345
 21
88.441
 31
0.0
  0
LINE
  8
0
 62
     0
 10
158.345
 20
88.441
 30
0.0
 11
158.345
 21
87.442
 31
0.0
  0
LINE
  8
0
 62
     0
 10
158.345
 20
87.442
 30
0.0
 11
172.344
 21
87.442
 31
0.0
  0
LINE
  8
0
 62
     0
 10
172.344
 20
87.442
 30
0.0
 11
172.344
 21
88.441
 31
0.0
  0
LINE
  8
0
 62
     0
 10
172.344
 20
88.441
 30
0.0
 11
173.145
 21
88.441
 31
0.0
  0
LINE
  8
0
 62
     0
 10
173.145
 20
88.441
 30
0.0
 11
173.145
 21
91.5416
 31
0.0
  0
LINE
  8
0
 62
     0
 10
173.145
 20
91.5416
 30
0.0
 11
172.344
 21
91.5416
 31
0.0
  0
LINE
  8
0
 62
     0
 10
172.344
 20
91.5416
 30
0.0
 11
172.344
 21
97.342
 31
0.0
  0
LINE
  8
0
 62
     0
 10
172.344
 20
97.342
 30
0.0
 11
173.145
 21
97.342
 31
0.0
  0
LINE
  8
0
 62
     0
 10
173.145
 20
97.342
 30
0.0
 11
173.145
 21
100.441
 31
0.0
  0
LINE
  8
0
 62
     0
 10
173.145
 20
100.441
 30
0.0
 11
172.344
 21
100.441
 31
0.0
  0
LINE
  8
0
 62
     0
 10
172.344
 20
100.441
 30
0.0
 11
172.344
 21
101.442
 31
0.0
  0
LINE
  8
0
 62
     0
 10
172.344
 20
101.442
 30
0.0
 11
158.345
 21
101.442
 31
0.0
  0
LINE
  8
0
 62
     0
 10
139.295
 20
101.442
 30
0.0
 11
139.295
 21
100.441
 31
0.0
  0
LINE
  8
0
 62
     0
 10
139.295
 20
100.441
 30
0.0
 11
138.494
 21
100.441
 31
0.0
  0
LINE
  8
0
 62
     0
 10
138.494
 20
100.441
 30
0.0
 11
138.494
 21
97.342
 31
0.0
  0
LINE
  8
0
 62
     0
 10
138.494
 20
97.342
 30
0.0
 11
139.295
 21
97.342
 31
0.0
  0
LINE
  8
0
 62
     0
 10
139.295
 20
97.342
 30
0.0
 11
139.295
 21
91.5416
 31
0.0
  0
LINE
  8
0
 62
     0
 10
139.295
 20
91.5416
 30
0.0
 11
138.494
 21
91.5416
 31
0.0
  0
LINE
  8
0
 62
     0
 10
138.494
 20
91.5416
 30
0.0
 11
138.494
 21
88.441
 31
0.0
  0
LINE
  8
0
 62
     0
 10
138.494
 20
88.441
 30
0.0
 11
139.295
 21
88.441
 31
0.0
  0
LINE
  8
0
 62
     0
 10
139.295
 20
88.441
 30
0.0
 11
139.295
 21
87.442
 31
0.0
  0
LINE
  8
0
 62
     0
 10
139.295
 20
87.442
 30
0.0
 11
153.294
 21
87.442
 31
0.0
  0
LINE
  8
0
 62
     0
 10
153.294
 20
87.442
 30
0.0
 11
153.294
 21
88.441
 31
0.0
  0
LINE
  8
0
 62
     0
 10
153.294
 20
88.441
 30
0.0
 11
154.095
 21
88.441
 31
0.0
  0
LINE
  8
0
 62
     0
 10
154.095
 20
88.441
 30
0.0
 11
154.095
 21
91.5416
 31
0.0
  0
LINE
  8
0
 62
     0
 10
154.095
 20
91.5416
 30
0.0
 11
153.294
 21
91.5416
 31
0.0
  0
LINE
  8
0
 62
     0
 10
153.294
 20
91.5416
 30
0.0
 11
153.294
 21
97.342
 31
0.0
  0
LINE
  8
0
 62
     0
 10
153.294
 20
97.342
 30
0.0
 11
154.095
 21
97.342
 31
0.0
  0
LINE
  8
0
 62
     0
 10
154.095
 20
97.342
 30
0.0
 11
154.095
 21
100.441
 31
0.0
  0
LINE
  8
0
 62
     0
 10
154.095
 20
100.441
 30
0.0
 11
153.294
 21
100.441
 31
0.0
  0
LINE
  8
0
 62
     0
 10
153.294
 20
100.441
 30
0.0
 11
153.294
 21
101.442
 31
0.0
  0
LINE
  8
0
 62
     0
 10
153.294
 20
101.442
 30
0.0
 11
139.295
 21
101.442
 31
0.0
  0
LINE
  8
0
 62
     0
 10
120.245
 20
101.442
 30
0.0
 11
120.245
 21
100.441
 31
0.0
  0
LINE
  8
0
 62
     0
 10
120.245
 20
100.441
 30
0.0
 11
119.444
 21
100.441
 31
0.0
  0
LINE
  8
0
 62
     0
 10
119.444
 20
100.441
 30
0.0
 11
119.444
 21
97.342
 31
0.0
  0
LINE
  8
0
 62
     0
 10
119.444
 20
97.342
 30
0.0
 11
120.245
 21
97.342
 31
0.0
  0
LINE
  8
0
 62
     0
 10
120.245
 20
97.342
 30
0.0
 11
120.245
 21
91.5416
 31
0.0
  0
LINE
  8
0
 62
     0
 10
120.245
 20
91.5416
 30
0.0
 11
119.444
 21
91.5416
 31
0.0
  0
LINE
  8
0
 62
     0
 10
119.444
 20
91.5416
 30
0.0
 11
119.444
 21
88.441
 31
0.0
  0
LINE
  8
0
 62
     0
 10
119.444
 20
88.441
 30
0.0
 11
120.245
 21
88.441
 31
0.0
  0
LINE
  8
0
 62
     0
 10
120.245
 20
88.441
 30
0.0
 11
120.245
 21
87.442
 31
0.0
  0
LINE
  8
0
 62
     0
 10
120.245
 20
87.442
 30
0.0
 11
134.244
 21
87.442
 31
0.0
  0
LINE
  8
0
 62
     0
 10
134.244
 20
87.442
 30
0.0
 11
134.244
 21
88.441
 31
0.0
  0
LINE
  8
0
 62
     0
 10
134.244
 20
88.441
 30
0.0
 11
135.045
 21
88.441
 31
0.0
  0
LINE
  8
0
 62
     0
 10
135.045
 20
88.441
 30
0.0
 11
135.045
 21
91.5416
 31
0.0
  0
LINE
  8
0
 62
     0
 10
135.045
 20
91.5416
 30
0.0
 11
134.244
 21
91.5416
 31
0.0
  0
LINE
  8
0
 62
     0
 10
134.244
 20
91.5416
 30
0.0
 11
134.244
 21
97.342
 31
0.0
  0
LINE
  8
0
 62
     0
 10
134.244
 20
97.342
 30
0.0
 11
135.045
 21
97.342
 31
0.0
  0
LINE
  8
0
 62
     0
 10
135.045
 20
97.342
 30
0.0
 11
135.045
 21
100.441
 31
0.0
  0
LINE
  8
0
 62
     0
 10
135.045
 20
100.441
 30
0.0
 11
134.244
 21
100.441
 31
0.0
  0
LINE
  8
0
 62
     0
 10
134.244
 20
100.441
 30
0.0
 11
134.244
 21
101.442
 31
0.0
  0
LINE
  8
0
 62
     0
 10
134.244
 20
101.442
 30
0.0
 11
120.245
 21
101.442
 31
0.0
  0
LINE
  8
0
 62
     0
 10
101.195
 20
101.442
 30
0.0
 11
101.195
 21
100.441
 31
0.0
  0
LINE
  8
0
 62
     0
 10
101.195
 20
100.441
 30
0.0
 11
100.394
 21
100.441
 31
0.0
  0
LINE
  8
0
 62
     0
 10
100.394
 20
100.441
 30
0.0
 11
100.394
 21
97.342
 31
0.0
  0
LINE
  8
0
 62
     0
 10
100.394
 20
97.342
 30
0.0
 11
101.195
 21
97.342
 31
0.0
  0
LINE
  8
0
 62
     0
 10
101.195
 20
97.342
 30
0.0
 11
101.195
 21
91.5416
 31
0.0
  0
LINE
  8
0
 62
     0
 10
101.195
 20
91.5416
 30
0.0
 11
100.394
 21
91.5416
 31
0.0
  0
LINE
  8
0
 62
     0
 10
100.394
 20
91.5416
 30
0.0
 11
100.394
 21
88.441
 31
0.0
  0
LINE
  8
0
 62
     0
 10
100.394
 20
88.441
 30
0.0
 11
101.195
 21
88.441
 31
0.0
  0
LINE
  8
0
 62
     0
 10
101.195
 20
88.441
 30
0.0
 11
101.195
 21
87.442
 31
0.0
  0
LINE
  8
0
 62
     0
 10
101.195
 20
87.442
 30
0.0
 11
115.194
 21
87.442
 31
0.0
  0
LINE
  8
0
 62
     0
 10
115.194
 20
87.442
 30
0.0
 11
115.194
 21
88.441
 31
0.0
  0
LINE
  8
0
 62
     0
 10
115.194
 20
88.441
 30
0.0
 11
115.994
 21
88.441
 31
0.0
  0
LINE
  8
0
 62
     0
 10
115.994
 20
88.441
 30
0.0
 11
115.994
 21
91.5416
 31
0.0
  0
LINE
  8
0
 62
     0
 10
115.994
 20
91.5416
 30
0.0
 11
115.194
 21
91.5416
 31
0.0
  0
LINE
  8
0
 62
     0
 10
115.194
 20
91.5416
 30
0.0
 11
115.194
 21
97.342
 31
0.0
  0
LINE
  8
0
 62
     0
 10
115.194
 20
97.342
 30
0.0
 11
115.994
 21
97.342
 31
0.0
  0
LINE
  8
0
 62
     0
 10
115.994
 20
97.342
 30
0.0
 11
115.994
 21
100.441
 31
0.0
  0
LINE
  8
0
 62
     0
 10
115.994
 20
100.441
 30
0.0
 11
115.194
 21
100.441
 31
0.0
  0
LINE
  8
0
 62
     0
 10
115.194
 20
100.441
 30
0.0
 11
115.194
 21
101.442
 31
0.0
  0
LINE
  8
0
 62
     0
 10
115.194
 20
101.442
 30
0.0
 11
101.195
 21
101.442
 31
0.0
  0
LINE
  8
0
 62
     0
 10
82.145
 20
101.442
 30
0.0
 11
82.145
 21
100.441
 31
0.0
  0
LINE
  8
0
 62
     0
 10
82.145
 20
100.441
 30
0.0
 11
81.3442
 21
100.441
 31
0.0
  0
LINE
  8
0
 62
     0
 10
81.3442
 20
100.441
 30
0.0
 11
81.3442
 21
97.342
 31
0.0
  0
LINE
  8
0
 62
     0
 10
81.3442
 20
97.342
 30
0.0
 11
82.145
 21
97.342
 31
0.0
  0
LINE
  8
0
 62
     0
 10
82.145
 20
97.342
 30
0.0
 11
82.145
 21
91.5416
 31
0.0
  0
LINE
  8
0
 62
     0
 10
82.145
 20
91.5416
 30
0.0
 11
81.3442
 21
91.5416
 31
0.0
  0
LINE
  8
0
 62
     0
 10
81.3442
 20
91.5416
 30
0.0
 11
81.3442
 21
88.441
 31
0.0
  0
LINE
  8
0
 62
     0
 10
81.3442
 20
88.441
 30
0.0
 11
82.145
 21
88.441
 31
0.0
  0
LINE
  8
0
 62
     0
 10
82.145
 20
88.441
 30
0.0
 11
82.145
 21
87.442
 31
0.0
  0
LINE
  8
0
 62
     0
 10
82.145
 20
87.442
 30
0.0
 11
96.1443
 21
87.442
 31
0.0
  0
LINE
  8
0
 62
     0
 10
96.1443
 20
87.442
 30
0.0
 11
96.1443
 21
88.441
 31
0.0
  0
LINE
  8
0
 62
     0
 10
96.1443
 20
88.441
 30
0.0
 11
96.9451
 21
88.441
 31
0.0
  0
LINE
  8
0
 62
     0
 10
96.9451
 20
88.441
 30
0.0
 11
96.9451
 21
91.5416
 31
0.0
  0
LINE
  8
0
 62
     0
 10
96.9451
 20
91.5416
 30
0.0
 11
96.1443
 21
91.5416
 31
0.0
  0
LINE
  8
0
 62
     0
 10
96.1443
 20
91.5416
 30
0.0
 11
96.1443
 21
97.342
 31
0.0
  0
LINE
  8
0
 62
     0
 10
96.1443
 20
97.342
 30
0.0
 11
96.9451
 21
97.342
 31
0.0
  0
LINE
  8
0
 62
     0
 10
96.9451
 20
97.342
 30
0.0
 11
96.9451
 21
100.441
 31
0.0
  0
LINE
  8
0
 62
     0
 10
96.9451
 20
100.441
 30
0.0
 11
96.1443
 21
100.441
 31
0.0
  0
LINE
  8
0
 62
     0
 10
96.1443
 20
100.441
 30
0.0
 11
96.1443
 21
101.442
 31
0.0
  0
LINE
  8
0
 62
     0
 10
96.1443
 20
101.442
 30
0.0
 11
82.145
 21
101.442
 31
0.0
  0
LINE
  8
0
 62
     0
 10
63.095
 20
101.442
 30
0.0
 11
63.095
 21
100.441
 31
0.0
  0
LINE
  8
0
 62
     0
 10
63.095
 20
100.441
 30
0.0
 11
62.2942
 21
100.441
 31
0.0
  0
LINE
  8
0
 62
     0
 10
62.2942
 20
100.441
 30
0.0
 11
62.2942
 21
97.342
 31
0.0
  0
LINE
  8
0
 62
     0
 10
62.2942
 20
97.342
 30
0.0
 11
63.095
 21
97.342
 31
0.0
  0
LINE
  8
0
 62
     0
 10
63.095
 20
97.342
 30
0.0
 11
63.095
 21
91.5416
 31
0.0
  0
LINE
  8
0
 62
     0
 10
63.095
 20
91.5416
 30
0.0
 11
62.2942
 21
91.5416
 31
0.0
  0
LINE
  8
0
 62
     0
 10
62.2942
 20
91.5416
 30
0.0
 11
62.2942
 21
88.441
 31
0.0
  0
LINE
  8
0
 62
     0
 10
62.2942
 20
88.441
 30
0.0
 11
63.095
 21
88.441
 31
0.0
  0
LINE
  8
0
 62
     0
 10
63.095
 20
88.441
 30
0.0
 11
63.095
 21
87.442
 31
0.0
  0
LINE
  8
0
 62
     0
 10
63.095
 20
87.442
 30
0.0
 11
77.0943
 21
87.442
 31
0.0
  0
LINE
  8
0
 62
     0
 10
77.0943
 20
87.442
 30
0.0
 11
77.0943
 21
88.441
 31
0.0
  0
LINE
  8
0
 62
     0
 10
77.0943
 20
88.441
 30
0.0
 11
77.8951
 21
88.441
 31
0.0
  0
LINE
  8
0
 62
     0
 10
77.8951
 20
88.441
 30
0.0
 11
77.8951
 21
91.5416
 31
0.0
  0
LINE
  8
0
 62
     0
 10
77.8951
 20
91.5416
 30
0.0
 11
77.0943
 21
91.5416
 31
0.0
  0
LINE
  8
0
 62
     0
 10
77.0943
 20
91.5416
 30
0.0
 11
77.0943
 21
97.342
 31
0.0
  0
LINE
  8
0
 62
     0
 10
77.0943
 20
97.342
 30
0.0
 11
77.8951
 21
97.342
 31
0.0
  0
LINE
  8
0
 62
     0
 10
77.8951
 20
97.342
 30
0.0
 11
77.8951
 21
100.441
 31
0.0
  0
LINE
  8
0
 62
     0
 10
77.8951
 20
100.441
 30
0.0
 11
77.0943
 21
100.441
 31
0.0
  0
LINE
  8
0
 62
     0
 10
77.0943
 20
100.441
 30
0.0
 11
77.0943
 21
101.442
 31
0.0
  0
LINE
  8
0
 62
     0
 10
77.0943
 20
101.442
 30
0.0
 11
63.095
 21
101.442
 31
0.0
  0
LINE
  8
0
 62
     0
 10
44.045
 20
101.442
 30
0.0
 11
44.045
 21
100.441
 31
0.0
  0
LINE
  8
0
 62
     0
 10
44.045
 20
100.441
 30
0.0
 11
43.2442
 21
100.441
 31
0.0
  0
LINE
  8
0
 62
     0
 10
43.2442
 20
100.441
 30
0.0
 11
43.2442
 21
97.342
 31
0.0
  0
LINE
  8
0
 62
     0
 10
43.2442
 20
97.342
 30
0.0
 11
44.045
 21
97.342
 31
0.0
  0
LINE
  8
0
 62
     0
 10
44.045
 20
97.342
 30
0.0
 11
44.045
 21
91.5416
 31
0.0
  0
LINE
  8
0
 62
     0
 10
44.045
 20
91.5416
 30
0.0
 11
43.2442
 21
91.5416
 31
0.0
  0
LINE
  8
0
 62
     0
 10
43.2442
 20
91.5416
 30
0.0
 11
43.2442
 21
88.441
 31
0.0
  0
LINE
  8
0
 62
     0
 10
43.2442
 20
88.441
 30
0.0
 11
44.045
 21
88.441
 31
0.0
  0
LINE
  8
0
 62
     0
 10
44.045
 20
88.441
 30
0.0
 11
44.045
 21
87.442
 31
0.0
  0
LINE
  8
0
 62
     0
 10
44.045
 20
87.442
 30
0.0
 11
58.0443
 21
87.442
 31
0.0
  0
LINE
  8
0
 62
     0
 10
58.0443
 20
87.442
 30
0.0
 11
58.0443
 21
88.441
 31
0.0
  0
LINE
  8
0
 62
     0
 10
58.0443
 20
88.441
 30
0.0
 11
58.8451
 21
88.441
 31
0.0
  0
LINE
  8
0
 62
     0
 10
58.8451
 20
88.441
 30
0.0
 11
58.8451
 21
91.5416
 31
0.0
  0
LINE
  8
0
 62
     0
 10
58.8451
 20
91.5416
 30
0.0
 11
58.0443
 21
91.5416
 31
0.0
  0
LINE
  8
0
 62
     0
 10
58.0443
 20
91.5416
 30
0.0
 11
58.0443
 21
97.342
 31
0.0
  0
LINE
  8
0
 62
     0
 10
58.0443
 20
97.342
 30
0.0
 11
58.8451
 21
97.342
 31
0.0
  0
LINE
  8
0
 62
     0
 10
58.8451
 20
97.342
 30
0.0
 11
58.8451
 21
100.441
 31
0.0
  0
LINE
  8
0
 62
     0
 10
58.8451
 20
100.441
 30
0.0
 11
58.0443
 21
100.441
 31
0.0
  0
LINE
  8
0
 62
     0
 10
58.0443
 20
100.441
 30
0.0
 11
58.0443
 21
101.442
 31
0.0
  0
LINE
  8
0
 62
     0
 10
58.0443
 20
101.442
 30
0.0
 11
44.045
 21
101.442
 31
0.0
  0
LINE
  8
0
 62
     0
 10
24.9949
 20
101.442
 30
0.0
 11
24.9949
 21
100.441
 31
0.0
  0
LINE
  8
0
 62
     0
 10
24.9949
 20
100.441
 30
0.0
 11
24.1928
 21
100.441
 31
0.0
  0
LINE
  8
0
 62
     0
 10
24.1928
 20
100.441
 30
0.0
 11
24.1928
 21
97.342
 31
0.0
  0
LINE
  8
0
 62
     0
 10
24.1928
 20
97.342
 30
0.0
 11
24.9949
 21
97.342
 31
0.0
  0
LINE
  8
0
 62
     0
 10
24.9949
 20
97.342
 30
0.0
 11
24.9949
 21
91.5416
 31
0.0
  0
LINE
  8
0
 62
     0
 10
24.9949
 20
91.5416
 30
0.0
 11
24.1928
 21
91.5416
 31
0.0
  0
LINE
  8
0
 62
     0
 10
24.1928
 20
91.5416
 30
0.0
 11
24.1928
 21
88.441
 31
0.0
  0
LINE
  8
0
 62
     0
 10
24.1928
 20
88.441
 30
0.0
 11
24.9949
 21
88.441
 31
0.0
  0
LINE
  8
0
 62
     0
 10
24.9949
 20
88.441
 30
0.0
 11
24.9949
 21
87.442
 31
0.0
  0
LINE
  8
0
 62
     0
 10
24.9949
 20
87.442
 30
0.0
 11
38.9943
 21
87.442
 31
0.0
  0
LINE
  8
0
 62
     0
 10
38.9943
 20
87.442
 30
0.0
 11
38.9943
 21
88.441
 31
0.0
  0
LINE
  8
0
 62
     0
 10
38.9943
 20
88.441
 30
0.0
 11
39.7937
 21
88.441
 31
0.0
  0
LINE
  8
0
 62
     0
 10
39.7937
 20
88.441
 30
0.0
 11
39.7937
 21
91.5416
 31
0.0
  0
LINE
  8
0
 62
     0
 10
39.7937
 20
91.5416
 30
0.0
 11
38.9943
 21
91.5416
 31
0.0
  0
LINE
  8
0
 62
     0
 10
38.9943
 20
91.5416
 30
0.0
 11
38.9943
 21
97.342
 31
0.0
  0
LINE
  8
0
 62
     0
 10
38.9943
 20
97.342
 30
0.0
 11
39.7937
 21
97.342
 31
0.0
  0
LINE
  8
0
 62
     0
 10
39.7937
 20
97.342
 30
0.0
 11
39.7937
 21
100.441
 31
0.0
  0
LINE
  8
0
 62
     0
 10
39.7937
 20
100.441
 30
0.0
 11
38.9943
 21
100.441
 31
0.0
  0
LINE
  8
0
 62
     0
 10
38.9943
 20
100.441
 30
0.0
 11
38.9943
 21
101.442
 31
0.0
  0
LINE
  8
0
 62
     0
 10
38.9943
 20
101.442
 30
0.0
 11
24.9949
 21
101.442
 31
0.0
  0
LINE
  8
0
 62
     0
 10
323.977
 20
108.344
 30
0.0
 11
323.42
 21
108.06
 31
0.0
  0
LINE
  8
0
 62
     0
 10
323.42
 20
108.06
 30
0.0
 11
322.976
 21
107.618
 31
0.0
  0
LINE
  8
0
 62
     0
 10
322.976
 20
107.618
 30
0.0
 11
322.693
 21
107.061
 31
0.0
  0
LINE
  8
0
 62
     0
 10
322.693
 20
107.061
 30
0.0
 11
322.596
 21
106.441
 31
0.0
  0
LINE
  8
0
 62
     0
 10
322.596
 20
106.441
 30
0.0
 11
322.693
 21
105.824
 31
0.0
  0
LINE
  8
0
 62
     0
 10
322.693
 20
105.824
 30
0.0
 11
322.976
 21
105.267
 31
0.0
  0
LINE
  8
0
 62
     0
 10
322.976
 20
105.267
 30
0.0
 11
323.42
 21
104.823
 31
0.0
  0
LINE
  8
0
 62
     0
 10
323.42
 20
104.823
 30
0.0
 11
323.977
 21
104.539
 31
0.0
  0
LINE
  8
0
 62
     0
 10
323.977
 20
104.539
 30
0.0
 11
324.595
 21
104.442
 31
0.0
  0
LINE
  8
0
 62
     0
 10
324.595
 20
104.442
 30
0.0
 11
325.213
 21
104.539
 31
0.0
  0
LINE
  8
0
 62
     0
 10
325.213
 20
104.539
 30
0.0
 11
325.771
 21
104.823
 31
0.0
  0
LINE
  8
0
 62
     0
 10
325.771
 20
104.823
 30
0.0
 11
326.213
 21
105.267
 31
0.0
  0
LINE
  8
0
 62
     0
 10
326.213
 20
105.267
 30
0.0
 11
326.497
 21
105.824
 31
0.0
  0
LINE
  8
0
 62
     0
 10
326.497
 20
105.824
 30
0.0
 11
326.595
 21
106.441
 31
0.0
  0
LINE
  8
0
 62
     0
 10
326.595
 20
106.441
 30
0.0
 11
326.497
 21
107.061
 31
0.0
  0
LINE
  8
0
 62
     0
 10
326.497
 20
107.061
 30
0.0
 11
326.213
 21
107.618
 31
0.0
  0
LINE
  8
0
 62
     0
 10
326.213
 20
107.618
 30
0.0
 11
325.771
 21
108.06
 31
0.0
  0
LINE
  8
0
 62
     0
 10
325.771
 20
108.06
 30
0.0
 11
325.213
 21
108.344
 31
0.0
  0
LINE
  8
0
 62
     0
 10
325.213
 20
108.344
 30
0.0
 11
324.595
 21
108.442
 31
0.0
  0
LINE
  8
0
 62
     0
 10
324.595
 20
108.442
 30
0.0
 11
323.977
 21
108.344
 31
0.0
  0
LINE
  8
0
 62
     0
 10
5.47493
 20
108.344
 30
0.0
 11
4.91822
 21
108.06
 31
0.0
  0
LINE
  8
0
 62
     0
 10
4.91822
 20
108.06
 30
0.0
 11
4.47587
 21
107.618
 31
0.0
  0
LINE
  8
0
 62
     0
 10
4.47587
 20
107.618
 30
0.0
 11
4.19199
 21
107.061
 31
0.0
  0
LINE
  8
0
 62
     0
 10
4.19199
 20
107.061
 30
0.0
 11
4.09416
 21
106.441
 31
0.0
  0
LINE
  8
0
 62
     0
 10
4.09416
 20
106.441
 30
0.0
 11
4.19199
 21
105.824
 31
0.0
  0
LINE
  8
0
 62
     0
 10
4.19199
 20
105.824
 30
0.0
 11
4.47587
 21
105.267
 31
0.0
  0
LINE
  8
0
 62
     0
 10
4.47587
 20
105.267
 30
0.0
 11
4.91822
 21
104.823
 31
0.0
  0
LINE
  8
0
 62
     0
 10
4.91822
 20
104.823
 30
0.0
 11
5.47493
 21
104.539
 31
0.0
  0
LINE
  8
0
 62
     0
 10
5.47493
 20
104.539
 30
0.0
 11
6.09505
 21
104.442
 31
0.0
  0
LINE
  8
0
 62
     0
 10
6.09505
 20
104.442
 30
0.0
 11
6.71241
 21
104.539
 31
0.0
  0
LINE
  8
0
 62
     0
 10
6.71241
 20
104.539
 30
0.0
 11
7.26916
 21
104.823
 31
0.0
  0
LINE
  8
0
 62
     0
 10
7.26916
 20
104.823
 30
0.0
 11
7.71289
 21
105.267
 31
0.0
  0
LINE
  8
0
 62
     0
 10
7.71289
 20
105.267
 30
0.0
 11
7.99677
 21
105.824
 31
0.0
  0
LINE
  8
0
 62
     0
 10
7.99677
 20
105.824
 30
0.0
 11
8.09459
 21
106.441
 31
0.0
  0
LINE
  8
0
 62
     0
 10
8.09459
 20
106.441
 30
0.0
 11
7.99677
 21
107.061
 31
0.0
  0
LINE
  8
0
 62
     0
 10
7.99677
 20
107.061
 30
0.0
 11
7.71289
 21
107.618
 31
0.0
  0
LINE
  8
0
 62
     0
 10
7.71289
 20
107.618
 30
0.0
 11
7.26916
 21
108.06
 31
0.0
  0
LINE
  8
0
 62
     0
 10
7.26916
 20
108.06
 30
0.0
 11
6.71241
 21
108.344
 31
0.0
  0
LINE
  8
0
 62
     0
 10
6.71241
 20
108.344
 30
0.0
 11
6.09505
 21
108.442
 31
0.0
  0
LINE
  8
0
 62
     0
 10
6.09505
 20
108.442
 30
0.0
 11
5.47493
 21
108.344
 31
0.0
  0
ENDSEC
  0
EOF
